<?xml version="1.0" encoding="UTF-8"?>
<svg id="Layer_2" data-name="Layer 2" xmlns="http://www.w3.org/2000/svg" viewBox="0 0 901.51 1139.1">
  <g id="Layer_1-2" data-name="Layer 1">
    <g>
      <path d="M345.67,998.45l-7.37-18.7-6.3-16.69-4.39-11.34-4.9-12.72-8.94-24.57c-2.24-6.16-4.23-13.13-6.86-19.05l-4.67-10.51c-.63-1.41-3.59-4.16-4.81-5.16-2.05-1.67-21.18,40.74-18.94,34.49l-4.46,12.42-8.3,13.97-7.8,12.84c-9.18,15.11-13.75,10.1-9.51,38.41l2.5,16.69c1.15,7.65,1.41,18.47,1.77,26.79.12,2.84,3.33,9.09,3.59,11.6l1.67,16.11-7.45,1.03c-4.28.59-6.88-11.26-8.34-10.99l-5.63,1.04c-2.21.41-6.47-1.66-9.2-2.81l-22.39-9.5c-7.13-3.03-27.19-10.56-27.56-18.31-.04-.79.46-2.24,1.28-2.09,1.19.22,3.94.99,5.1,1.52l23.38,10.83,14.66,6.79c3.79,1.75,10,3.12,15.11,4.25l.75,4.94c.05.31,8.61,7.19,3.94-21.82l-3.2-19.89c-1.33-8.29-3.24-16.16-5.39-23.7l-11.26,8.06-15.86,8.14c-8.14,4.18-21.26,6.25-31.29,8.95l-1.67,10.91c-16.34,4.77-20.27-6.72-35.46-12.63l-14.89-5.8-33.92-14.1-7.56-8.17-9.61-.78c-2.23-.18-1.13-9.96,1.01-9.3,3.67,1.14,7.43,4.7,12.44,9.66,5.45-6.2,13.5-40.45,8.37-50.74l-10.39-20.84c-1.79-3.6-3.52-8.53-4.9-12.49l-8.77-25.2c-1.92-5.51-3.24-12.17-5.03-18.43l-4.36-15.18c-.34-1.19-3.46-4.63-4.02-3.54l-2.64,5.17-6.89,13.51-8.57,16.97-8.6,17.11-18.36,35.37c-4.07,7.85-3.41,16.27-.24,24.78l-10.55-2.04.33-203.15c2.37-4.66,4.7-11.12,4.72-16.68l.57-162.56.14-29.59-.16-62.31.27-13.7.18-19.97-.27-21.02-.58-45.33c-.05-3.89,3.53-11.96,3.57-15.85l1.24-117.02.6-70.65c.1-12.25,26.15-15.59,32.74-18.82l20.77-10.16c3.51-1.72,11.19-3.54,15.35-4.66l7.04-1.89c6.14-4.13,11.51-6.71,18.26-9.44l12.81-5.16,43.62-17.55,14.95-5.57,12.47-6.62,13.08-5.48,19.93-8.21,12.23-4.94c24.41-9.87,11.47-6.45,40.1-16.79,12.19-4.4,27.59-11.34,38.03-16.32,2.36-1.13,10.37.26,9.63,2.27l-2.51,6.87-13.8,4.14c-17.47,5.24-32.61,9.53-35.55,27.4l-3.67,22.32c-1.77,10.77-3.18,20.35-4.35,31.49l-4.3,10.46,25.18,42.09c12.9,21.57,20.59,52.01,25.42,60.45,2.1,3.67,3.98-8.19,11.1-21.66,2.55-4.83,4.78-11.3,7.02-16.6l9.79-23.12,13.75-32.5,6.12-14.1c3.77-8.7,6.8-16.58,10.56-25.6l9.45-22.73,4.68-11.05c7.34-17.32,8.07-9.53,7.38-36.78l-.65-25.77-23.43,10.6-17.59,7.6c-12.37,5.35-16.39,12.62-18.3,8.34l-3.13-7.03,4.14-5.04,12.39-4.79,25.53-9.92c25.39-9.87,2.19-2.77,27.36-11.49,2.61-.91,8.23,4.4,8.21,6.96l-.25,40.29-1.45,12.64c-1.82,15.94,0,30.28,1,46.15.37,5.95-2.47,12.88-2.88,18.32-2.62,34.72-1.17,69.04-1.63,104.22l-.24,18.19-.04,30.31-.02,17.49v15.96s-.02,19.94-.02,19.94l.13,16.2.58,36.79c-1.07,1.37-4.6,4.03-3.93,5.2l4.11,7.16c-1.05,1.1-5.48,8.29-5.47,11.27l.07,33.84c0,2.78,5.63,6.92,8.29,6.97l14.83.28c2.92.06,12.9.61,12.92-5.02.17-59.48.37-133.6.56-200.51,1.36-3.15,4.47-10.44,4.49-14.22l.19-58.2,18.16-10.48c3.25-1.88,11-3.81,15.23-4.98l20.96-5.76c4.66-1.28,10.41-3.11,15.07-4.78l14.96-5.39,31.81-11.62c32.44-11.85,5.99.76,31.83-8.41l14.51-5.15,16.07-5.41,36.58-11.68c10.06-3.21,18.98-8.66,29.3-11.15l16.62-4.01c7.88-1.9,14.68-5.98,22.08-8.11l20.28-5.85,10.77-4.63,15.56-4.77,14.92-5.24c4.11-1.44,9.39-2.9,13.96-4.13l16.62-4.47c7.13-1.92,15.34-6.74,21.8-10.27,4.29-.48,12.64-1.07,16.39-2.24l11.55-3.61c2.38-.75,7.13-4.51,9.5-5.12l18.06-4.6c3.81-.97,9.56-2.18,12.88-2.66l2.19,26.95c.46,5.65-.67,11.43-.69,17.59l-.59,226.93c-.01,5.11-.33,11.74-.82,15.47-.18,1.35-3.39,4.94-2.62,6.08l3.24,4.77-.44,14.78-4.07,10.14-.29,253.67c-1.44,1.38-2.88,2.78-3.67,3.43-1.15.94.58,5.58,2.04,6.88,4.34,3.88-2.39,12.14-2.4,16.81l-.99,267.81-.15,86.09c0,2.86-3.35,9.84-3.39,12.73l-.35,24.78-.45,34.79.33,20.65-.92,61.15c-.04,2.55-.65,6.7-1.42,8.46-3.07,6.95-17.1,1.22-21.01-.37l-25.57-10.41-20.62-7.83-18-7.74c-4.05-1.74-8.73-3.45-13.11-5.02l-26.08-9.33c-2.72-.97-8.26-4.4-11.41-6.18-2.23-1.26-9.62-.67-11.78-1.95l-13.68-8.09-48.04-18.73c-2.59-1.01-10-1.78-12.58-2.43-9.53-6.48-20.81-10.32-31.87-14.79l-24.76-10-23.46-9.52-12.87-5.22-16.32-6.69-30.92-12.78-27.66-10.69-17.39-5.98c-3.61-1.24-7.93-3.45-11.55-5.17l-16.14-7.65-14.13-6.61c-3.52-1.65-14.51-2.44-14.44-6.13l.31-18.2,1.01-111.58,1.93-28.75.87-77.97,1.23-35.21c.12-3.56-7.16-8.34-10.48-8.2l-18.84.77-6.96,7.68c-.23,2.82-1.47,8.28-1.48,11.25l-.6,144.77-.12,32.16c-.01,2.77-2.75,9.79-3.3,12.61l-1.09,118.56-.23,56.35-.14,35.91-.62,10.01-.21,13.52c-8.14,1.63-15.31-1.06-22.32-4.39l-19.31-9.16c-2.83-1.34-8.25-3.04-10.48-4.58l-12.61-8.71c2.46-1.9,8.5-3.32,10.79-2.32l13.21,5.75c9.1,3.96,16.93,7.98,27.87,12.27l1.91-34.38c.24-4.41-1.35-13.61-2.56-17.55l-5.19-16.77c-1.73-5.6-5.69-12.86-7.99-18.61l-9.28-23.22ZM769.86,255.99l9,19.52c.97,2.1,3.16,4.99,7.03,10.85l10.76-15.18,11.27-16.38,7.54-10.94,6.24-9.03c1.52-2.2,3.86-6.8,5.47-9.48,11.93-16.95,16.85-28.84,25.48-46.76l7.96-16.53,5.41-13.02c1.67-4.02,3.49-8.49,4.87-12.5l4.67-13.63,8.43-21.93c10.98-28.58,5.31-37.93,6.4-74.07l-31.35,8.57-15.69,4.74-14.85,5.28-13.05,4.84-22.77,8.46c-13.95,5.18-36.11,3.37-36.7,14.27l-1.48,27.41-2.18,13.39-3.99,30.76-1.54,11.9-6.25,19.35c-3.39,10.5-6.03,19.41.49,29.21l8.31,12.49c3.51,5.28,11.24,18.54,13.83,24.06l6.71,14.36ZM251.03,130.68l1.96-29.99c.57-1.96,3.47-7.62,3.9-9.67l3.21-15.22c.37-1.74-.68-8.83-2.32-8.24l-6.45,2.33-14.62,5.61-15.31,5.86c-2.49.95-6.77,3.77-9.95,5.62-16.36,9.53-26.74,8.9-24.09,17.42,3.08,9.91,20.87,1.68,31.83,7.97l31.86,18.29ZM684.9,146.56c2.74,1.93,9.94,4.87,12.06,6.9l22.11,21.11c2.28,2.18,9.99,5.17,11.04,2.75l4.79-23.67,2.92-16.04c2.32-12.74,4.81-29,2.12-40.98,4.08-3.18,8.52-12.49,2.77-18.39-3.32-3.4-12.64-.13-16.05,2.53l-9.97,3.31-21.28,7.08-17.59,5.85-12.92,4.29-24.58,8.16-.28,21.97,13.54,2.14,16.73,2.71,14.61,10.28ZM340.07,382.31c3.92,19.4-3.07,32.3,6.02,43.77l.19,8.38c5.4-3.1,9.03-5.07,11.21-6.64l19.77-14.28c2.33-1.69,5.56-7.83,5.55-10.79l-.09-49.08.63-15.27-.25-18.59c1.41-2.53,4.3-8.77,4.76-12.23.34-2.54-5.2-8.95-6.21-9.68,3.06-4.32,5.44-9.41,5.47-15.75l.67-180.83c0-1.95-2.12-6.87-2.98-8.48l-7.11,16.16-9.99,22.72-9.79,23.57-6,14.52-11.58,26.59-4.68,10.12-5.82,15.35c-4.11,10.83-10.08,24.33-15.3,35.25-1.31,2.74,1.08,9.79,1.81,12.81l10.86,45.04c1.38,5.74,2.45,12.68,3.56,18.74l2.98,16.19,2.64,14.1,3.7,18.33ZM125.21,157.71c10.95-16.93,14.88-19.86,27.59-32.4,14.77-13.18,20.65-3.08,20.97-15.33.05-2.01-5.08-4.87-7.23-4.11l-26.71,9.49c-8.1,2.88-14.73,8.22-22.59,13.9l.24,22.79c.03,2.38,6.51,7.53,7.72,5.66ZM549.14,192.79l10.44-13.08c4.27-5.35,9.67-10.35,15.02-15.49,3.11-2.99,7.69-9.1,10.83-10.94l13.38-7.8,14.81-9.03c2.8-1.71,12.32-.69,15.58-1.93l.03-21.51-16.65,3.81c-8.08,1.85-15.1,5.3-22.38,9.33-2.71.77-9.3,2-11.95,2.93l-15.37,5.39c-9.51,3.33-18.21,5.94-28.66,8.95-3.34,4.36-.6,16.94,1.99,23.19l9.36,22.6c2.05,2.06,3.83,3.84,3.57,3.58ZM238.6,181.18c.43-2.93,3.37-9.75,4.09-12.49l4.36-16.57c.87-3.32-1.56-10.52-4.13-12.3l-22.92-15.84c-5.96-4.12-11.98-6.12-20-6.33-9.34-.24-16.96,4.36-16.92,13.94l.26,69.4c31.41,1.77,20.59-1.68,45.8,13.64,2.28,2.25,4.22,4.16,3.75,3.7l2.33-14.25,3.39-22.9ZM797.19,330.9c1.47,4.59,3.96,10.91,4.53,14.06l4.05,22.18c.84,4.62,3.1,10.79,4.2,15.24l4.73,19.18,2.97,28.33c7.28,6.08,1.25,18.22,5.84,18.22h5.28s38.12-18.5,38.12-18.5l18.47-8.98.41-152.1c1.49-3.34,4.32-10.5,4.32-13.95l.2-110.12c.01-7.26-.95-14.31-2.17-20.75l-8.81,21.93c-3.04,7.56-6.67,15.02-10.45,22.52l-5.08,10.08c-.77,1.52-1.97,6.48-2.5,8.08-2.24,3.61-5.77,9.1-7.14,12.86l-5.5,15.01c-17.77,14.61-.65,4.19-17.78,27.89l-14.07,19.48-9.63,13.52-10.5,16.56c-3.31,3.42-9.4,8.53-8.96,12.19.38,3.14,3.69,9.07,4.68,12.14l4.79,14.93ZM135.69,230.67l7.03-7.89,19.74-15.71,8.56-3.45c1.56-.63,2.26-5.86,2.27-8.23l.21-60.7c0-2.25-5.21-7.83-6.88-6.51l-10.36,8.17c-5.21,4.11-10.01,9.1-13.8,14.28l-8.72,11.94-7.67,10.52c-5.89,8.08-5.65,18.37,1.14,25.24.66,13.87-3.66,23.32,8.5,32.33ZM62.69,291.68l4.9-9.87,5.42-15.02,7.43-20.62c2.34-6.48,4.96-13.86,7.83-19.82l6.68-13.87,14.14-29.39c3.89-8.09,3.23-14.57-.23-23.99-4.16-11.32,1.73-20.76-4.5-25.31-2.16-1.58-15.93-2.89-21.63,5.61-7.74,2.99-16.3,5.93-23.67,9.34l-26.07,12.07c-6.54.25-13.44,7.02-13.25,13.91.59,22.17-1.78,17.69,6.58,35.44l4.97,10.54,14.73,31.21,7.4,15.66,9.28,24.11ZM718.86,214.46c3.98-9.95,6.41-20.4-2.19-27.86l-7.27-2.43c-.83-3.02-1.9-5.78-3.06-6.99l-8.02-8.33c-3.25-3.38-8.71-6.83-13.13-9.85l-8.89-6.07-12.7-5.9-12.64-3.02c-2.11-.5-6.39-.66-8.34-.59-1.3.05-2.62,4.86-2.64,6.48l-1.05,65.05c-.06,3.8-5.81,12.05-3.76,14.67,9.68,12.4,7.05.17,32.94,18.57,3.76,2.67,8.39,5.91,11.34,8.91l11.14,11.34c6.5-4.25,17.67-27.47,20.55-34.68l7.71-19.3ZM480.42,276.35c3.04,8.77,5.95,15.34,12.08,22.75l12.61-31.61c2.91-7.3,8.29-15.42,12.11-22.93l7.08-13.94c1.33-2.63,5.24-7.16,7.19-10.5l8.57-14.63c1.04-1.77-2.81-7.2-3.52-9.2l-4.39-12.56-7.45-21.32c-1.6-4.58-5.98-12.3-7.83-14.93l-12.91,5.31-21.85,8.5c-5.97,2.32-12.4,3.92-19,5.38l-18.46,4.09-.82,12.56c-.35,5.42-2.14,11.96-3.91,18.46,1.24,8.38,8.8,19.45,14.5,27.27,5.38,7.37,9.25,14.33,13.85,22.44,1.62,2.86,6.55,8.67,7.59,11.67l4.57,13.18ZM566.96,253.31l18.99-13.21c5.83-4.06,24.48-8.44,35.1-6.89l4.32-3.78-.07-55.21c5.75-6.91,5.28-19.13,2.79-26.97-2.9-9.16-44.35,21.48-49.9,28.54l-11.45,14.55c-2.81,3.58-10.57,9.3-14.68,13.33-2.98,2.91.97,12.53,2.15,16.36l5.61,18.12,1.28,14.93c.28.01,4.64.08,5.84.24ZM276.34,299.85l.9,6.04c.2,1.33,5.57,1.49,5.99.21s1.16-3.89,1.85-5.61l12.65-31.28c7.04-17.4-1.55-23.06-8.36-44.5-4.67-14.7-9.21-29.31-17.06-42.24l-12.62-20.78-4.98-1.6c-3.13-1.01-1.93,20.42-3.86,30.92l-3.21,17.47c-.91,4.98-1.85,9.67-3.56,14.63-1.75,5.08,3.64,13.14,7.26,17.28,2.95,18.99,6.05,9.01,12.36,23.68l9.24,21.49c1.55,3.61,2.74,9.97,3.38,14.28ZM90.46,322.43l4.88-17.85,4.86-10.39,11.74-28.31c19.37-16.55,6.8-39.01,6.26-41.53-.98-4.6-1.08-32.14-6.51-21.92l-2.73,5.13c-2.01,3.77-4.19,7.94-5.73,11.64l-6.18,14.8c-4.35,10.41-9.37,19.97-12.6,30.65l-4.84,16-4.62,15.28c-.76,2.52-5.06,10.16-3.9,12.49l12.76,25.7c2.97-4.34,5.85-8.89,6.61-11.69ZM223.82,306.07l.92-38.87c.37-.87,3.5-6.58,3.72-8.27,3.09-24.55,2.4-28.39-13.62-40.59-7.05-5.37-21.3-9.98-28.13-6.42-2.7,1.41-4.92,11.45-4.23,14.56l4.27,19.41c1.84,8.34,1.11,19.15,1.2,29.02.09,9.32,8.09,11.82,14.39,15.82,7.62,4.84,12.66,8.96,21.48,15.34ZM731.73,339.87c5.07-1.44,10.99-7.04,13.4-10.19,2.68-3.5,8.91-7.78,11.55-10.78l15.06-17.1c5.63-6.39-1.58-18.06-4.49-24.11l-5.99-12.44-5.05-10.4-10.24-20.22-11.6-22.28c-6.24,7.38-8.25,12.18-11.24,19.98-8.38,21.94-10.8,27.18-23.84,47.86,6.52,17.23,3.1,1.16,15.35,25.05l4.43,8.63,9.85,18.76c-.63.66.94,7.74,2.81,7.22ZM146.51,302.25c-2.11.22,3.94-.41,5.68-.59,12.57-15.81,26.08-10.73,26.15-16.91.5-43.82-3.71-21.07-5.49-53.29l-.94-16.95c-20.04,12.37-20.74,16.94-34.69,32.59-.57,6.98-.69,17.56,1.06,24.18l4.05,15.35,4.19,15.61ZM521.06,312.82l11.94-19.22,10.03-15.99c12.87-7.83,7.33-23.34,4.4-35.41l-3.15-12.98c-.22-.91-3.35-3.88-3.81-3.06l-2.27,4.05-6.68,11.89-17.58,31.27c-3.01,5.36-3.96,13.52-5.32,20.52l-8.09,16.93c-1.93,4.03-4.04,28.78,8.27,30.46,12.68-21.08,4.05-15.24,12.27-28.47ZM52.76,344.83l2.9-14.01,2.96-14.83c.78-3.9.94-10.01-.5-12.92l-5.47-11.07-9.39-20.98-6.79-13.45-11.77-23.34c-.67-4.93-3.05-2.37-4.73,1.55l-.09,87.37.18,107.2,15.88,11.52,3.72-20.27c.68-3.73,2.59-9.9,2.86-13.71l1.16-16.66.35-6.6,3.66-15.41,5.06-24.4ZM476.75,350.22c9.15-29.43,11.43-30.23,3.19-48.45l-11.87-26.24-5.87-13.01c-2.07-4.6-6.57-10.59-9.7-15.1l-9.32-13.47c-.58-4.62-2.45-2.22-4.18,2.28l-.61,186.26c0,2.22,1.93,8.15,3.48,8.95l13.65,7.02c6.99,3.6,5.8-22.15,7.53-31.62l4.47-24.5c.57-3.1,1.81-8.28,2.72-11.21l6.5-20.9ZM605.23,332.05l8.4-21.94c1.07-2.8,5.05-10.12,5.27-13.06l2.08-28.39c4.29-8.32,5.05-17.1,2.17-25.82-17.8,1.45-30.87,5.25-43.35,13.06l-15.13,15.89.14,10.51.51,38.53c.08,6.25-.9,10.68-2.44,18.47,1.53.12,7.02.11,9.16-.27,32.16-5.72,26.41,10.75,33.2-6.98ZM656.76,326.68l12.58-16.42c1.26-1.64,2.88-7.47,4.22-9.04l9.7-11.34c2.01-2.35,1.85-10.55-.43-12.68l-22.21-20.74c-2.47-2.31-9.21-5.9-11.94-7.07l-13.17-5.66c-2.06,38.76,2.59,30.45-9.45,64.41l-4.6,12.99-7.96,22.49,9.03,9.23c1.41,1.44,5.2,3.63,7.15,3.89,1.46.2,5-2.6,6.12-3.99l20.96-26.07ZM263.47,350.71l9.02-21.44,2.83-7.03c-.94,2.32-7.64-13.54-8.84-18.27l-3.81-15.01c-3.3-12.99-11.02-29.69-20.93-38.72l-3.99,17.86c-.98,4.39-3.87,11.65-3.75,16.55l.8,33.45c.1,4.08,5.02,12.96,6.62,16.61l7.13,16.21c4.69,10.67,5.25,23.48,7.64,19.64,10.92-17.53-.44-1.5,7.28-19.86ZM118.42,352.81c1.16-3.02,3.76-8.26,5.51-11.59l8.85-16.87c4.7-8.96,5.4-17.23.33-25.81-5.35-9.05,1.04-11.32-8.47-30.35-6.37,10.85-10.9,20.13-15.36,31.76l-6.34,16.55c-2.05,5.36-3.78,11.98-5.51,17.56-4.33,13.98-7.8,30.31,11.74,42.69l9.25-23.94ZM309.55,461.89l18.9-12.3c10.2-6.64,8.53-16.65,3.63-26.17l-.97-26.31c-.1-2.7-3.08-9.37-3.42-12.03l-2.93-22.9-3.17-18.51c-.84-4.92-1.48-9.61-2.4-14.04l-5.64-27.08c-2.06-9.87-2.65-18.19-7.17-26.65-1.85,5.22-3,10.12-4.13,12.51l-10.64,22.48-5.53,12.81c-1.35,3.12,1.41,10.8,2.38,14.25l8.55,30.3c3.15,11.15,5.8,35.35,6.32,49.69.19,5.32,3.58,13.37,3.99,18.05l2.23,25.9ZM514.78,395.46c5.58-9.07,9.1-15.24,13.99-21.88l8.6-11.67,11.06-14.73c2.61-3.48,2.24-13.52,2.64-18.62.22-2.78,3.06-10.06,3.08-12.95l.13-23.38-4.45-5.5-8.98,15.45c-1.86,3.19-5.01,8.18-6.4,11.1l-12.44,26.09-5.98,12.82c-5.4,11.57-9.26,24.05-6.47,37.26l1.36,6.45c.22,1.05,2.24.18,3.86-.43ZM699.56,371.67l12.41-8.71c2.79-1.96,7.76-8.87,9.61-11.8,1.26-1.99-1.75-8.27-2.72-10.36l-8.2-17.64c-2.79-5.99-6.34-12.1-9.76-17.9l-6.92-11.71c-10.71,10.25-7.43,14.49-15.66,25.32l-9.11,12c-2.88,3.79-6.48,9.78-9.33,13.07l-21.07,24.31,13.21,25.48,3.47,6.69c3.89,7.5,40.86-26.5,44.08-28.76ZM181.68,374.73l20.84-13.09-5.34-14.55c-2.66-7.25-6.15-14.88-8.25-21.97l-7.96-26.87-18.55,7.83c-4.09,1.73-9.14,12.88-7.43,16.87l6.45,15.07c2.76,6.44,6.45,12.52,9.8,18.39l10.44,18.32ZM230.99,360.78l-1.35-17.37c-1.72-22.17-8.18-14.88-18.1-31.28-2.66-4.4-9.15-10.86-13.33-9.47-1.77.59-1,7.91-.45,9.89l4.52,16.06c2.19,7.78,7.35,21.76,11.88,28.35,2.33,3.39,15.3,4.43,16.84,3.83ZM786.98,463.56l13.65-5.79c2.89-1.22,9.75-3.74,9.07-6.26-6.69-24.66-.03-14.69-7.47-48.15l-7.01-31.55-4.11-19.84c-1.19-5.74-2.78-12.02-4.52-18.34l-4.68-16.96c-.73-2.63-7.71-.74-9.76,1.71-10.01,11.95-18.9,21.14-30.22,31.52-2.21,2.03-5.63,7.29-4.67,9.79.76,1.99,2.87,6.19,3.46,8.28l5.07,18.07,5.11,18.16c2.21,7.87,3.38,17.19,4.59,26.13,3.7,27.44,4.78,8.65,4.8,36.85l3.39,3.82c4.63-.77,9.02-1.36,11.5-2.42l11.82-5.03ZM56.95,458.74l5.6,1.76c4.4,1.38,2.78-24.99,4.64-35.86l1.92-11.21,3.01-18.19c2.53-15.3,12.26-37.13,5.38-51.18l-9.39-19.15c-1.97,5.46-4.59,12.29-5.18,15.91l-2.49,15.14c-1.19,7.24-2.09,15.42-2.63,22.94-.12.97-4.15,6.88-4.22,8.72l-1.04,26.59c-.5,2.34-4.07,8.79-4.13,11.23l-.65,22.96c-.09,3.1,6.28,9.44,9.18,10.36ZM172.3,392.33l3.73-7.55c-3.59-4.96-7.66-10.87-10.6-16.4l-9.02-16.98c-8.68-16.34-6.4-18.78-14.53-22.14l-6.94,15.99-3.87,9.07c-4.76,8.08-7.78,14.99-9.18,24.6l-4.46,8.96c3.39,5.84,9.49,11.65,15.55,15.42l15.68,15.04c1.67,1.6,7.16,3.23,9.24,2.6,3.43-1.04,8.86-17.41,14.39-28.61ZM298.65,450.26c.04-3.77-3.56-10.78-4.98-13.78.31-2.75,1.13-9.56.58-12.24l-3.04-14.89-4.62-30.88-2.94-19.75c-.52-3.48-3.43-10.14-5.8-16.16l-9.83,34.66c-3.81,13.42-1.95,33.08.04,47.95l4.78,35.78,3.53,26.44,22.07-15.98.21-21.15ZM487.96,413.77c1.67-4.66,1.97-12.73,1.84-18.95l5.17-7.95-.32-35.02c-.01-1.36-1.4-5.29-1.77-6.53-3.17-10.49-10.68,25.12-10.01,19.29l-2.34,20.4c.77-6.72-7.62,31.79-9.37,45.68-.44,3.47-1.17,6.31-2.18,10.61.22.79,7.49,1.01,9.41.05,10.6-5.32,2.56-7.96,9.58-27.59ZM559.86,393.86c18.2-13.75-4.14,4.13,14.27-15.09l15.58-16.27c2.67-2.79,3.7-14.14-1.38-14.77-12.26-1.5-34.99,7.87-32.83,23.44l-11.11,19.32-5.52,9.54c-.94,1.63,2.5,7.16,4.1,6.19,1.07-.65,3.38-2.15,4.61-3.08l12.28-9.27ZM581.72,404.09l33.38-27.83c2.04-1.7,5.42-5.93,5.11-8.26-.24-1.75-2.98-5.13-4.52-6.3l-7.53-5.71c-1.64-1.25-5.71,5.3-7.04,7.2l-15.43,22.05c-2.51,3.59-7.24,7.95-11.13,11.32,3.5-3.04-27.58,22.32-11.35,18.96,8.01-1.66,12.84-6.7,18.51-11.43ZM689.47,493.8l15.28-4.95,15.45-5.02c20.53-6.67,21.98-.82,27.98-7.13,1.64-1.73,1.33-7.47.91-10.24l-5.43-35.93-3.28-19.32c-1.04-6.15-2.92-12.23-4.48-18.88l-4.85-20.68c-.49-2.09-4.69-6.89-6.26-5.71-1.26.95-4.01,3.02-5.41,4.22l-26.38,22.52c-2.91,2.48-6.46,5.9-9.44,7.8l-14.3,9.11c-2.49,1.59-7.24,6.48-6.39,9.06l3.55,10.78,4.79,19.31c1.41,5.7,2.94,11.84,4.06,17.58l4.25,21.74c.34,1.74,2.6,5.25,3.84,6.45.83.8,4.83-.28,6.1-.69ZM243.42,428.51c3.28,1.3,11.98-5.21,13.13-7.25-9.19-7.48-17.41-13.02-24.21-20.21l-12.57-13.28-14.2-18.91-13.83,17.06c3.53,4.06,8.6,9.98,12.81,14.2l9.1,9.14c7.16,7.19,19.63,15.21,29.76,19.25ZM92.73,456.47l2.6-21.36,3.81-14.69,5.23-20.28c1.24-4.83.99-10.65-1.92-13.85l-11.9-13.14s-2.64,4.09-3.54,5.48c-1,5.89-1.87,10.61-2.93,15.37l-4.21,19.03c-.47,2.1-3.15,7.91-3.27,9.9l-1.39,23.64c-3.43,7.12-7.05,19.21-1.33,25.45,2.57,2.8,12.12,6.49,13.52,6.8l5.33-22.33ZM240.62,388.31l-9.98-9.3c1.31,3.59,2.36,6.15,3.69,8.69l2.54,4.84c.5.95,4.59-3.44,3.75-4.22ZM613.06,430.2c17.22-10.74,12.08-.83,22.73-12.83l10.87-7.32c-1.65-4.3-3.19-10.02-4.7-12.32l-12.6-19.25-14.1,12.93-15.92,14.69c-2.54,2.35-5.21,5.44-7.58,7.06l-14.6,9.99,5.75,9.49c1.38,2.27,2.45,5.76,5.43,12.96l24.72-15.42ZM236.95,437.89l-11.13-5.96c-5.39-2.88-17.29-13.25-22.21-17.95l-16.73-16.01c-11.28-.64-17.45,28.9-17.53,28.23.85,7.65,33.47,23.42,46.94,27.25l12.35,3.51,8.31-19.08ZM134.27,499.81c12.22,3.98,10.79-24.45,12.05-29.14l5.59-20.8,2.79-10.42c.67-2.49-3.65-7.15-5.89-8.94l-18.35-14.7c-2.93-2.35-8.56-9.56-11.43-12.3-1.4-1.34-8.33,3.04-7.48,4.75l2.46,5.01c-3.25,3.56-4.87,8.27-5.08,14.66-.78,23.66-4.02-1.45-5.86,33.96-3.66,8.09-6.18,17.43-1.22,25.57,3.53,1.82,10.55,5.25,14.36,6.48l18.06,5.87ZM542.09,429.66l7.28-3.91c1.57-.84-.03-6.73-1.09-8.69l-41.25,23.11c-1.17.65-5.4,1.63-6.47,1.91-9.61,2.47,5.54,6.89,41.53-12.43ZM345.2,681.59l13.3,9.07c3.38,2.3,7.61,6.45,10.64,9.54l2.93,2.99c.55.56,4.47-2.51,4.51-3.29l1.78-28.58c.42-6.68,4.83-14.64,4.43-20.99l-1.45-23.03c-.22-3.55,1.07-11.17,1.07-15.8l.1-189.69-24.61,18.47c-2.96,2.22-4.76,3.21-10.93,6.73-2.3,16.3,2.41,20.09,2.4,39.65l-.07,112.02-2.9,17.56.02,28.94c.01,17.11-11.31,29.55-1.23,36.41ZM644.77,501.99l15.3-2.27c3.01-.45,8.98-4.14,8.48-6.86l-2.57-13.96-3.37-14.62c-1.95-8.43-3.16-17.64-6.1-25.53l-5.68-15.25c2.13-1.16-1.86,1.02-3.69,2.01l-14.15,8.96c-11.86,7.51-23.79,12.55-38.12,19.34l5.34,19,5.76,20.45c.94,3.34,1.61,9.55,2.3,14.15l36.52-5.42ZM546.29,460.4l12.91-4.33c6.86-2.3,11.98-4.9,17.93-9.3l-10.37-14.74c-1.88-2.67-10.15,3.07-13.15,4.72-14.77,8.15-34.85,14.96-39.35,19.76-2.18,2.32,3.37,10.93,6.63,10.82,3.34-.1,9.65-1.65,13.36-2.9l12.04-4.04ZM873.65,713.69l4.13,2.66c.87.56,2.62-4.59,2.62-5.62l.03-53.02.07-33.24-.04-15.48.65-30.38c.3-14.08.87-28.85.33-42.25.33-.97,3.78-7.49,3.78-10.25l.05-85.08c0-1.38-1.61-6.73-2.68-6.24l-4.69,2.16-13.8,6.33-10.24,4.94-33.22,16.32c1.86,4.12,4.19,9.05,5.01,11.21l.33,49.18,2.9,18.18.62,49.6-3.25,11.7-.46,54.06c-4.27,6.42-8.04,19.82-2.78,26.35,11.37,14.12,30.33,15.81,50.63,28.87ZM213.56,514.54l5.13-23.05,3.93-15.65,1.53-6.11c-.19.77-14.18-4.9-17.06-6.08l-14.98-6.16c-15.6-6.41-13.05-12.57-23.78-14.3-7.28-1.18-8.25,18.12-9.5,23.7l-3.83,17.12-2.53,11c-.28,1.22-2.54,5.17-1.52,5.76l4.67,2.74c16.6,10.37,31.74,7.73,45.51,13.19,3.47,1.38,11.65,1.36,12.43-2.17ZM31.22,621.88c-.57-5.24,1.84-13.49,1.2-17.44-1.3-7.98-4.36-16.89-3.79-23.13l2.08-22.59c2.33-25.41-.95-1.83,1.34-31.43.98-12.67,1.26-25.28,1.36-37.99l.16-21.33c.07-9.75-3.62-19.27-10.66-24.77l-7.24,3.7c-4.43,2.26,3.87,3.56,3.87,15.12l-.05,64.57-.17,15.68-4.04,18.25-.37,98.9c0,1.83,1.32,6.89,2.45,6.42l5.07-2.13,9.44-4.01,1.51-18.04-2.17-19.78ZM260.4,466.32c.58-9.05,1.47-16.74-1.5-19.99-5.37-5.85-15.02,1.44-16.27,6.75l-1.49,6.33c.62-2.63,3.03,12.25,19.26,6.91ZM329.53,667.7l1.7-8.08c7.28-34.57,5.5-29.59,5.5-68.48v-99.58s-.21-27.74-.21-27.74c0-1.02-1.81-5.57-2.72-5.31l-4.17,1.21-13.55,9.79c-15.31,11.06-3.38,45-3.48,39.41l1.17,64.39c.08,4.36-3.9,11.94-4.06,15.41l-2.39,49.67c-1.04,21.64-2.15,11.97,22.2,29.3ZM430.39,460.17l-19.33,2.72-7.33-1.39c-1.1-.21-5.25-.46-4.84.58l1.59,4.03,25.11.16,4.81-6.09ZM488.04,476.91l16.66-3.79c1.12-.25,3.3-5,2.56-5.9l-3.61-4.39c-1.88-2.29-8.71-3.26-11.77-2.15l-15.46,5.6c-6.29,2.28-11.07,5.03-18.71,9.43,6.85,9.47,24.05,3.25,30.34,1.2ZM577.18,513.66c6.96.02,15.63-4.11,19.86-8.29l-4.37-11.62c-.74-7.94-1.92-15.06-4.49-21.46l-5.36-13.35-27.25,12.39-19.59,5.15c-1.93.51-6.29,2.51-7.98,3.45s1.22,6.08,1.93,8.52c4.1,14.11,2.44,25.08,10.87,25.11l36.4.12ZM56.61,532.24l.19-17.19c.28-25.14,11.04-30.56,0-43.54l-6.72-3.7c-2.38,6.08-6.67,14.25-6.93,18.56l-.3,94.68.19,64.05c0,2.81,10.26,4.28,11.52,1.84,1-1.95,2.28-5.75,2.19-8.49l-.5-14.83.37-91.38ZM802.05,678.26l6.88,3.15c3.34,1.53,1.11-18.45,3.69-29.78,1.21-5.33,3.43-11.69,3.48-16.84l.62-69.01v-14.02s-1.56-64.79-1.56-64.79c.25,10.25-2.61-23.63-11.1-18.94l-4.41,2.44-17.2,6.19c-5.32,1.91-12.11,5.65-17.62,9.13l.91,69.67v12.81s-.96,84.44-.96,84.44c-.04,3.38,4.34,10.85,7.22,12.13l12.52,5.53,17.53,7.88ZM260.49,523.12c2.02,0,5.19-6.35,5.16-8.45l-.25-18.37c-.07-4.78-1.65-16.1-5.99-17.39l-13.59-3.18c-2.49-.58-6.92-3.78-8.69-2.49-1.32.97-3.97,4.97-4.38,6.74l-4.36,18.98-4.05,9.47c-1.44,3.37,3.5,14.7,13.59,14.7h22.55ZM441.86,484.49c2.01-.09,6.8-4.83,5.56-6.39-6.43-8.1-18.08-6.67-22.47-4.7l-8.52,3.83-5.98,2.68c-1.32.59,2.97,5.78,4.42,5.72l26.99-1.14ZM84.54,609.77l-.22-82.2-.06-12.75c-.02-4.69,1.39-13.69,3.4-18.48,2.5-5.96-12.19-13.65-16.03-13.1l-1.15,41.71-4.45,11.24.32,79.54,7.06,16.07,11.3-4.06-.18-17.95ZM479.4,522.55c2.86,1.23,9.69-2.84,13.09-3.03l32.04-1.86-5.46-24.75c-.85-3.87-6.04-11.47-9.63-10.44l-15.67,4.45c-16.89,4.8-28.93,3.88-25.57,10.83,7.29,15.12.1,20.01,11.21,24.8ZM298.18,639.97l.73-83.95,1.79-7.52c-2.42-7.15-2.01-15.87-.12-22.42-.73-4.21-1.56-9.4-1.75-13.68l-1.13-26.78-8.8,5.28-12.76,13.3-.31,84.41-.13,32.76,8.73,10.52,13.74,8.09ZM701.57,640.49l17.48,4.52c3.71.96,8.92,2.83,13.4,4.43l14.14,5.05c1.39.5,4.97-1.97,4.74-3.37-.15-.93-1.18-3.64-1.13-4.59l.73-12.81c2.03-4.94,4.52-11.79,4.51-16.74l-.13-64.17-.3-53.63-7.32-10.53-22.8,5.78-15.91,4.65c-16.16,4.73-11.02-3.5-23.93,6.1-10.36,7.7,1.54,14.32,1.38,26.49l-.32,23.7-.67,52.12c-4.43,7.89-4.86,14.9-3.95,24.73l20.08,8.27ZM129.89,609.67c2.2-.68,6.15-4.82,6.13-6.72l-.52-48.78c-.21-20.01,9.17-40.3,2.32-42.54-1.76-.57-5.71-1.45-7.59-2.22l-22.49-9.24c-1.73-.71-6.09-5.7-6.63-4.07-.36,1.09-1.88,5.05-1.92,6.19l-.91,23.51c-.1,2.47-3.98,9.29-4.02,12.09-.42,32.24-2.97,52.83,6.72,80.7l14.38-4.43,14.54-4.5ZM407.15,508.42l-2.74-10.13c-.87-3.22-9.37-2.66-12.11-.56l.38,25.28,18.39-.31-3.91-14.28ZM461.55,507.63c.56-9.31-9.89-12.39-16.26-12.33l-23.44.23c-1.36.01-6.2,1.02-5.87,2.31l1.52,5.97,3.47,13.39c.54,2.07,4.07,6.34,6.63,6.27l33.06-.9.9-14.94ZM662.39,628.48l5.94,1.51c1.22.31,2.59-4.37,2.61-6.31l.74-82.74c.04-4.94.1-9.7-.13-14.19l-1.07-20.97c-28.76,12.36-39.69,2.63-58.71,15.54l-.14,88.05c0,6.1,5.57,11.28,11.3,11.42l11.46.27c9.41,7.57,4.43,1.41,28.02,7.41ZM211.49,550.19l-.22-19.58-14.75-5.61c-5.45-2.07-17.37-1.28-22.92-1.27-.06-.95-2.57-4.91-4.08-5.05l-19.35-1.75-.05,82.79c0,2.07,3.85,5.91,5.03,5.55s3.84-1.18,5.3-1.43l18.92-3.33c27.12-4.78,31.88-1.18,31.94-14.17l.16-36.15ZM568.94,609.64c9.57,1.35,15.67,2.48,25.29,4.45l7.57-12.32c-1.84-29.15,5.09-57.83-6.75-82.29.13-.53-7.4,3.65-9.38,3.68l-40.87.59c-2.1.03-6.29.87-6.41,2.19-1.09,12.13,2.33,5.84,2.26,16.84l-.32,52.55c-.01,2.26-2.49,8.38-.55,9.22,1.46.63,5.03,1.7,6.88,1.96l22.27,3.14ZM481.03,601.12l37.52,1.99c1.84.1,5.71.6,7.9.83,5.35-16.95,5.87-33.56,3.53-51.1l-2.97-22.29c-.2-1.49-3.19-5.4-4.12-6.54s-4.53,4.38-5.99,4.39l-32.95.34c-12.88.13-5.37,24.02-5.2,25.07,4.52,28.12-7.58,46.78,2.27,47.3ZM265.5,582.87l1.67-22.6c.57-7.71-.13-15.98-1.02-25.15l-18.21-1.71c-20.52-1.93-5.88-5.27-21.67-4.23-1.3.08-2.25,4.07-2.26,5.84l-.23,55.74c0,1.98,4.02,8.22,5.29,6.87l5.18-5.48c-.76-.19,2.8.69,3.92.96,8.59,7.07,1.76,2.93,22.64-.64,2.39-.41,4.43-6.1,4.68-9.6ZM426.04,597.17l33.99.76c2.25.05,6.71-4.78,6.71-7.1l.11-48.5c.01-4.51-4.84-11.76-7.28-11.84-5.96,2.05-9.67,3.05-14.05,3.12l-21.48.34.93,12.7c2.2,30-3.18,29.93,1.07,50.51ZM409.71,596.55c3.06-6.75,5.88-13.15,5.79-17.64l-.92-43.48c-6.27-2.1-14.88-2.41-21.81-.94l-.55,49.03c-.02,1.99,2.26,8.05,4.05,8.64l13.45,4.39ZM255.58,647.96c9.59-1.92,5.29-9.88,7.95-19.74,2.33-8.63,2.96-16.91-1.36-25.46l-37.48.23c-.47,23.03-1.6,18.3,6.07,35.76l5.72,13.03,19.09-3.83ZM409.77,610.38l-5.42-4.45c-1.22-1-7.28-2.8-8.16-1.5-3.53,5.18-4.91,18.4-2.89,24.65l8.95,1.13c.88.11,9.45-18.26,7.52-19.84ZM197.25,665.22l24.23-9.19c3-1.14.27-8.38-.39-11.24l-3.84-16.85-4.62-20.25-23.15.21c-4.11.04-11.89,3.21-16.38,4.03-5.45,1.01-17.55.62-20.8,5.36-4.08,5.96-2.36,17.78-.22,23.72,7.55,20.99-2.17,15.18,6.87,33.03l3.78,7.47c.85,1.67,7.29-.8,8.75-1.95,10.25-8.05,10.76-8.66,25.75-14.34ZM459.75,629.17c2.22-5.3,2.16-14.5,1.21-20.88l-32.2-1.32c-9.58-.39-12.67,13.34-11.45,20.74.36,2.18,6.95,2.38,9.94,2.5,11.84.48,28.99,7.34,32.49-1.04ZM515.42,648.87l6.42-17.86c1.42-3.96,1.63-9.86,2.1-17.31-11.85-.83-21.55-1.36-33-1.05l-18.58.5-1.82,20.72c-.37,4.19,24.27,8.71,32.98,11.37l11.9,3.63ZM583.14,671.61c2.51-4.17,7.33-14.73,7.88-19.17l2.45-19.69c.15-1.19,1.82-4.08,2.41-5.12s-4.11-1-5.5-1.36l-13.75-3.56-16.4-2.3-21.59-4.5c-3.04,7.62-5.23,15.27-6.63,23.39l-1.98,11.48c-.38,2.2,4.64,4.92,7.36,5.94l23,8.58c7.7,2.87,20.2,10.56,22.76,6.3ZM117.27,714.07c5.86-3.48,11.63-7.6,17.29-12.09,4.7-3.73,13.46-8.12,15.04-13.06,1.79-5.61-1.9-13.75-3.18-19.13l-4.93-20.73c-1.67-7.03-.99-16.86-3.44-24.63-1.95-6.18-14.44-2.67-18.87-.34-11.21,5.9-5.03-4.72-20.25,10.39l.4,28c.04,2.88,3.14,9.52,3.52,12.1.8,5.33,1.56,15.15,2.75,20.38l4.3,18.88c.41,1.81,2.31,5.6,3.37,4.48l4.01-4.25ZM658.29,686.22l4.12-19.69c2.48-7.6,3.97-16.28,3.66-24.25l-31.1-7.88-11.35-3.43-13.76-3.99-4.32,15.89-4.47,16.56-5.23,14.54c-.67,1.85-1.27,6.03-.92,7.68.41,1.92,7.43,4.08,17.23,10.29l26.79,17c2.64,1.67,9.16,4.22,10.78,1.93,3.13-4.42,7.14-17.86,8.56-24.65ZM100.55,722.61l-3.21-13.83c-5.89-25.42-.5-9.56-6.8-37.82-4.54-20.37,2.38-26.39-5.95-34.17l-13.69,8.35.3,52.77c.01,2.07,3.77,7.9,4.01,9.78.79,6.15.31,19.49,2.17,25.52l6.13,19.8c14.07-11.88,20.23-16.57,17.03-30.39ZM276.96,755.75l2.86-9.03c8.66-27.34,2.93-17.86,6.44-40.35l4.77-30.57c.91-5.86,5.09-17.39.74-22.17-5.49-6.04-11.03-9.81-17.77-14.32l-4.29,25.49c-.74,4.41-2.85,10.66-3.97,15.68l-4.92,22.05c-2.91,13.03-4.94,23.39-.58,36.32,3.72,11.04,7.32,21.26,11.83,32.38l4.9-15.49ZM451.28,645.45c-4.67-.36-10.7.56-13.24-.08l-18.42-4.66c-2.56-.65-9.38,1.68-9.76,4.01l-1.2,7.43,19.84,2.83c3.96.56,12.19,4.12,16.03,2.84,2.4-.8,6.04-8.39,6.75-12.38ZM733.8,749.87c2.07-5.28,2.62-12.29,3.72-17.99l3.66-18.96c.4-2.06,2.69-7.53,2.91-9.63l2.48-23.34c1.76-16.53-17.03-22.4-30.48-21.82l-11.8-5.83c-2.75-1.36-7.85-2.8-11.39-3.56l-14.58-3.13-3.25,18.84-3.37,19.49-5.02,17.69-6.23,21.36,18.78,16.69,16.51,14.24c4.34,3.74,8.62,8.29,12.95,12.24l14.19,12.93,4.86-13.81,6.05-15.4ZM505.78,670.89l5.36-10.31-13.49-5.44-10.51-1.96c-9.39-6.72-20.7-6.65-29.3,3.66,1.41,1.35,7.31,5,10.49,6.02l17.8,5.68c5.81,1.85,13.95,3.64,19.64,2.35ZM69.3,780.52c11.17-11.75,5.08-7.23,1.61-28.33l-3.23-19.65-3.46-21.04c-.98-2.38-3.21-7.75-3.2-10.16l.17-36.31c.01-2.26-3.08-8.32-4.65-10.82-5.58,3.42-8.99,9.3-8.92,15.74l.64,63.86,5.05,5.61c-.42,21.08-2.43,15.32,3.61,34.36,1.26,6.37,3.37,13.64,5.74,19.44,3.64-3.15,6.39-5.2,6.45-6.97l.18-5.73ZM255.03,678.64l5.83-18.84c-8.37-2.84-14.82.47-16.75,6.46-1.2,3.74,4.5,9.02,10.92,12.38ZM188.39,716.14l19.83-17.11,15.79-13.43c1.76-1.49,11.38-2.88,10.54-4.99l-6.29-15.73-24.91,10.52c-6.29,2.65-13.44,6.34-18.59,9.26-4.75,2.7-16.99,5.47-18.37,11.23-1.79,7.43,9.64,31.01,14.23,27.03l7.79-6.77ZM294.78,839.12l6.61-12.24c9.76-18.1-4.33,4.21,4.76-17.68,3.67-8.84,6.24-18.89,8.06-28.74l9.13-49.26c1.76-9.52,3.19-22.35,4.24-30.83l4.17-10.98c.79-2.08-3.1-6.77-4.95-8.17l-10.12-7.7-11.48-10.99-2.34,23.3c-.35,3.52-1.27,8-2.05,11.6l-1.93,8.93-5.06,23.46-3.61,17.05c-.8,3.76-5.63,22.21-5.54,21.98l-5.84,14.55c-6.83,17.03,3.26,19.8,9.97,38.83l5.96,16.9ZM433.96,665.76l-24.84-.33c8.15,5.56,16.4,9.39,24.84.33ZM574.82,688.98c1.74-3.28-7.87-7.28-10.65-8.45l-12.95-5.48-19.56-8.25c-2.57-1.08-9.94-3.4-11.15-.88l-6,12.48,35.5,20.23c8.68,4.95,13.8,11.12,16.33,6.35l8.48-16ZM32.46,856.14l6.01-11.47,13.16-24.75c3.02-5.67,3.7-9.13,1.59-15.04-4.67-13.06-6.24-26.12-7.99-39.99l-2.67-21.08c-.49-3.87-1.94-8.01-4.11-11.58l-.98-42.07c-.1-4.14-3.88-12.05-6.48-17.99-5.37,2.01-15.63,9.66-15.84,15.01l-.91,22.97-3.6,12.14-.46,72.74-.72,86.46c-.73,4.8-.86,8.15-.42,14.59,6.59-6.47,8.74-10.45,12.18-17.36l11.25-22.58ZM770.7,831.96c3.49-5.85,6.47-12.89,8.83-19.73l5.26-15.29c3.33-9.67,6.39-19.28,8.48-29.45l4.4-21.34c2.04-9.89,3.68-21.2,5.03-30.66.77-5.43,7.03-16.72,2.36-21.72-6.43-6.88-15.9-10.58-23.91-13.49l-14.86-5.41-3.5-1.96c-.85-.48-2.1,3.72-2.35,4.87l-3.39,15.49-4.47,20.43c-.96,4.38-.45,12.52-1.62,16.21l-4.87,15.36c-3.94,12.41-4.45,7.49-9.23,27.07l-3.36,13.76c-1.21,4.98,8.18,12.78,12.18,17.11l18.9,20.53c1.15,1.25,3.88,5.29,6.12,8.22ZM487.72,680.1l-26.06-4.9c-4.21,1.58-6.42,4.99-.15,4.44l10.7,2.21c5.17,1.07,10.36,1.49,15.51-1.74ZM467.63,854.98l11.63-28.69c1.6-3.95.76-14.15-.34-17.96l-6.27-21.75c-1.27-4.4-3.19-8.95-5.33-13.69l-1.75-28c-.11-1.73-2.81-7.44-3.2-9.28l-4.47-20.93c-3.15-14.75,2.02-22.4-4.88-28.19l-18.75,14.88-.11,45.9-.2,77.53-3.7,11.89.18,62.06c0,1.5,4.71,5.41,5.42,4.4l3.22-4.6,8.56-11.48,12.98-17.89c2.8-3.85,4.84-8.9,6.99-14.21ZM551.02,714.07c-12.7-9.71-35.73-26.45-51.2-23.58,1.65,5.1,26.05,19.5,30.23,20.44,5.49,4.15,11.02,11.83,20.98,3.14ZM194.93,748.59c2.77-.21,5.54-.42,4.52-.35l15.93-22.03c2.46-3.4,7.16-9.52,10.39-11.71l26.12-17.72c-6.72-7.26-12.19-4.02-18.25-.71l-16.63,9.06c-6.1,3.32-11.53,8.97-16.69,14.09l-10.35,10.27c-1.84,1.82-3.97,7.91-2.45,9.81l7.41,9.3ZM486.64,793.09l4.9-16.41c3.5-11.71,5.06-21.96-1.68-33.07,1.93-26.53-5.88-20.27-5.03-32.28.77-10.71-4.13-20.12-18.56-18.91.64,26.03,1.31,10.24,5.01,33.87,1.12,7.16,2.38,13.26,3.83,19.56l3.06,13.28c5.66,24.56.19,18.48,8.46,33.96ZM630.36,752.47l9.49-15.21c1.33-2.14,3.77-7.42,2.78-9.4s-4.2-5.24-6.46-6.58l-41.3-24.49c-1.05-1.48-4.51-5.55-5.55-4.33l-3.7,4.34-10.98,12.67c-4.21,4.86,2.15,5.07,15.97,18.91l32.23,32.28c1.52-.7,5.37-4.75,7.52-8.19ZM353.74,987.2c1.61,4.5,2.91,10,4.61,13.79,1.82,4.05,4.23,8.84,5.29,11.77l5.7,15.63c1.25-3.32,3.11-7.79,3.12-9.29l.76-64.34,1.08-19.28.15-63.52,3.03-13.07.15-139.44-8.65-6.83c-3.6-3.47-9.61-7.07-13.95-9.15-2.97-1.43-8.61-8.2-11.66-7.16-9.04,3.06-5.6,16.04-8.19,25.82-1.29,4.87-2.41,9.41-3.11,14.28l-3.23,22.25c-2.5,17.24-6.59,35.17-11.54,52.31l-4.91,17-4.39,15.18c-5.88,10.15-5.89,19.81-.73,30.44l8.53,17.56c2.96,6.1,5.87,12.67,8.03,19l9.3,27.31c4.09,12.01,14.06,31.4,20.62,49.74ZM854.39,970.75c2.55,5.84,4.77,12.18,6.69,17.36l8.18,22.16c3.2-2.93,6.25-7.27,6.28-10.32l.53-48.33.26-17.39.24-13.82,1.05-63.82,2.77-20.43.07-104.85-13.92-8.63c-9.69-6.01-38.21-24.67-49.24-23.07l-1.21,17.04c-.33,4.65-1.93,10.24-3.12,15.12l-3.74,15.28-4.3,16.54-2.99,17.17-5.05,15.35-5,15.21c-1.47,4.46-2.58,8.44-4.22,14.66-1.67,2.32-8.87,15.37-5.84,19.74l27.38,39.5c5.8,8.37,11.12,16.19,15.7,24.79l8.91,16.78,6.19,11.61c1.92,3.59,3.78,8.12,5.54,12.15l8.84,20.21ZM139.81,783.85l11.75-20.24,15.89-24.44c4.3-6.62-5.4-9.15-10.22-30.41l-1.38-6.1c-.29-1.27-5.58.1-6.81.98l-12.03,8.57c-14.16,10.08-24.52,18.48-18.82,36.64,1.28,4.09,3.29,12.27,5.1,16.05l11.33,23.61,5.2-4.65ZM232.53,733.4l.83-5.71c.16-1.12-3.36-3.26-4.12-2.42l-3.6,3.98c-1.13,1.25-.08,5.51.47,6.99.37.99,1.89-.47,6.42-2.84ZM603.83,780.87l12.28-11.3-31.42-30.29-12.09-10.51c-5.31-4.62-11.12-5.86-17.53-.27l8.38,9.52,17.86,20.27c1.71,1.94,4.41,6.84,5.93,9.1l10.14,15.05,6.46-1.56ZM586.08,787.47l-5.95-9.51c-3.9-6.22-8.44-14.95-13.06-19.66l-16.82-17.17c-1.83-1.86-6.2-5.21-8.09-6.86-1.69-2.65-2.54-5.89-4.3-5.75l-8.54.71,5.07,11.98c11.85,27.97,6.54,32.12,29.12,45.89,4.29,2.62,14.81.99,22.57.37ZM541.08,796.54c.94-25.17-12.7-20.27-22.16-40.33l-8.2-17.38c-1.23-1.05-3.12-2.97-3.61-2.17-5.05,8.28-2.9,18.04.67,27.95,4.43,12.29,7.45,25.4,12.98,36.06l14.17,27.27c.54.89,3.27,4.08,3.52,3.13s1.52-4.65,1.56-5.79l1.08-28.73ZM689.08,850.19l13.1-22.6c3.67-6.34,17.18-29.57,14.11-37.03-2.69-6.54-12.08-12.85-17-17.3-18.9-17.12-3.57-5.96-25.43-23.3l-17.79-14.11c-14.48,10.6-1.98,10.29-14.85,21.14-4.26,3.59-8.86,12.88-5.96,16.92l8.31,11.56,14.3,18.81c3.65,4.8,7.59,9.18,10.07,14.6,5.59,12.2,12.11,21.88,21.13,31.32ZM114.66,852.92l5.67-17.55c1.93-18.35,14.91-28.18,8.42-39.2l-7.86-13.34c-1.81-3.07-3.62-6.7-5.07-10.03l-5.58-12.82-5.21-11.18-9.45,6.01-7.16,15.89c-1.97,4.38,1.76,14.23,2.33,18.7.68,3.41,1.41,6.74,2.31,9.65l4.83,15.79c1.23,4.03,3.37,8.8,5.34,12.76l5.34,14.75,6.08,10.56ZM170.49,820.23c3.28-5.48,6.08-9.68,6.69-12.3l3.97-17.16c3.92-16.94,16.29-28.51,7.84-34.39l-13.22-9.19c-4.49,6.11-8.3,11.3-12.09,17.2l-7.11,11.06c-4.74,7.37-18.72,26.47-6.02,33.59l19.93,11.18ZM244.69,844.76c9.76-15.54,12.82-26.66,17.55-44.27,2.08-5.59,2.63-12.76,1-18.54l-5.33-18.85c-1.21-4.27-4.46-8.08-9.46-12.64l-10.96,24.54c-8.4,18.79-13.22,14.1-13.11,25.45l.58,57.47c.03,2.8,5.99,9.07,6.06,8.59l13.66-21.76ZM219.95,775.7c.84-5.29,5.97-25.13-.61-19.7l-4.02,3.31-12.33,2.72c-1,3.3-2.48,8.66-3.3,10.94l-13.52,37.85-1.57,4.09c-2.73,7.09,29.89-4.95,35.36-39.22ZM659.2,878.83l13.13-9.85c2.83-2.12,4.84-11.63,2.94-14.93l-17.85-30.9c-2.29-3.96-5.88-8.4-8.32-11.87l-13.94-19.81-6.23-9.41c-8.39-12.69-5.34,8.87-24.53,8.62l5.8,21.5,5.11,18.93c10.69,39.62.54,53.3,10.74,63.56l15.44-4.94c4.95-1.58,12.53-7.02,17.7-10.9ZM102.93,852.16l-7.83-15.23c-1.55-3.01-3.41-7.75-4.53-10.88l-8.81-24.62-3.83-11.98c-8.57,10.93-18.37,30.47-7.49,44.81.51,4.03.41,13.53,1.95,17.03l10.89,24.83,2.69,10.66c1.82,7.21,6.78,16.11,11.18,25.83,13.77-12.81,14.13-44.23,5.79-60.44ZM535.31,895.94l4.22-14.52c7.08-24.38-5.42-29.69-6.52-31.73l-13.77-25.54c-1.77-3.29-3.86-9.24-5.51-12.73l-5.65-11.97c-1.17-2.49-3.8-10.61-5.92-8.86-1.67,1.38-2.51,6.62-3.31,8.63-4.01,10.05-6.92,24.01-3.06,33.77l5.1,12.88,11.25,27.37,7.06,16.1c.54,1.23,11.64,21.97,13.96,14l2.15-7.39ZM610.3,867.26c.11-5.37-6.07-33.09-7.84-39.5l-3.91-14.16c-1.8-6.5-5.78-15.69-13.2-15.12-23.37,1.78-31.75-9.52-30.45-2.64l.88,4.67-.41,48.51c-.08,9.29,3.16,16.53,10.26,22.09l17.49,13.7c1.91,1.49,7.52,4.68,9.98,5.18l16.66,3.39.55-26.12ZM723.21,928.83c8.87-13.82,14.78-22.17,20.91-34.12l7.63-14.88,12.05-23.92c1.67-3.31,4.18-8.86,2.44-10.95-2.86-3.42-6.9-8.9-8.85-11.92l-13.29-14.97-16.14-18.18-4.58,9.22-15.21,30.48c-1.1,2.21-4.15,6.67-5.92,9.1l-7.07,9.69c.32,4.81,2.37,14.71,5,20.03l7.03,14.23c2.08,4.21,4.33,10.85,5.95,15.79l4.56,13.87,5.49,6.51ZM161.81,901.6c3.13-2.02,3.58-10.95,2.92-14.06-5.01-23.7,6.3-20.91,3.62-53.91l-10.31-7.24c-8.38-5.89-17.29-17.02-18.23-13.79l-1.78,6.1c-1.01,3.47-2.4,7.23-3.77,10.44l-7.35,17.16c-3.09,7.22-8.82,19.6-2.33,26.21l15.56,15.83,8.96,8.93c2.05,2.05,10.24,5.94,12.71,4.34ZM243.13,954.36l10.36-11.48,16.77-34.07c2.08-4.22,3.98-8.64,5.89-13.15l6.63-15.63c10.33-24.34,8.66-19.88-1.52-47.36l-5.49-14.84c-.29-.78-2.41-3.77-2.94-4.6-.49-.77-2.39,2.17-2.87,3.16l-11.82,24.44c-5.91,12.22-11.88,23.22-19.14,34.77-1.43,2.27-5.07,8.7-5.04,11.57l.33,30.79,4.89,7.7c-.16,9.99,1.49,21.18,3.94,28.7ZM199.47,899.04l12.26-7.83c3.3-2.11,8.61-9.72,8.25-13.55l-1.97-20.95-1.83-20.82c-.48-5.47-.2-15.81-3.97-20-2.33-2.58-10.24,4.89-13.13,6.78-5.46,3.57-18.59,7.9-19.75,15.9-1.57,10.78-1.2,22.53-1.01,32.55-.59,1.43-4.39,7.19-4.4,9.03l-.11,22.9c9.48,2.34,17.83,1,25.66-4ZM493.08,976.9c2.49,1.01,11.32,3.88,12.67,1.65l7.06-11.6c2.58-4.24,4.3-9.76,6.03-15.36,2.4-7.77,8.46-17.29,7.1-26.19-.98-6.43-8.05-13.43-10.76-18.71-4.13-8.05-7.98-15.82-11.53-23.78l-7.9-17.72-5.28-14.42-3.59-11.18c-2.48,4.64-4.3,8.16-6.31,12.65l-7.86,17.54c-1.75,3.9-3.66,7.53-5.74,11.12-9.42,14.27-18.68,26.34-30.57,39-7.27,7.74-7.57,23.64-4.57,32.85,2.4.78,8.06,2.38,9.9,3.13l24.42,10.03,12.82,5.26,14.1,5.72ZM819.17,1107.25c8.28,3.77,16.15,7.28,23.94,10.2l27.08,10.16c5.3-10.08,2.15-66.56,1.17-81.42-.21-3.19-4.58-10.45-5.53-13.29l-5.1-15.27-7.19-17.22-5.33-15.55c-3.78-11.04-8.45-21.69-13.33-32.26l-6.29-12.46-4.71-10.05c-.89-1.9-11.45-21.28-10.71-20.18l-16.46-24.41c-1.98-2.94-4.37-6.4-6.33-8.94l-14.7-19.02-7.64,14.6c-1.4,2.67-3,8.55-3.6,11.25l-10.69,17.08-7.37,10.87c-1.78,2.63-3.25,9.08-4.02,12.74l-3.64.4-13.73,21.99,5.82,23.21c1.37,5.45,3.15,10.37,5.66,16.29l.72,41.07,4.16,12.7.63,34.98c5.18,2.97,11.82,6.2,17.77,8.67l18.18,7.54c22.16,9.19.99-1.97,27.66,10.16l13.56,6.17ZM650.49,990.64l26.69-14.17c9.25-4.91,35.45-29.64,34.34-37.64-.59-4.26-2.25-12.46-3.76-15.67l-9.55-20.33-8.33-19.96c-.87-2.09-3.38-5.68-5.96-9.35l-7.6,7.89c-11.8,12.26-16.34,2.23-14.06,9.78l1.44,4.78c-5.76,1.23-11.77,2.95-17.53,5.67-17.88,8.43-21.7,2.71-21.67,10.97l.27,79c9.31,2.06,19.17,2.49,25.72-.99ZM614.82,948.17c.01-2.13-5-10.01-4.85-9.93,4.92-7.94,7.72-17.6,1.88-26.64-2.26-3.5-10.82-7.6-14.97-8.16l-15.79-2.11c0,.36.89-4.66-.11-5.25-2.68-1.55-9.39-4.27-11.75-6.12l-12.47-9.76c-2.22-1.4-5.34-3.38-4.5-2.85l-4.82,17.91-3.53,13.15c-2.11,7.83-8.77,14.48,5.22,30.57l17.57,20.19c3.96,4.56,9.59,10.71,14.28,13.86l20.22,13.59c2.71,1.82,13.39,1.33,13.41-2.37l.22-36.09ZM147.2,983.33c2.78,2.86,11.64,5.49,15.87,5.67l.62-66.09c.04-3.77-4-9.63-6.8-10.88l-11-4.88c-18.52-8.21-25.19-26.51-26.61-21.13l-1.68,6.38-3.58,13.63-4.45,16.89c-3.28,12.46,1.49,22.93,10.91,30.99l5.2,7.45,11.32,11.47,10.2,10.51ZM227.43,973.16c8.96-8.65,6.42-7.23,1.34-37.58l-2.81-16.81-3.47-22.02-24,16.47-16.77,1.89-8.39,7.83.17,69.5c30.1,3.02,35.02-1,53.94-19.26ZM609.45,1022.77l.72-21.04-23.86-11.35-11.01-5.23c-3.35-1.59-7.29-7.88-9.3-12.09l-8.21-4.55c-14.98-25.1-5.08-.58-19.78-25.72-1.24-2.12-4.66,4.66-5.76,7.17l-9.29,21.19-6.43,14.66,21.04,9.03,20.94,9.01,16.2,6.99c6.2,2.68,12.51,4.76,19.08,6.88l15.66,5.05ZM164.97,1007.09l-15.89-10.85-13.65-9.33c-3.52-2.41-9.87-6.76-12.14-9.55l-7.43-9.1c-7.75-9.49-7.01-15.47-11.02-10.61-4.48,5.43-10.53,20.57-1.56,26.51,6.78,4.48,17.13,7.93,24.15,11.83,4.48,2.49,8.48,4.97,13.25,7.05l15.27,6.64,9.01-2.59ZM678.67,1052.14l26.3,9.89,22.6,9.09c10.46-19.43.48-17.54.17-33.68l-.45-22.84c-.06-3.24-2.73-9.54-3.66-13.11-1.9-7.31-.59-19.68-2.86-26.59l-5.76-17.55-24.17,23.12c-5.77,5.52-16.71,11.62-24.27,14.77l-16.53,6.88c-3.04,1.27-10.79,3.02-13.95,2.88l-10.41-.47-2.14,24.91,30.65,13.49c2.37,1.04,9.23,1.39,11.41,2.13,3.29,1.71,9.4,5.71,13.06,7.09Z"></path>
      <path d="M307.31,1081.31c2.07.95,5.52,1.47,5.61,2.9l.51,7.99-7.13-2.69c-16.84-6.35-29.2-12.57-44.36-21.96-1.39-.86,1.55-6.38,3.11-5.84,1.74.61,5.94,2.05,7.83,3l20.13,10.06,14.3,6.55Z"></path>
      <path d="M38.05,962.3c-3.45-1.35-11.43-4.8-14.55-6.2-2.02-.9,1.62-8.55,2.46-8.27,14.98,7.68,4.75.95,18.08,9.39,1.18.75-4.51,5.66-5.99,5.07Z"></path>
      <path d="M66.18,965.79c-.85,5.95-1.49,8.15-2.49,6.74-4.57-1.87-5.57-2.31-6.36-2.54-1.07-.3-1.09-3.79-.52-4.74,1.04-1.75,5.85-.39,9.37.53Z"></path>
    </g>
  </g>
</svg>