<?xml version="1.0" encoding="UTF-8"?>
<svg id="Layer_2" data-name="Layer 2" xmlns="http://www.w3.org/2000/svg" viewBox="0 0 901.58 922.65">
  <g id="Layer_1-2" data-name="Layer 1">
    <path d="M508.38,920.15c-5.16.09-9.31.09-13.35,2.18l-63.86.32-9.13-1.13c-1.72-.21-15.29.64-26.43-.87-3.71-.5-8.53.14-12.36-.62-6.48-1.29-19.93-3.29-26.34-3.16-2.29-1.3-5.13-1.66-8.12-2.13l-10.65-1.65-9.08-1.7-8.27-1.71c-9.95-2.05-6.18-2.1-13.72-3.8l-7.87-1.77-7.03-1.58-6.12-1.41-7.89-1.92c-8.62-2.1-11.71-5.34-16.17-5.09l-6.66-2.6-7.89-3.07-10.12-3.99-6.93-2.97-9.11-3.94c-2.71-1.17-5.32-2.49-7.9-3.94l-12.08-6.8-5.66-2.7c-4.96-2.37-9.39-5.14-13.97-8.06l-18.37-11.72c-13.13-8.38-23.75-19.32-34.72-29.49l-8.23-7.63c-2.66-2.47-4.68-5.13-7.02-7.95l-13.61-16.41c-6.24-7.52-12.08-15.39-17.16-23.61l-12.32-19.94c-11.09-17.95-17.98-31.92-26.18-51.57l-6.15-14.72-4.85-14.31c-.89-2.64-2.31-5.35-3.12-7.82-5.85-17.87-12.13-44.82-16.04-63.34l-2.79-13.22-2.02-10.83c-.48-2.55-1-5.41-1.29-7.72l-1.12-8.91-1.34-10.15c-.43-3.25-1.19-7.1-1.4-9.95l-.93-13.03-.86-12.99-1.02-18.02c-.26-4.62-.3-9.43-.33-13.74-.02-3.47,1.92-7.1-.83-10.55l3.93-69.74c1.83-3.19,2.33-6.33,2.42-10.06.12-4.98,1.39-9.29,2.04-14.02l1.91-13.87,2.24-10.7,2.3-11.68,2.56-11.56,2.03-9.09c2.15-9.61,8.25-30.66,11.57-39.8l15.06-41.34,6.01-14.08c3.7-8.66,7.74-16.48,12.22-24.95,15.63-29.56,34.6-56.77,56.77-81.59,1.98-2.21,3.81-4.35,5.85-6.25l18.15-16.9c2.07-1.92,3.74-3.37,5.93-5.18l10.86-8.97,7.23-4.72c8.35-5.46,16.28-10.71,25.27-14.98l10.27-4.87c4.49-2.13,8.89-3.97,13.39-5.68l7.61-2.9c11.41-4.34,22.16-9,34.07-12l21.41-5.39c3.15-.79,6.83-2.21,10-2.8l14.25-2.65,21.55-3.54,12.01-1.25,9.22-1.61c4.04-.71,8.53-1.08,12.69-1.51l16.02-1.63,19.61-.95c8.61-.42,16.86-1.25,25.48-1.81,5.51-.36,10.58-.24,16.08-.27l22.75-.12,7.25.32h9.29s10.55-.13,10.55-.13l21.07.48c3.41.08,6.53.9,10.01,1.03l21.56.82,9.41,1.2,11.76,1.61c14.55,1.99,12.64.49,27.37,3.06l22.42,3.92,8.39,1.09c13.63,1.76,46.03,11.12,59.62,16l15.96,5.73c8.91,3.2,20.11,9.07,28.27,13.67,18.92,10.67,36.44,22.59,52.1,37.71,4.12,3.98,7.34,8.02,11.01,12.43,13.76,16.58,23.09,27.67,34.52,46.34,4.86,7.94,10.04,15.31,14.23,23.58,5.71,11.27,11.53,22.14,16.32,33.74l7.26,17.59c2.51,6.08,4.84,12.29,6.88,18.65l12.08,37.8c1.48,4.64,2.84,9.39,3.83,13.97l2.25,10.43,2.98,13.86,2.88,13.42,2.78,20.7,3.43,24.51c.75,5.38,2.03,10.26,2.51,15.74.63,7.13,1.45,14.25,1.41,21.31-.02,2.87-.32,5.97-.15,9.07l1.24,22.98c.35,6.5.39,12.57.1,18.98l-.48,10.77-.17,12.23-.62,11.09-.48,9.98-.61,10-.88,8.93-.94,7.25-2.46,17.53c-1.69,12.04-3.07,23.89-5.69,35.65l-2.02,9.08-6.26,27.5c-1.22,5.38-2.28,10.98-4.06,16.06l-4.68,13.35-2.09,7.31-5.62,16.06-7.63,20.07-4.36,9.16c-3.22,6.76-5.95,13.09-9.65,19.63-5.32,9.42-3.54,8.96-11,20.27-5.94,9.01-6.89,12.65-12.36,20.43l-7.05,10.03-7.59,10.52c-7.5,10.4-15.79,20.02-25.29,28.39l-5.39,4.75c-4.64,4.09-8.69,8.82-13.5,12.48l-4.67,3.55c-8.9,6.77-17.79,13.09-26.86,19.37l-8.83,6.11-24.18,13.59c-2.19,1.23-4.27,2.44-6.5,3.44l-9.72,4.31-8.73,3.66c-2.82,1.18-5.74,2.57-8.77,3.79l-9.61,3.86-22.86,7.62c-4.2,1.4-9.06,1.85-13.63,3.21l-8.01,2.38c-2.68.8-5.31,1.41-8.13,1.98l-8.92,1.8-7.96,1.58-9.82,2.04c-4.18.87-7.82,1.99-12.33,2.48l-12.17,1.33c-1.23.13-3.6,1.11-4.71,1.3-4.63.78-10.87-.28-15.54.89-2.55.64-5.05,1.46-7.47,1.5l-12.71.21ZM415.33,24.97l27.42-.6c8.72-.19,17.73.9,26.66-.33,3.61-3.44,3.6-9.8,2.93-14.95-4.27-2.6-21.11-1.79-26.24-1.25-15.85,1.65-5.07-.44-18.38.49-6.85.48-13.94-.06-20.77.78l-14.07,1.74-14.08,1.59c-1.53.27,8.44,12.45,11.76,13.31,5.55,1.43,11.53.29,17.22.56,2.02.1,5.3-1.29,7.55-1.34ZM567.6,14.21l-22.34-2.29-10.38-1.24c-5.34-.64-10.34-1.06-15.93-.97-3.57.05-7.18-.92-10.44-1.23-9.26-.9-17.78-.39-27.47-.66-.26,3.85.06,7.34.84,10.9l1.25,5.74c15.02-1.04,16.64,1.06,29.81,1.2,3.86.04,7.28.36,11.15.85,5.51.69,12.2-.28,17.43.67,14.46,2.62,14.06-2.93,26.07-12.96ZM350.45,29.7l12.29-.81c3.83-.25,7.26-1.04,11.25-1.08,3.12-.03,5.27-.41,8.07-2.31l-8.53-8.37c-4.12-4.04-8.55-3.44-13.74-2.8-3.77.47-7.5.86-11,1.73-6.87-.54-12.39,2.69-16.74,7.75-2.28,2.65-4.96,4.64-5.25,8.67l8.11-1.14,15.53-1.64ZM300.47,21.02c5.5-1.25,10.2-2.54,16.25-4.36-3.9-.56-7.05-.24-10.27.53l-14.43,3.47c-6.23,1.5-12.39,2.06-18.51,4.14,15.97,2.75,12.7-.52,26.95-3.78ZM621.7,34.02l-5.11-6.68c-3.5-4.58-6.8-6.26-12.46-7.31-14.83-2.74-32.59-9.81-43.9,8.63l10.7,1.14,15.03,1.25,15.07,1.23c1.77.14,18.78,4.32,20.67,1.73ZM664.53,29.56l-20.89-6.69-18.28-3.58c-3.22-.63-6.28-2.36-8.73-.56l18.92,5.24c13.4,3.71,14.95,9.43,28.99,5.6ZM300.54,30.72c5.7,2.19,11.92,4.11,17.88,2.53l9.99-13.03c-1.33-.38-3.96-.66-5.07-.33-15.99,4.82-16.66,2.44-29.66,8.19l6.85,2.63ZM632.83,35.67l9.75-3.46c-3.7-2.53-16.09-7-21.71-7.29l5.61,8.16c1.73,2.52,3.72,3.53,6.35,2.59ZM446.94,77.79l4.68-1.63,15.84-.49,1.6-10.78.81-25.75c.12-3.71,1.13-7.19.75-10.46-7.62.01-13.73.83-19.99-.05-4.94-.7-8.2-.73-13.12.08-6.48,1.07-15.03-1.09-21.49.68l-5.2,1.42-17.36.34,11.5,18.54c1.69,2.73,3.44,5.43,4.56,8.54l3.2,8.91,4.37,12.02c1.33.03,32.91-2.44,29.84-1.37ZM204.92,54.58l25.65-6.22c6.03-1.46,13.82-1.75,18.99-5.04l9.94-6.33,12.8-7.83c-2.13.06-4.09.38-6.17.74-20.12-.66-44.37,11.75-61.2,24.68ZM548.3,32.98c-5.62-1.02-12.07-.26-17.32-1.38l-5.67-1.21-17.4.11c-2.16.01-5.19-1.2-7.03-1.36-6.32-.55-11.99-.4-18.81-.15l.67,48.08,11.37,1.18,12.54.82c4.1.27,8.97,1.02,13.28.78l7.47-14.95c3.52-7.05,14.29-24.75,20.91-31.91ZM477.42,73.5v-18.43s.69-11.46.69-11.46l-1.47-14.27c-3.03,5.59-2.55,11.85-2.61,18.4l-.12,14.19c-.03,3.95-1.59,10.45-.75,14.24.19.84,2.69,1.85,3.04,1.15s1.21-2.99,1.21-3.81ZM286.39,37.07c3.9-.73,6.94-.04,10.04-2.44-12.84-4.96-14.42-3.37-25.2,2.08-1.85.94-2.76,1.52-4.95,3.42,3.61.14,5.67-.35,8.85-.94l11.27-2.12ZM373.38,87.17c.44.58,2.29,1.73,2.87,1.3l2.14-1.64,32.68-6.52c.74-2.24-.49-5.3-1.7-7.94-6.42-14.1-4.25-13.17-11.94-25.21l-6.64-10.39c-1.26-1.97-3.04-4.72-4.81-5.07-1.98-.39-5.11.52-7.07.57-9.64.27-18.39,1.3-27.57,2.47-1.66.21-4.3-.3-6.65.34-4.12,1.12-9.35.29-13.47,1.08l-7.42,1.42c-7.16,1.37,9.73,9.25,17.36,15.66,12.32,10.36,22.61,21.25,32.21,33.92ZM589.04,60.11l8.12-6.28c2.65-2.05,5.27-4.11,8.08-5.78l13.85-8.25c-3.77-.87-7.85-1.35-12.13-1.81l-12.07-1.31-17.32-1.92c-4.4-.49-9.69-.23-13.73-1.11-4.92-1.08-8.21-2.2-11.77,2.44-2.49,3.24-5.77,7.08-8.03,10.58l-5.98,9.25c-2.75,4.25-10.7,19.28-12.33,24.74l22.5,5.96c3.94,1.04,8.32,2.98,12.16,3.27,3.93-6.64,8.88-10.25,13.35-15.34s9.44-9.9,15.31-14.45ZM727.91,60.09c-1.6-3.49-3.48-4.08-5.78-5.71-19.33-13.6-36.23-19.35-60.64-20.7,1.39,2.13,3.09,3.25,4.92,4.64,14.42,10.98,24.07,9.21,41.01,14.89l20.49,6.88ZM662.6,41.93c-7.59-6.64-10.12-6.37-21.46-4.27l10.36,2.36c3.67.84,7.55,1.42,11.1,1.91ZM251.64,52.17c16.64,2.5,19.17,1.08,33.28,6.05l10.98,3.87c1.94.68,6.93,3.08,8.04,1.15l7.58-15.94c.97-2.04,2.37-4.87.35-6.69-2.48-2.23-11.03.15-18.86.86-11.79,1.06-7.82,1.24-20.13,3.27l-8.95,1.48-9.13,1.65c-1.27.23-2.57.56-3.34.82s-.62,3.38.18,3.5ZM678.89,57.58c-1.86-6-6.24-9.38-12.39-10.5l-8.71-1.58-16.94-2.54-7.93-1.23,4.23,8.76c1.68,3.48,3.1,8.28,6.67,10.58,2.22,1.33,7.51-.81,10.08-1.2l10.31-1.56c4.63-.7,9.65-.49,14.68-.74ZM583.73,95.38l6.13-4.77c14.51-11.28,28.7-20.17,46.61-25.54.68-.2,2.32-1.37,2.12-2-.15-.47-.59-1.57-.88-2.14l-9.67-18.73-12.34,5.68c-17.08,7.86-38.14,28.9-50.92,43.86,1.82,2.55,4.96,6.74,8.09,6.57s8.76-1.32,10.86-2.95ZM368.61,89.92l-11.82-14.24-6.52-7.39c-1.97-2.24-4.45-3.35-6.81-5.43l-10.46-9.19-11.83-7.39c-.86-.53-3.61-.95-3.99-.1l-1.39,3.14-7.91,18.33,10.52,5.86c3.6,2,7.6,4.37,10.9,6.78l7.12,5.22c3.65,2.67,7.06,6.12,10.57,9.28,7.68,6.9,15.52,1.46,21.61-4.87ZM739.65,71.72c-.23-4.44-22.26-10.49-26.25-11.77l-12-3.86-18.91-5.16-.62,4.23c-.35,2.38,10.36,3.68,11.56,3.78,12.06,1.05,19.03,1.9,30.59,6.53l15.62,6.25ZM196.2,53.63c-6.99,3.57-12.97,6.88-19.08,10.95,7.12-1.24,19.12-4.94,19.08-10.95ZM161.33,139.69l14.73-14c5.41-5.14,13.36-11.81,19.68-16.12l7.19-4.9c16.2-11.02,33.4-18.41,53.1-22.93l-10.4-10.77c-3.85-3.99-5.03-10.05-5.13-15.46-10.93,3.52-15.35.9-26.47,4.37-7.1,2.21-16.79,1.89-22.67,7.3-13.11,12.06-24.67,29.79-33.51,45.34l-9.46,16.66c-1.29,2.28-4.67,7.24-2.47,9.47,2.55,2.41,6.04,4.27,9.63,5.88,2.17.97,4.26-3.4,5.78-4.85ZM300.23,70.15c-.59-.73-2.37-2.06-3.27-2.39l-11.5-4.2c-4.67-1.71-35.11-8.74-39.91-5.42,1,11.41,16.72,23.86,26.04,22.04,4.54-.89,8.03-.49,12.51-.04l13.05,1.3c1.68.49,4.34-9.73,3.09-11.29ZM653.24,83.68c4.41-1.86,8.42-3.75,11.99-5.98,2.99-1.86,16.53-14.63,11.18-16.31l-12.38,1.65-18.55,3.2c.35,1.79,3.22,19.35,7.76,17.43ZM750.83,150.28c14.59-9.49,18.08-10.29,28.55-23.04l-9.4-16.64c-4.14-7.32-11.17-19.21-17.01-25.09-4.24-4.27-10.44-6.48-15.63-9.38-14.81-8.28-37.21-14.34-54.16-13.54l-4.01,8.24c-2.55,5.24-11.47,10.63-17.47,14.48l11.13,3.88c10.31,3.59,25.72,11.87,33.95,18.51l10.67,8.6c8.59,6.92,16.48,14.82,23.66,22.97l9.71,11.02ZM616.53,85.48c9.27-2.71,18.49-1.97,28.77-2.03l-2.8-10.55c-.55-2.09-2.66-5.08-5.31-3.85l-19.92,9.24c-6.57,3.05-12.33,7.59-18.26,12.11,2.77-.07,4.92-1.24,7.38-1.96l10.14-2.97ZM135,125.97l5.31,7.7,11.89-21.97c3.69-6.83,8.17-13.54,12.41-20.21,4.52-7.13,11.57-12.43,13.12-18.44-12.24,4.83-27.49,14.91-36.78,23.71l-5.71,5.41c-6,5.68-5.36,16.35-.22,23.8ZM327.08,85.76l-4.33-3.77-15.39-9.05c-3.01,2.14-4.43,5.95-4.09,9.3,10.58,2.36,19.54,5.8,30.35,10.21.21-3.47-3.77-4.28-6.55-6.7ZM778,98.04c-3.04-7.24-9.2-9.96-13.46-14.74l-12.37-7.15c1.27,2.59,2.51,4.23,4.1,6.14l21.73,15.75ZM438.06,107.26l7.04.03,20.48.21c.1-15.02,3.89-13.65,1.84-26.38-6.24-.95-12.29.7-18.54,1.01l-18.92.95-10.71,1.81,7.42,21.27c4.15.39,7.68,1.08,11.38,1.09ZM479.14,106.94c-.14-6.1,0-9-.62-12.96l-1.31-8.37c-.18-1.14-.27-2.94-.96-3.32s-2.64-.27-2.82.49c-.13.57-.24,1.8-.34,2.81l-.95,9.38c-.39,3.91-.53,7.37-.44,12.11l7.43-.14ZM511.97,99.27l6.18-13.66c-7.66-2.38-14.47-1.99-22.29-2.3-3.8-.15-9.06-3.9-12.6-.12-2.13,2.28.89,7.2.95,9.6l.36,13.93,24.26.05c1.77-1.73,2.14-5.3,3.13-7.5ZM295.2,90.3c.84-.23.98-4.65.07-4.73l-3.36-.28c-4.44-.37-8.52-.43-12.93.64,4.31,2.91,11.75,5.6,16.21,4.36ZM241.18,145.89l9.6-1.82,10.07-1.69c3.81-.64,8.2-.58,11.86-1.32l10.1-2.05c1.84-.37,2.05-5.33,2.47-7.24l2.18-9.96,1.93-9.08c.97-4.58,2.68-9.12,2.55-14.03-.07-2.73-5-3.6-6.86-4.39l-19.66-8.36c-2.31-.98-6.26.42-8.81.94-13.2,2.67-26.52,7.36-37.54,13.75l-9.53,5.53c-4.74,2.75-8.87,5.51-13.1,8.86l-7.88,6.24c-9.97,7.89-18.16,16.31-27.02,26.12,4.97,4.09,9.9,6.17,15.12,8.69,4.36,2.1,7.52,2.64,12.31.25,3.37-1.68,8.86-1.21,12.75-2.16,6.78-1.66,13.23-3.8,19.95-4.95l19.52-3.33ZM411.17,105.5l9.44.64-2.08-5.88c-.9-5.25-1.93-9.85-4.73-14.4-12.53.45-23.62,2.68-35.14,7.4,1.37,3.21,2.52,6.47,4.23,8.39,2.12,2.38,6.99,2.1,9.92,2.34l18.35,1.52ZM555.29,94.34c-3.99-1.96-7.76-3.3-12-4.23l-9.06-1.99c-3.47-.76-7.31-3.11-10.82-2.12-2.9,9.11-6.95,12.05-7.65,18.59,6.48,1.2,10.52.43,16.15-.54,10.29-1.77,18.55,3.53,23.37-9.71ZM333.95,100.51c-6.07-5.98-12.41-7.66-18.94-9.78l-9.27-3.02c-2.33-.76-4.33-.56-5.18,1.35s-.23,4.57,1.75,5.1l13.52,3.64c5.92,1.59,12.32,2.58,18.12,2.71ZM610.83,97.7l12.92-3.24c1.42-.35,18.51-4.8,17.94-6.41l-16.49-.27c-1.05-.02-3.68,1.44-4.69,1.58-8.14,1.11-20.26,5.81-26.35,10.17-.48.35.8,2.57,1.15,2.2.23-.24,1.48-1.1,1.87-1.18l13.65-2.84ZM711.11,150.29l19.61,4.66c5.27,1.25,10.77,1.01,14.8-3.02l-11.37-13.44-6.78-7.33c-16.76-18.12-48.57-39.22-74.7-41.99l5.45,19.53,2.3,9.71,1.45,6.7,1.64,9.66c.36,2.13,1.34,5.07,2.14,7.21l6.76,1.06c13.04,2.05,25.93,4.22,38.69,7.25ZM611.69,134.09c1.03-.2,3.9.87,5.07,1l26.26,2.95c5.34.6,10.47,2.02,16.44,3.15,1.62-2.63.18-6.14-.52-9.05l-2.34-9.82-1.71-6.9-3.25-13.07c-.91-3.66-1.97-7.19-3.51-10.62l-9.61,3.1-9.56,2.69-12.36,3.57c-12.09,3.5-9.92,3.13-22.63,4.51-5.15.56-9.59.72-14.51,3.83l10.4,9.48c6.88,6.27,8.23,17.79,21.83,15.16ZM375.06,100.31c.12-1.39-1.9-4.53-3.13-4.61l-6.21,4.32c3.81.78,6.03.77,9.34.29ZM781.54,122.24c2.23-3.19,3.93-8.96,1.53-11.63-5.04-5.62-10.13-10.04-16.4-15.09,1.99,7.17,6.64,11.63,9.88,17.57l4.99,9.15ZM315.48,121.85l6.14-5.28c3.83-3.29,7-5.53,11.82-9.22-1.68-.84-4.06-.78-5.79-1.22l-29.33-7.48-4.6,16.11c-2.11,7.4-3.59,14.75-3.39,22.64,15.41,2.65,19.43-10.64,25.14-15.55ZM347.57,131.68c4.88-.48,23.17.4,20.19-3.21l-2.1-2.55c-2.32-2.82-4.95-4.83-7.74-7.26-4.21-3.66-6.82-10.23-14.19-9.94-2.73,1.07-7.7,3.46-10.17,5.33l-8.09,6.13c-5.26,3.98-9.54,8.4-12.98,14.06,15.16,1.43,8.93-1.21,22.47-1.36,4.15-.05,7.85-.73,12.6-1.19ZM565.37,111.39c-5.89-1.35-13.98-1.13-18,3.75-1.28,1.55-3.4,5.73-4.61,7.62.32,6.33,20.95-7.06,22.61-11.37ZM387.57,118.9c-4.45-7.85-4.76-4.99-17.76-6.95-12.41-1.86,9.98,15.57,21.54,13.6l-3.78-6.66ZM92.13,190.64l12.54-6.32c4.21-2.12,9.23-3.33,13.76-5.5l6.04-2.9c2.12-5.15,3.95-10.51,5.87-16.22,2.35-7,6.49-14.41,7.56-21.49-6.29-5.99-12.3-15.73-12.13-24.72-.07-1.11-3.4-.16-4.2.8l-14.97,18.14c-5.91,7.16-11.15,14.7-16.59,22.42l-6.55,9.28c-2.07,2.94-3.45,5.89-5.22,9.04l-9.91,17.62c-2.03,3.61-3.62,7.12-5.66,10.64s-3.44,6.58-3.39,10.26c4.52-1.4,6.41-4.17,9.39-6.35,7.23-5.3,14.98-10.44,23.46-14.71ZM519.58,123.82l7.29-8.87c-1.72-1.09-4.33-.48-6.81.9l-8.06.94c-2.76,1.77-4.79,7.59-2.36,9.85,3.41,3.17,7.44.21,9.93-2.82ZM534.33,126.28l7.36-10.85c.76-1.17-3.84-2.34-4.92-1.29l-13.37,13.01c3.67.98,9.46,1.31,10.93-.86ZM588.97,131.61l4.63.28c-3.91-6.3-8.29-9.93-13.41-14.64-.97-.89-2.48-3.81-3.7-3.51-2.35.58-24.31,16.04-13.7,16.49l10.22.43,15.97.95ZM424.75,126.76c1.97-1.4.85-6.99-.86-8.38-2.16-1.75-4.91-2.78-7.77-2.78l-21.35.03c2.13,2.45,4.23,4.79,6.36,6.89l4.49,4.42c14.86,2.59,3.21,2.12,19.14-.18ZM463.01,127.54c3.68-1.96,3.53-5.41,3.05-7.7-.21-.99-1.76-2.81-2.61-2.92s-2.46.93-2.83,1.7c-.3.62.01,1.96.3,2.79l2.09,6.14ZM478.77,126.53c.58-3.04.71-7.61-1.16-9.13-2.32-1.89-6.29-.23-7,1.69s-.98,5.36-.49,7.5l8.65-.06ZM503.34,125.67l1.64-9.03-12.17.23-7.64-.1-1.72,8.15c1.23,2.17,19.41,2.86,19.89.75ZM450.27,127.01l1.85-9.66-22.85.13,2.71,9.62,18.29-.1ZM847.91,207.39l-6.43-15.33-5.12-9.75c-3.83-7.3-13.54-24.25-18.01-30.09l-19.92-26.01c-2.79-3.64-5.48-6.02-9.87-9.22l-1.75,6.07c-3.33,4.41-1.31,6.76.33,10.69l13.2,31.6c2.01,4.8,2.71,11.03,5.59,15,11.32,5.55,21.1,11.79,31.18,19.01,3.79,2.72,6.79,5.91,10.81,8.03ZM417.39,188.7c1.37,2.77,2.85,5.02,4.91,6.91.09-5.9-2.74-9.61-4.41-14.23-5.33-14.74-7.06-19.29-14.3-33.3l-7.86-15.19c-5.17,1.16-6.76,1.08-12.25,1.44l5.35,7.32c2.53,3.45,5.17,7.03,7.46,10.56l9.5,14.65c1.31,2.02,3.09,4.71,4.1,6.74l7.5,15.12ZM491.22,196.43l8.63.09c5.89-10.11,3.74-9.72,9.67-22.08l10.84-22.57,7.01-13.16c1.06-2,2.22-3.7,1.64-6.37l-11.33,2.67c-2.04,4.41-3.73,7.58-6.15,11.3-5.26,8.12-14.98,30.81-17.56,40.16l-2.75,9.96ZM333.4,190.65l12.51,1.35,13.22,1.46,14.68.67c4.16.19,7.85.85,12.13.7,13.66-.5,10.31,3.29,26.3,1.33-3.18-8.38-11.37-23.54-15.39-29.47l-5.68-8.38c-5.33-7.87-11.3-15.13-17.53-22.73-3.1-3.79-9.26.18-13.07.36l-16.65.81-15.01,1.61c-3.61.39-6.98,1.33-11.13,1.33s-11.2-.04-13.74,3.84l-16.32,24.93c-2.95,4.5-4.84,8.81-7.68,14.68,7.99,2.4,14.83,3.34,22.55,4.3l6.48.8,9.98,1.03,14.35,1.39ZM525.3,158.92l5.6-8.39c4.85-7.28,9.68-10.71,12-16.54h-7.43s-3.59,7.25-3.59,7.25c-4.61,9.31-11.6,19.32-14.78,28.59,4.01-3.33,5.71-7.17,8.21-10.91ZM581.5,191.03l12.34-1.39,7.16-.81,9.15-1.5c4.31-.71,8.69-.58,13.76-1.01-7.54-17.61-13.65-31.37-24.87-46.8-2.95-4.05-10.22-3-14.4-3.57-5.81-.79-10.69-1.05-16.81-1.19-3.84-.09-9.37-2.74-13.09-.1-4.72,3.35-7.76,8.83-11.23,13.49l-8.62,11.56c-2.03,2.72-3.86,5.43-5.7,8.36l-4.19,6.67c-4.42,7.04-7.71,13.27-10.71,21.24,10.1-1.08,10.91-.62,19.36-1.09l20.54-1.16c4.85-.27,9.65-1.65,14.81-1.48,4.07.13,8.11-.71,12.5-1.21ZM798.58,176.96c.3-3.02,0-5.46-1-7.84l-5.12-12.26-9.26-21.17c-.36-.82-2.27-2.64-2.79-2.09l-2.33,2.45c-2.16,2.28-5.11,5.06-7.67,6.79l-9.08,6.16c-2.23,1.51-6.22,2.98-7.18,5.34,2.89,8.23,10.17,9.84,16.84,12.33l27.59,10.3ZM440.79,193.63l-3.78-20.98-2.89-14.22c-1.43-7.04-1.07-15.99-6.51-21.33l-15.65-1.29,5.03,10.75,4.48,7.47c5.39,9,8.93,18.84,11.89,29.05l3.42,11.79c.25.86,1.92,2.09,2.73,2.11s1.47-2.29,1.28-3.36ZM501.29,155.37l8.94-18.82c-1.38-.6-4.01-.94-4.74-.12s-2.21,2.99-2.5,4.08l-3.63,13.86c-.79,3.03.73,2.49.55,2.6.25-.15,1.18-1.18,1.38-1.6ZM432.16,195.62l-5.77-17.47c-4.06-12.28-7.25-16.89-13.08-27.79-2.56-4.78-4.37-9.6-9.02-13,1.92,5.88,5.03,10.33,7.22,15.61l5.58,13.44,12.28,30.86c.32.8,3.11-.7,2.8-1.65ZM444.07,185.3c.16.93,2.77-.87,2.77-1.77l.12-16.69,1.53-5.97-.34-22.74-12.98.5,1.47,7.16,1.86,9.04,1.73,7.97,3.84,22.5ZM458,196.42l.19-33.86c.01-2.39-.58-6.24-.96-8.46-2.24-13.17,2.2-4.46-1.93-16.44-1.67,2.14-1.09,4.46-1.33,7.05l-2.67,28.22c-.26,2.71.23,5.83-.5,9.21-.99,4.62-.65,9.39-.34,14.59,2.18.21,5.21.11,7.53-.31ZM477.31,196.07c1.66-1,2.37-11.39,1.68-13.12.55-5.94.67-11.98.3-18.29l-.88-14.98c-.17-2.97,1.83-7.35.21-10.32-1.33-2.44-7.93-2.3-8.2.51-1.07,11.45.33,13.54-1.54,22.41.56,2.37.17,4.45-.09,6.88-.98,9.05-.74,17.76-.52,27.15,2.85.52,7.04.98,9.04-.23ZM484.17,190.42c3.03-7.83,4.12-14.5,6.03-21.54l8.49-31.27-11.63-.07c-1.07,0-3.59,2.02-3.39,2.99l.84,3.95-.45,10.89c-.07,1.68-1.44,5.19-.54,6.77,1.92,3.36-2.96,22.59.64,28.28ZM662.41,178.84l3.45-.85c.64-.16.3-2.59.18-3.42l-2.16-14.93-1.98-13.67-14.69-2.11c-6.21-.89-11.92-2.05-18.06-2.67l-10.32-1.05c-3.78-.38-8.15-3.19-12.17-1.26-2.16,1.04,1.26,4.42,2.05,5.82l5.07,9c1.56,2.78,3.22,5.78,4.52,8.73l8.75,19.86c.46,1.04,2.64,3.11,3.63,2.83l3.46-.98,9.75-1.91,9.9-1.6c2.69-.43,5.33-1,8.61-1.81ZM464.87,164.61l-.46-9.89.21-16.08c-1.16.08-2.94,1.86-2.92,2.83l.25,14.1,2.92,9.05ZM291.33,153.66l7.06-10.54-9.32-.43c-1.06,3.24-2.02,5.95-2.42,8.53l-1.64,10.5c2.26-2.17,4.3-5.04,6.32-8.06ZM146.47,157.37l6.54-6.91-5.56-5.28c-.98-.93-4.21-1.54-5.08-.6-.75.8-1.91,2.78-2.43,4.02l-8.12,19.22c-.6,1.43-.83,5.37.6,5.05,6.54-1.47,7.78-8.86,14.06-15.49ZM220.38,171.15l20.75,5.54,10.59,2.23c6.72,1.41,13.31,2.98,20.24,3.43,3.85.25,5.62-6.54,6.05-9.33l1.66-10.73c.91-5.86,2.09-10.32,3.61-17.41-3.46-.2-6.49.38-9.79.85l-20.34,2.94-16.1,2.69-9.23,1.56-27.52,6.06c-2.84.63-5.42-.14-7.81,3.19,9.29,3.35,17.93,6.32,27.88,8.98ZM728.17,158.78l-12.8-2.73-20.36-4.37-19.9-3.66-8.79-2.02,1.51,10.01c2.89,19.16.42,22.11,8.92,19.77l18.53-5.12c7.11-1.96,27.57-7.22,32.9-11.88ZM145.57,168.32l25.55-7.87c-3.24-3.54-7.51-6.54-12.29-6.81-3.6-.2-6.35,5.23-8.38,7.35-2.49,2.6-4.29,4.62-4.88,7.33ZM757.95,322.12c4.75,1.44,6.43,1.98,10.81-.68,4.96-3.02,12.02-3.96,17.42-6.63l13.85-6.84c6.18-3.05,11.92-5.67,17.71-9.87,1.69-1.23-.07-6.37-.79-8.35l-8.42-23.25c-4.09-11.3-8.53-21.85-13.51-32.58l-5.57-11.99c-1.21-2.61-16.05-30.8-16.79-31.96l-10.89-16.99c-2.61-4.08-5.61-6.34-10.03-7.91l-7.47-2.66c-2.48-.88-8.33-.91-10.77.08-3.06,1.34-6.11,2.75-9.18,3.74l-12.32,3.94c-12.67,4.05-25.31,8.52-38.51,10.42-3.94,3.61-.57,10.69-.25,15.26l1.61,23.17c.15,2.1,1.4,5.05,1.55,7.15l.9,12.5c.22,3.12.19,6.02.3,9.15l1.88,53.46c.12,3.45,8.11,3.78,12.93,4.68,25.34,4.71,40.43,8.57,65.52,16.17ZM183.26,319.7c6.77-1.98,13.27-3.36,20.12-4.82l6.45-1.37,17.88-4.34c3.38-7.66,4.93-15.79,6.97-24.22.83-3.43,2.77-7.43,3.83-10.94l4.12-13.64c1.52-5.04,3.39-10.06,5.21-15.03l3.75-10.23,13.94-34.75c1.71-4.26,3.59-7.67,5.88-12.18-1.35-1.21-4.16-2-6.38-2.35l-13.71-2.18c-6.59-1.05-12.92-2.81-19.46-4.63l-20.33-5.67-9.41-2.75-15.14-5.06c-4.05-1.35-6.79-1.94-10.95-.85-11.5,2.99-22.82,5.66-33.96,10.08-3.35,1.33-6.13,4.46-7.88,7.19l-8.29,12.88c-3.35,5.2-5.89,10.49-7.34,16.46l-1.77,7.26-2.18,9.09-2.06,8.96-2.08,8.89c-2.39,10.21-.96,7.57-3.29,20.23l-2.33,12.64-1.44,19.18c-.25,3.28-4,9.32-.23,11.77l13.81,6.19,8.41,3.23,14.02,5.6c5.64,2.25,10.86,5.02,17.58,3.05l26.27-7.68ZM822.43,273.79l-3.23-20.86-1.18-6.24-1.42-7.39c-1.02-5.31-1.98-10.29-3.37-15.48l-4.59-17.23c-2.09-7.85-4.83-16.37-7.53-23.6l-17.93-7.23-8.9-3.27-9.09-3.22c2.63,5.35,4.83,9.2,7.78,13.42,7.11,10.17,12.24,21.16,17.78,32.27l3.75,7.51,10.5,22.83,9.47,23.66c1.26,3.14,2.66,6.93,3.6,10.03l3.21,10.62c.24.79.89,2.32,1.2,2.95.27.57,2.12-1.7,2.03-2.39l-2.07-16.37ZM661.72,300.14c3.35,1.56,9.33,2.19,12.71,2.25.63-7.93.41-52.14-.36-54.82l-1.61-5.61-1.84-34.02-1.72-7.16-.4-13.89c-.04-1.24-2.33-3.97-3.47-4.01l-11.85,2.32-11.12,1.94c-3.75.65-7.48,2.19-11.78,3.4,1.29,3.42,3.43,7.46,4.53,10.88l5.38,16.76,8.54,26.22c4.68,14.36,4.66,14.86,7.15,29.55.46,2.73,5.6,18.1,5.84,26.19ZM65.3,286.53c2.35,1.89,4.64,5.2,8.46,4.91,2.81-4.27,3.16-9.3,5.21-13.94l7.85-17.81c1.31-2.97,2.24-5.71,3.66-8.54l20.45-40.58c4.52-8.97,8.8-17.04,10.42-27.39-4.39,1.33-8.36,2.49-11.55,4.26-11.49,6.34-24.2,11.12-33.73,18.38l-10.21,7.78c-5.07,3.86-13.1,12.73-15.8,18.45l-4.48,9.47c-7.54,15.95,7.34,35.03,19.73,45ZM847.01,275.92c7.86-9.33,6.7-8.56,12.29-19.28,1.48-12.3,5.73-7.25-.23-22.9-3.33-8.75-7.02-17.46-15.2-22.76-9.64-6.25.27-1.91-12.83-10.25-2.56-1.63-5.6-4.42-7.92-5.67l-13.66-7.4c-.28,2.76-.05,5.83.75,8.57l4.73,16.23c.92,3.15,1.7,7.17,2.34,10.59l2.21,11.69,2.5,11.85,2.25,9.47,1.91,15.22c.32,2.51,1.19,4.31,1.46,6.45l1.49,12.09c2.36,1.25,17.33-13.21,17.92-13.9ZM421.9,286.76c3.15.77,8.13.81,11.21-1.21-1.25-12.83-.85-24.35-.84-37.21-4.79-16.36-10.32-31.77-17.3-47.46l-17.85-.28-7.38-.16-10.82-.49-8.91-.46-11.11-.68-9.7-.98-14.25-1.58-10.98-1.31-12.02-1.32-11.06-1.46-11.54-1.68-8.07-1.18-2,9.85c-.87,4.31,0,10.08-1.1,14.49l-1.49,5.95-.68,27.14-1.67,7.39-1.44,46.49c3.47.46,6.29.27,9.52-.36l10.57-2.05c3.59-.7,7.48-1.31,10.76-1.64l17.12-1.72c6.28-.63,11.55-.96,17.43-2.19,5.42-1.14,11.67-.49,17.28-1.29,6.03-.87,12.04-.71,18.28-.85l4.85-1.62c2.81,1.88,5.63.09,8.48-.04l29.52-1.27c1.17-.05,4.06-1.1,5.19-.82ZM565.22,289.86c4.03.7,8.92-.2,12.83.73,5.02,1.19,10.13.53,15.12,1.1l10.8,1.25,12.98,1.38,9.65,1.21,9.3,1.36,10.88,1.52c2.57.36,6.23,1.69,9.12,1.04.8-4.27-.25-8-1.16-11.93l-1.93-8.33-5.03-20.36-6.02-21.91c.75,2.74-11.27-33.82-9.68-29.93l-5.04-12.34c-1.04-2.54-1.38-5.57-4.61-4.43-6.63,2.35-6.86.81-18.51,2.79l-12.03,2.05c-3.37.57-7.63.79-10.93.76-4.16-.03-7.89.61-12.04,1.02l-15.11,1.5-26.62,1.04c-1.93.08-5.12,1.63-7.01,1.66l-8.8.17c-3.2,6.05-5.54,11.66-7.85,18.02-4.75,13.05-11.5,25.51-13.52,39.36-.63,4.34-.42,8.3-1.91,11.96l-6.54,16.1,24.46-.12c2.9-.01,6.02.87,9.01.93l20.96.46c7.35.16,22.93.83,29.23,1.93ZM247.76,305.68c7.31-1.23,13.54-2.25,20.09-5.02l.68-39.1,1.93-8,1.13-26.07,1.39-4.89c1.32-4.63-.09-11.65.84-16.32.86-4.33,1.82-7.34,1.19-12.01-3.28,4.24-5.5,7.91-7.26,12.37l-5.97,15.2-4.63,11.21-9.15,27.01-3.82,11.84-4.25,13.89c-1.88,6.14-3.67,11.92-5.22,18.02l-.77,3.05c-.17.66,1.28,1.48,1.91,1.25.47-.17,1.86-.75,2.46-.85l9.43-1.59ZM440.51,228.74c-1.16-8.34-3.24-14.95-5.42-22.02.06-2.41-1.55-5.26-4.47-4.04l3.98,13.44c1.31,4.41-.06,10.87,5.91,12.63ZM438.93,202.2l3.91,14.02c.79-3.06,2.35-15.52-3.91-14.02ZM458.95,221.31l-.9-15.91c-.08-1.4-2.12-3.52-3.56-3.62-1.61-.11-3.74.52-4.08,1.65-2.29,7.71-1.7,14.14-.05,21.37.71,3.08,2.5,3.54,6.32,2.9,1.67-.28,2.42-3.69,2.26-6.4ZM477.58,227.49c.21-13.91,3.93-11.21,1.27-24.71-2.25-1.5-7.57-1.43-10.04-.63-3.27,11.56-2.28,13.45-2.14,25.35h10.91ZM488.88,229.06l8.86-26.16c-1.3-2-7.6-2.22-8.49-.19l-6.07,24.03c-.25,1,.49,3.35,1.31,3.86s4.07-.61,4.39-1.54ZM97.88,298.6l.81-7.93c.43-4.16,1.07-7.96,1.73-11.95l2.16-13.11,1.71-10.62,2.14-10.25,2.05-9.83c.79-3.79,2-6.69.75-10.72l-3.49,6.6-8.1,16.65-12.38,28.56-5.79,14.43c-.58,1.44-1.49,4.14-.92,5.29.78,1.56,14.43,8.83,18.54,10.25l.79-7.39ZM893.29,402.02l.6-7.99c.15-1.96-.17-3.37-.78-5.62-1.46-5.33-.85-11.54-1.48-17.17l-2.28-20.3c-.19-1.72-1.76-4.61-1.98-6.34l-2.41-18.29-2.18-9.62-2.56-13.79-2.74-12.07c-.61-2.69-1.39-6.41-2.2-8.87l-5.37-16.31-4.51-12.82c-1.79,4.76-2.8,7.66-4.71,11.17l-4.61,8.48c-2.66,4.9-6.75,8.7-11.02,12.32l-5.57,4.72c-3.05,2.59-5.48,4.58-10.02,6.51.41,7.26.78,15.7,2.16,23,.52,2.73,1.93,6.06,1.95,8.81.05,6,1.23,10.33,3.42,15.88.7,1.85.98,6.16,1.43,8.28,8.12,9.52,9.93,5.3,23.17,16.04l9.43,7.65c7.91,6.42,16.73,16.78,22.27,26.32ZM11.47,408.09l8.42-9.45,12.47-12.28c12.48-12.29,16.44-6.79,20.05-20.13l1.99-7.38,2.43-9.71,4.22-15.31,9.18-31.02c.89-2.99-.55-6.93-3.43-8.94-9.66-6.74-22.9-20.21-26.65-32.41-1.1.6-2.83,2.67-3.3,4.18l-5.42,17.45-2.5,10.56-1.91,6.59c-.82,2.82-2.04,6.62-2.5,9.32l-2.27,13.24-2.23,9.65-2.57,13.29c-.96,4.97-.29,10.98-1.58,15.7-1.08,3.96-1.92,7.2-2.15,11.24l-1.6,28.97c-.42,2.34-.77,4.05-.66,6.43ZM310.26,358.16l9.09,1.63,19.49.36c3.61.07,6.56,1.4,10.11.99,11.49-1.32,3.27,3.63,22.72.28,2.81-.48,2.47-9.78,8.64-19.47,6.85-10.76,2.29-5.93,13.94-16.8.9-.84,3.55-2.07,4.38-2.88,3.21-3.13,7.22-5.02,11.53-6.55l8.11-2.86c7.12-2.51,12.04-9.48,16.01-16.05.98-1.62-1.02-4.89-2.48-5.8-1.92-1.19-5.56,1.2-7.5,1.32l-29.03,1.73-16.08.96c-6.01.36-12.28.31-18.27,1.14-3.61.5-7.03,1.64-10.97,1.45-5.22-.24-10.08.83-14.96,1.22l-23.07,1.81c-2.96.23-6.21,1.15-9.01,1.59l-12.87,2.02c-6.01.95-11.15,0-17.22,3.15l-1.11,40.34c-.08,2.76.35,6.07,3.04,6.24,4.07.26,7.3.74,11.25,1.24l12.64,1.61,11.6,1.34ZM666.22,348.06c-.19-2.9-.94-6.87-1.41-9.46l-2.03-11.22c-1.4-7.7-1.47-16.48-6.29-22.71l-21.55-2.78-9-1.16-9.17-1.37-11.92-1.47c-4.18-.52-8.86-.16-12.9-.89-2.95-.54-5.73-1.2-8.91-1.38l-14.09-.77c-4.55-.25-9.12-1.1-13.98-1.02-5.24.09-9.97-.79-15.03-.88l-27.84-.52c-3.29-.06-6.78-.9-9.98-.83l-20.1.45c-.1,5.16-.29,9.58.28,14.64.29,2.59,6.79,4.01,9.15,4.53,11.96,10.07,7.42,4.6,18.64,16.32,4.83,5.05,8.67,10.06,11.71,16.48,2.51,5.3,4.79,10.27,5.88,16.41.82,4.61,23.29,1.16,28.33.56,6.05-.72,12.67-.01,18.49-1.13,14.1-2.7,9.63-.57,22.56-2.78,5.31-.91,11.28-.06,16.3-1.22s10.3-1.04,15.52-1.87l13-2.06,11.99-1.9,12.34-1.96ZM73.15,359.48c8.94-4.69,14.96-6.4,20.94-11.53l1.63-31.3c.23-4.38-1.84-5.73-5.41-7.59-5.47-2.84-12.17-8.47-14.39-6.85-.75.55-1.48,2.26-1.86,3.51l-7.57,25.31-2.29,8.6-1.94,7.19-3.38,13.96c-.53,2.17-1.02,3.86-.35,6.39l14.62-7.68ZM827.83,346.95l-.24-12.89c1.23-3.9.75-5.85-.2-9.72l-2.71-10.95c-.89-3.6-2.12-7.37-3.6-10.54l-20.63,10.49c-4.81,2.45-9.31,4.98-14.45,6.66-4.53,1.48-7.99,2.97-12.85,5.51l21.92,8.34c12.24,4.65,20.86,9.22,32.77,13.1ZM674.35,346.54c-.09-6.52-.57-11.97-.16-18.05.46-6.84,1.7-14.33.02-20.73l-8.28-1.73c-.73-.15-2.7-.04-2.64.56s.25,2.1.39,2.78l2.16,10.15,2.39,13.13,1.63,10.09c.37,2.28,1.54,4.03,4.49,3.79ZM238.53,347.83l17.3,3.07,10.46,1.54c.21-15.7,1.99-6.74,1.08-17.81-.69-8.38.09-17,.04-25.48-3.14-2.2-7.16-.35-10.4.24l-10.2,1.87c-2.5.46-6.5,1.48-8.69,2.05-1,.26-3.74-1.19-4.32-.45-2.39,3.07-3.28,8.2-4.14,11.75l-1.92,8.02-2.09,8.71c-.31,1.28.37,3.59,1.19,4.29,1.53,1.31,5.01,1,11.7,2.18ZM753.53,325.43c-4.49-1.37-8.72-2.7-13.12-3.78l-16.03-3.93-21.48-4.91c-2.16-.49-4.52-.97-6.5-1.31l-6.9-1.16-8.7-1.73c-.25.22-2.46,3.8-2.41,5.5l1.02,30.47,16.6-3.31c3.3-.66,7.25-1.38,10.5-2.21l35.65-9.14c3.56-1.94,6.21-2.69,11.35-4.5ZM132.45,334.73l10.39-3.39c-1.89-1.06-3.11-1.61-4.62-2.17l-20.42-7.65-9.85-3.87c-1.55-.61-5.86-3.27-6.11-1.64l-1.64,10.44-.95,6.94c-.62,4.52-.91,8.04-.81,12.9,8.18-2.05,13.84-4.44,20.85-6.91l13.16-4.64ZM191.63,338.6c10.84,2.5,19.26,5.93,28.74,4.94l4.61-20.85,1.58-6.95c-.68-.03-4,.21-5.73.54l-10.01,1.89-10.15,1.92c-2.97.56-5.86,1.59-8.67,2.36l-28.18,7.79c1.83,2.9,4.86,3.07,7.89,3.77l19.91,4.59ZM798.99,529.16l13.41-8.31,4.09-20.92c1.68-8.58.76-6.82,2.51-15.34,1.03-5.03,1.65-9.61,2.33-14.83l1.71-13.07,1.06-8.22,1.93-14.75c.44-3.32.56-7.39.86-11.04l.94-11.24.78-15.74c.16-3.27.66-6.98.69-10.01l.16-17.07c.04-4.53-.44-9.93-.96-14.14l-9.37-4.97c-7.08-3.75-14.32-7.07-21.89-9.89l-8.87-3.31c-10.91-4.07-15.1-3.99-21.26-6.84-2.78-1.28-5.23-.6-8.1.23-1.38.4-4.56.5-5.85,1.24-2.71,1.56-5.84,2.25-9.04,3.11l-12.1,3.25-6.97,1.54c-1.83.41-4,1.19-5.78,1.68l-15.32,4.23-9.89,2.34-15.6,3.4-.28,10.95-1.22,6.09c-.83,4.16.98,9.34.2,12.98-1.51,7.08-1.57,13.1.78,20.05,1.67,4.91.29,11.57,1.59,16.72.76,3.03,1.1,5.45,1.31,8.32l.95,13.13,1.57,11.06,1.97,39.93,14.6,3.83c17.76,4.65,53.91,15.75,69.55,22.63l29.5,12.97ZM131.41,525.34l14.46-6.87c7.66-3.64,16.06-5.73,24.39-8.48l20.03-6.61c3.42-1.13,7.78-2.81,8.1-7.44l1.95-27.98c.24-3.41,1.79-6.61,1.66-10.2-.23-6.05.88-11.39,1.71-17.12l2.45-16.96,1.87-12.94c.59-4.1.89-8.36,1.65-12.16l3.2-15.96,1.5-8.14,1.92-11.87c.65-4.01,1.13-7.28,2.26-11.19-1.93-3.2-6.83-3.28-10.52-4.09l-18.94-4.16-7.03-1.86c-7.72-2.04-15.12-3.76-22.66-6.24-6.52-2.14-15.25.62-21.92,3l-30.94,11.01c-3.41,1.22-7.74,3.14-7.75,6.63l-.07,23.03.3,10.59-.02,11.41c0,3.2,1.01,6.2,1.02,9.38l.03,15.37,1.19,11.19,1.06,9.92,1.35,13.87,1.37,10.36c1.83,13.82.69,9.21,3.72,23.85l2.37,11.42,2.02,10.69,3.23,13.47c.28,1.16,3.06,1.43,3.96.78,3.5-2.54,6.98-3.77,11.09-5.72ZM238.3,490.76c6.09-.62,13.51-1.98,17.9-3.52l6.49-1.09,10.31-1.94c2.35-.44,1.73-5.55,1.38-7.81l-1.62-10.63-1.3-16.05-1.43-17.95c-.36-4.47.25-9.66-.43-13.92-.77-4.86-1.54-9.05-.94-14.12.57-4.78-.9-9.62-.87-13.9l.15-30.21c-4.64-2.21-9.14-2.49-14.12-3.26-7.36-1.15-27.05-7.3-30.31-4.48-1.07.92-1.29,3.92-1.57,5.68l-2.1,13.27-1.98,9.94-2.05,10.9-2.12,15.07-2.26,13.98-1.56,8.94-1.47,8.35c-.94,5.3-.88,11.12-1.47,16.67l-1.36,12.86c-.31,2.94-1.12,5.82-1.65,8.67-1.36,7.27-.86,14.68-1.01,22.61,3.97-.63,7.61-1.12,11.08-1.96l9.5-2.31,14.82-3.77ZM578.95,472.35l10.04,1.12c3.5.39,6.73,1.04,10.16,1.62,9.56,1.6,15.27.92,21.86,2.96l5.95.28,9.83,1.77,15.04,3.14c2.41.5,6.52,1.74,8.36.14,1.7-1.47,2.58-5.25,2.91-7.58l1.71-11.88c.43-3,.83-5.98,1.1-9.22l.83-9.99c.27-3.24,1.11-6.56,1.37-10.08l1.32-17.96,1.4-11.85,1.03-12.26c.2-2.41.23-3.82-.37-6.33-1.22-5.14-.44-11.11-1.35-16.25-1.08-6.1-1.58-13.68-2.95-15.05-.85-.85-3.87-1.59-5.1-1.42l-13.12,1.81-11.89,1.88-15.05,2.05-10.29,1.68c-4.52.74-10.12.16-14.35,1.23-2.93.74-5.39,1.55-8.36,1.55-11.96-.03-13.57,2.07-32.19,2-2.48,0-5.8,1.46-8.1,1.56l-17.95.78c1.09,3.81,1.84,6.54,2.25,9.56l1.64,11.99c1.16,8.46,2.67,9.08,3.48,17.03l1.12,11.05c.72,7.04,1.17,13.54,2.01,20.41l1.74,14.22c.42,3.42,1.37,6.57,2.13,9.88.51,2.22.16,6.71,2.86,7.08,3.59.49,7.15,1.41,10.04,1.61l20.88,1.48ZM110.6,533.82c.66-5.69-1.8-9.92-2.65-14.87l-2.78-16.18-1.43-8.32-1.37-7.93c-1.81-10.5-.94-10.35-2.66-20.05-.5-2.84-.99-6-1.26-8.82l-1.15-12.04-1.27-13.25-.95-12.81-.12-17.07c-.03-4.21-1.1-8.2-.81-12.81.26-4.01-.25-7.31-.72-11.05-.92-7.39-.02-14.64.05-22.73l-8.15,3.2c-3.5,1.38-6.6,3.04-9.96,4.86-7.61,4.13-15.92,7.74-21.53,14.55-.86,1.77-.83,5.84-.81,8.34.03,2.69-1.7,5.94-2.07,8.13l-2.36,13.97c-.81,4.81-.57,10.07-1.66,14.73-1.85,7.86-1.54,15.7-2.56,23.85-.27,2.16-1.82,5.62-1.92,8.09l-1.66,38.1c-.18,4.08,5.05,6.2,7.47,7.67,7.38,4.49,12.57,9.13,17.5,11.46,13.46,6.39,13.56,8.18,27.34,13.82l17.51,7.16ZM345.35,455.84c.31-3.94,1.46-7.89,2.02-11.21l2.07-12.35c.44-2.62,8.97-13.85,12.03-24.76l4.44-15.78c2.23-7.94,4.16-15.21,4.66-23.77-6.55-.21-12.24.05-18.41-.57-1.85-.19-4.5-1.33-6.48-1.27-5.81.19-11.02-.32-16.75-.99l-9.11-1.06-11.86-.59-12.99-1.45-13.33-1.44c-2.31-.25-6.53-1.87-8.19-.06l-1.02,13.4c.04-.57,2.14,44.12,1.51,41.5l1.26,5.26c1.34,5.62-.72,13.05.22,18.65.66,3.96,1.22,7.37,1.53,11.36l1.17,15.05,1.19,12.95c.12,1.35-.18,3.16.56,3.48,3.65,1.57,18.11-2.9,23.04-3.6l11-1.57,15.07-2.14,15.01-1.82,1.37-17.21ZM825.11,514.88l5.02-2.94,16.42-9.68c2.89-1.7,5.24-3.33,3.79-7.54-.57-1.65,1.42-5.48,1.3-7.19l-3.99-55.5-2.47-4.04c3.79-5.01.16-10.51-.48-15.5-.84-6.57-1.6-12.42-3.19-18.89-.95-3.86-.33-9.11-1.58-12.76-4.68-13.71.72-13.09-5.83-18.94-1.31,3.99-1.17,6.95-.66,10.63.41,3-.62,5.7-.58,8.71l.2,14.47c.05,3.97-.68,7.71-.74,12.09l-.22,16.99c-.04,2.78-1.57,6.81-1.83,9.7l-.82,9.39c-.33,3.76-.27,7.78-.9,11.54l-4.38,26.23c-.95,5.72-1.28,11.86-2.69,18.01s-2.72,11.93-3.57,17.75c3.14,1.32,5.04-1.27,7.18-2.53ZM882.62,468.83c5.03-6.09,7.92-11.58,10.5-18.3,2.4-6.24,2.28-12.03,2.16-18.84-.07-3.64,1.21-8.05-.03-11.41l-2.69-7.29c-2.4-6.51-6.06-13.11-10.33-18.5-2.73-3.44-5.57-7.49-8.74-10.19l-11.99-10.17c-1.58-1.34-4.5-3.39-6.29-4.53l-13.75-8.74c-1.72,4.14.41,7.24,1.14,10.91l2.61,13.11,2.83,16.67c1.44,8.5-.17,17.48,2.17,25.81l2.15,7.65,2.85,37.67.45,11.84v8.82c5.66-1.57,8.07-4.76,11.85-8.15,2.14-1.92,4.84-3.89,6.72-6.17l8.39-10.18ZM36.95,472.3c.91-9.32.61-9.51,1.36-18.04l1.72-19.6c.34-3.82,2.06-6.95,2.15-11,.1-4.59,1.22-8.67,1.97-12.96l2.49-14.13,2.28-15.52c-15.83,9.21-27.77,21.88-37.43,37.06-.6,6.86-1.21,14.42-1.24,21.38,0,2.46,3.08,5.46.04,7.75l.96,13.43c.52,7.33,7.05,12.79,10.89,18.6,3.32,5.03,7.52,8.86,13.08,10.71l1.74-17.69ZM403.22,468.66c.81-2.04,2.5-5.46,2.52-7.14l.49-39.74c.05-4.11-.22-7.49-1.23-10.89l-1.61-10.28c-.62-3.96-1.59-7.42-4.36-10.42l-9.59,17.13c-5.48,9.78-9.39,20.09-13.31,30.66-3.29,8.88-8.92,22.84-6.78,32.66.25,1.16,3.93-.59,5.14-.7,8.76-.79,19.24-1.06,28.73-1.28ZM675.13,487.64l6.39.76c.84-7.06-1.52-13.19-1.9-19.73l-1.87-31.73c-3.57-5.44-.92-12.56-3.2-20.33-2.64,12.96-.59,14.49-3.08,30l-1.4,8.72-1.49,9.29c-1.08,6.72-2.06,13.18-2.04,20.16,2.72,1.49,5.64,2.51,8.59,2.86ZM515.54,467.24c.97,0,2.93,1.1,3.59,1.22s1.72-1.89,1.26-2.87c-6.21-13.56-13.47-27.75-15.22-43.58-12.07,4.51-13.14,40.8-5.4,45.3l15.77-.07ZM868.71,591.51c5.37,8.94.82,5.94,6.73,11.88l8.47-33.82c.76-3.05,1.02-6.72,1.59-9.78l2.83-15.47,2.67-16.23c1.25-7.61-.08-9.22,1.54-19.11l1.04-6.33c.67-4.07.48-7.53.79-12.11l.8-11.69.54-11.99c.13-2.84.06-4.38-.46-8.01l-4.44,6.87c-1.31,2.03-3.2,5.47-4.59,7.04l-5.28,5.93-7.16,7.88c-12.18,13.41-19.66,10.59-17.53,21.4,1.04,5.27-.45,22.12-.4,27.18l.15,15.31c-.02-2.41-1.72,16.9-1.82,17.55-.56,3.89,4.51,6.89,6.31,9.88l8.2,13.64ZM659.74,489.21l-8.67-1.61-9.92-1.46c-6.33-.93-11.85-2.38-18.11-2.97l-11.93-1.13-8.98-1.71-13.09-1.37c-4.01-.42-7.92-1.14-12.14-1.46l-14.86-1.13-7.84-.48c-1.25-.08-3.19.02-4.15.12-2.34.24,1.05,10.67,2.39,13.28,9.29,18.09,7.28,11.59,7.58,35.36l-4.64,8.61-6.29,2.88c-7.89-2.89-5.42-6.5-7.31-17.86-1.36-8.19-2.94-15.95-6.86-23.3l-3.4-6.36-7.1-14.96-24.81-1.2,5.29,24.16,1.49,8.66c1.37,8.01,0,16.17-.82,24.24l-1.25,12.31-.76,24.41c-.19,5.97-1.45,12.48-.39,18.07,3.2,3.82,7.77.15,11.11.02l27.36-1.01,22.36-1.52c3.62-.25,6.49-1.45,10.02-1.67l17.64-1.14c3.27-.21,5.84-1.3,9.32-1.35,2.99-.05,5.44-.9,8.26-1.55,3.9-.9,8.56-1.01,12.75-1.47l14.86-1.63c2.03-.22,5.52-1.29,8.06-1.72l3.85-17.2,3.22-14.54,3.27-16.28,2.05-12.54c.93-5.65,3.01-16.04,2.46-21.51ZM290.16,555.02l1.07,9.73c.31,2.81,1.92,7.62,3.44,10.04,2.51,4,8.48,2.35,12.27,3.16,5.42,1.16,10.19,1.25,15.55,1.55l16.91.95c2.19.12,5.73,1.47,8.47,1.37,3.36-.13,5.85.31,8.88.97,7.27,1.57,15.15-1.11,26.87,1.35l1.58-12.32,1.83-8.81,1.8-10.22,1.74-9.81,1.58-8.23,3.17-16.15c.95-4.84,2.91-9.95,3.58-14.71l1.45-10.35,1.5-10.07c.44-2.96,1.22-5.37,2.35-9.14l-16.25.65c-2.37.1-5.76.09-7.84.36l-13.12,1.7c-.13,3.77-.52,9.56.11,13.47l1.6,9.96,1.69,10.06c.59,3.53,1.17,7.58-.57,10.99l-10.87,21.26c-2.24,4.38-11.87,11.64-14.32,7.77-5.78-9.11-1.2-26.18-1.21-25.82l.88-45.97c-14.59,3.22-21.18,1.62-35.23,4.36l-10.09,1.97c-8.44,1.65-15.98,1.28-17.21,2.95-.76,1.03-1.04,4.26-.76,5.55,2.18,10.18.97,11.41,2.78,22.83l1.59,9.99,1.43,9.37,1.85,9.61c.58,3.02,1.11,6.03,1.51,9.61ZM34.5,601.17c7.19-6.08,4.75-12.83,3.93-19.47l-1.11-9.08c-.61-5.02-.13-11.86-.24-16.65-.03-1.27-1.19-4.23-1.15-5.4l.59-19.17c-3.42-3.27.78-24.89-.41-31.25l-23.16-23.02c-.95,1.2-1.45,3.21-1.13,4.25,1.99,6.57,1.06,11.79,2.6,21.19l1.42,8.65c.59,3.6.69,7.06,1,10.92.83,10.27,5.6,34.88,8.58,45.92l4.62,17.09,4.48,16.01ZM28.98,600.83l-2.02-7.56-4.22-15.75-3.24-12.09c-.41-1.54-.86-4.15-1.16-5.91l-2.9-17.4-3.27-16.42c-.79-3.97-1.1-7.94-1.44-11.87l-.87-10.21-1.27-15.16c-3.38,5.01-.67,10.89-.4,16.23l.84,16.96c.2,3.92.58,7.53,1.02,11.15l1.22,10.04,1.44,10.91,1.1,6.79c.84,5.2,1.95,10.44,3.31,15.84,1.4,15.7,4.75,21.57,7.53,38.84.44,2.74,1.62,5.18,3.43,8.01,3.25-16.25,4.58-8.53.87-22.41ZM226.89,567.02c8.8.96,9.22,1.34,18.05,2.55l11.15,1.52,9.87,1.37,12.02,1.63,9.97,1.33c-.33-3.92-.93-7.31-1.55-11l-1.8-10.76-1.7-10.26-1.11-9.69-1.49-10.09c-.41-2.8-1.46-6.29-1.73-8.8l-1.41-13.13c-.51-4.77-.45-8.73-3.47-12.77-11.25,1.3-8.24,2.64-16.56,3.92l-11.41,1.75c-1.78.27-4.63.95-6.78,1.46l-13.12,3.14-7.58,1.79c-5.56,1.31-13.31,2.11-17.16,6.54l-.3,9.12-.43,10.3-1.51,20.71c-.18,2.42-.3,4.42-.32,6.91l-1.68,4.38c3.64,1.63,7.45,2.87,11.46,3.54,6.11,1.01,12.4,3.87,18.58,4.55ZM672.28,565.59c4.03.09,9.49-.63,12.49-3.68l-2.76-66.26c-2.37-2.06-5.71-2.94-8.8-3.54l-7.32-1.42-2.04,10.06-4.54,24.94-5.74,28.98c-.95,4.81-4.89,13.16-2.21,14.5.82.41,3.79.58,4.68.28,13-4.32,9.56.7,16.25-3.85ZM749.21,547c9.76-2.92,19.59-5.85,28.81-10.07l11.64-5.33c-5.62-4.36-11.41-5.58-17.32-8.43l-11.54-5.56-11.63-3.95-9.63-3.44c-15.36-5.49-37.55-11.83-53.72-14.74.04,7.15-.41,13.65.79,19.94.71,3.73,1.76,7.2,2,11.22.23,3.72-.97,7.53-1.18,11.04-.48,8,.42,15.37.78,23.5,4.78,1.01,8.5-.13,12.78-1.02l9.2-1.92c3.06-.64,5.96-1.33,8.88-2.21l30.12-9.02ZM68.95,563.68c4.25-3.62,8.1-7.29,12.64-10.29l23.64-15.62-14.36-6.08c-3.68-1.56-7.31-3-10.84-4.92l-13.67-7.46c-4.1-2.24-7.06-4.54-11.03-6.88l-8.12-4.79-3.76-3c-.72-.58-3.43,1.27-3.14,1.56,1.33,2.8.45,4.33.41,6.61l-.17,8.85.17,12.05c.06,3.81.21,7.05.3,10.57l.36,15.23.64,9.21c.22,3.21.6,6.15,1.15,9.16l.42,9.54c10.44-12.37,15.16-15.06,25.36-23.73ZM162.34,551.14c3.82.82,6.61,1.51,9.57,2.35l11.81,3.31,9.1,2.55,1.62-22.51c.17-2.3,1.52-5.53,1.59-7.98l.54-21.8c-3.04.74-5.95,1.15-8.33,2.01l-42.31,15.46-10.61,4.71c-5.22,2.32-9.25,4.32-15.25,7.65,5.56,2.7,9.83,4.12,15.12,5.79l7.72,2.44c6.26,1.98,12.59,4.55,19.42,6.01ZM841.78,558.15l7.95,5.64.97-10.1,1.06-14.09-.65-16.92.44-8.44c.13-2.48-.07-4.61-1.07-7.5l-10.79,5.65-6.26,4.39c-9.72,6.81-18.48,3.87-18.88,15.93-.06,1.95-1.05,5.35,1.33,6.92l12.79,8.43c4.49,2.96,8.4,6.75,13.11,10.1ZM686.51,636.61c-.34,6.55-.88,13.15.19,19.14,5.47,2.74,10.63,5.03,16.11,7.04,5.75,2.11,10.92,4.99,16.35,7.84l18.89,9.91c2.56,1.34,7.3,6.47,10.17,2.62,4.97-6.65,9.01-14.48,13.31-21.68l4.81-8.07,8.78-18.5c3.95-8.32,7.47-16.57,10.86-25.23l7.13-18.21c.74-1.88,1.64-4.26,2.23-6.25l7.25-24.26c1.12-3.73,5.7-18.88,4.43-20.83-.58-.89-2.69-2-3.85-2.46-5.76-2.3-10.64-1.23-16.09.76l-13.46,4.91c-3.03,1.11-5.53,2.14-8.57,3.47-3.62,1.59-8.38,2.38-12.21,3.68l-15.7,5.33c-2.63.89-5.26,1.52-8.04,2.28l-6.96,1.92c-2.34.64-4.63,1.17-7.13,1.68l-17.82,3.68-8.82,1.98.17,11.09-1.09,4.46.71,30.2c.05,1.94-.62,3.69-.74,5.91l-.91,17.58ZM113.04,723.46c1.96,1.09,5.85,2.64,7.87,1.64,3.72-1.84,8.45-10.19,13.16-14.32l12.36-10.83c2.07-1.81,5.43-4.43,7.59-5.82l11.86-7.67c2.13-1.38,4.49-3.02,6.34-4.49-6.36-9.29-18.69-31.42-22.44-40.38l-3.51-8.38-7.3-16.68-7.1-16.68c-2.33-5.47-3.65-11.15-5.51-16.66l-7.6-22.49c-1.49-4.42-2.79-9.35-3.73-14.01-.37-1.85-.39-7.77-4.02-5.65l-13.05,7.62c-6.03,3.52-12.18,7.27-17.46,11.5l-10.08,8.09c-6.8,5.45-12.89,11.54-19.03,17.87-1.69,1.75-3.46,5.09-5.02,6.98-2.91,3.5-1.86,6.15-.96,10.04,2.71,11.74,1.37,11.65,4.13,23.72.58,2.55,1.29,5.36,1.7,7.72l1.23,7.27,1.6,8.02c1.69,8.44,5.38,15.5,9.32,23.21l3.39,6.64,5.07,8.81c4.36,7.57,8.23,14.62,15.7,19.7,4.76,3.24,9.65,6.45,14.76,9.28l10.72,5.94ZM197.22,667.9c-1.28-5.43-1.56-8.81-1.22-13.3.31-3.97-.8-7.44-1.25-11.25-1.31-11.17,1.99-21.75-1.33-29.15l1.08-40.41c.06-2.37-1.71-6.87-2.44-9.64-.47-1.78-5.68-.66-7.41-1.26-3.24-1.13-7.63-2.78-11.17-3.75l-25.65-7.03c-2.41-.66-4.66-1.31-6.87-2.09l-14.45-5.12c-1.35-.48-3.67-.92-4.84-.81-4.35.42,4.07,21.98,4.99,24.72l8.08,24.17c2.1,6.3,5.04,11.98,7.49,18.06l8.15,20.23c2.16,5.37,4.92,10.3,7.62,15.37l10.21,19.14c1.79,3.36,5,6.4,6.55,10.26.93,2.31,3.54,3.1,5.56,2.04l10.52-5.52c1.72-.9,4.96-3.57,6.39-4.64ZM789.24,723.54c7.67-4.3,14.41-8.34,21.74-12.92l14.72-9.2c3.23-5.46,4.91-12.38,6.49-18.46l2.34-9.02,2.55-12.92c1.14-5.75,2.86-11.41,3.87-17.35l4.78-28.01,1.24-11.94,1.07-9.07c1.88-15.92,4.91-23.16-5.89-29.66-9.05-5.45-19.34-17.17-30.28-21.13l-4.49,17.27-2.18,7.35-9.47,29.16c-1.17,3.6-2.89,7.2-4.07,10.65l-2.35,6.9-12.39,28.69c-.86,1.99-2.66,4.79-3.84,6.94l-7.42,13.45c-4.66,8.44-5.13,11.53-13.02,19.91-.64.68-2.13,3.16-1.44,3.76l2.45,2.13,6.78,5.15c6.92,5.26,13.23,11.48,19.07,17.93,3.25,3.59,5.73,6.97,9.73,10.41ZM442.12,585.53c3.26-3.42,3.11-7.22,3.57-11.69.33-3.25,3.22-6.7.11-10.08l-4.14,16.9c-.27,1.12.05,3.51.45,4.88ZM303.97,635.31l-3.09-11.71c-1.7-2.95-1.77-6.26-2.61-9.67l-1.92-7.74-3.1-13.04c-.74-3.13-2.18-7.8-3.19-10.52-3.31-3.84-8.89-2.24-13.09-2.84l-11.91-1.71-10.42-1.36c-8.18-1.06-7.95-2.38-15.51-3.33l-10.24-1.29c-3.01-.38-6.56-1.15-9.67-1.82l-5.57-1.2-14.69-3.37-1.22,29.04c-.13,3.17.73,6.63,1.12,9.93.79,6.79-.72,14.17.42,20.82.65,3.81,1.23,7.1,1.08,11.15-.19,5.16.22,9.95.4,14.91l.5,13.95c5.59-.14,9.42-2.24,14.18-4.18l8.58-3.51c3.75-1.53,7.66-3.02,11.62-4.23l12.85-3.95,21.51-5.71,7.2-1.65c3.34-.77,6.56-1.38,9.73-2.26l17.05-4.72ZM643.85,642.21l36.86,11.48,1.25-9.11.24-16.91c.08-5.75.84-11.06.61-17.01-.15-3.93.74-7.33.84-11.15l.54-20.45c.08-3.2.38-5.59.47-9.58-3.36-1.35-6.49.09-9.98.82l-12,2.54c-4.72,1-8.53,1.5-13.7,2.29-1.45,3.55-2.68,7.3-3.75,11.06l-1.47,5.17-1.61,6.1-2.91,11.8c-1.35,5.48-9.42,27.78-9,28.59,1.91,3.68,8.44,2.76,13.62,4.38ZM451.95,586.62c1-1.21,2.54-3.78,2.48-5.01l-.59-11.38c-5.13,2.16-2.24,5.93-3.54,9.14-1.1,2.7-1.09,5.33,1.65,7.24ZM536.4,624.06l14.52,1.66,11.03,1.55,9.99,1.52c4.19.64,8.79.69,12.64,1.46l8.37,1.68,7.74,1.55c9.21,1.84,9.44.58,17.45,3.11,2.71.86,6.76,2,7.83-1.3l5.36-16.44c3.93-12.05,9.99-29.13,10.97-41.97-4.58-.08-8.1.6-12.45,1.28l-14.05,2.21c-11.57,1.82-20.19,1.78-31,4-5.96,1.22-8.92-.13-20.07,1.95-6.7,1.25-13.85.82-20.6,1.72-8.83,1.18-17.23,1.53-26.22,1.82s-13.34-1.54-13.36,3.8l-.1,24.08c0,1.23,1.39,4.18,2.53,4.37,3.79.61,6.75-.81,15.71.28l13.7,1.67ZM835.03,690.65c7.89.24,17.14-20.63,19.22-25.88l8.16-20.59c1.55-3.92,3.26-7.73,4.41-11.82l2.05-7.25c.9-3.19,2.57-7.47,2.54-11.19-.06-9.64-5.85-18-10.4-26.33-1.86-3.4-2.49-5.86-6.93-8.51l-1.67,16.44-1.02,10.02-1.27,7.82-1.22,8.57-.92,6.72-3.31,23.25c-1.73,12.19-7.14,26.31-9.67,38.74ZM382.92,615.39l-.85-11.01c-.31-3.94,2.76-10.03-.21-13.77-3.17-4-10.31-.36-24.16-3.38-4.33-.94-9.78.04-13.84-.53-4.31-.6-8.45-.8-13.02-1.17-4.28-.35-8.4-1.29-12.91-.98-3.44.23-6.94-1.01-9.96-1.27l-12.26-1.08,1.73,7.73,10.79,43.42c4.33.45,7.8.34,11.88-.41l10.7-1.96,13.1-2,11.92-1.83c4.08-.63,7.53-1.64,11.38-2.02l13.19-1.29c2.02-.2,2.71-6.09,2.53-8.45ZM454.38,600.22c-.17-3.06-.35-6.1-.62-8.78-.18-1.83-6.24-.55-6.34,1.32l-.48,8.98,7.44-1.52ZM442.05,595.21c.1-.76-.54-2.98-.76-3.48-.09-.2-2.2-.32-2.73,2.33l-1.7,8.52c1.49.11,4.35-.71,4.5-1.94l.69-5.43ZM41.52,605.01c-6.75-1.99-2.1,14.98.69,17.69,3.4-7.61-1.06-6.53-.69-17.69ZM453.99,618.89c.36-4.84.2-8.35-.12-12.75l-8.19.21-2.35,9.08c-.64,2.46,2.13,6.12,4.18,6.42,1.8.26,6.34-1.1,6.48-2.96ZM462.44,621.87c3.07-4.66,1.8-8.75-.89-12.65-1.08,4.42-1.31,9.29.89,12.65ZM55.43,673.17l-2.4-9.06c-1.04-3.9-3.84-8.23-5.39-12.13l-2.73-6.88-6.53-16.66c-1.18-3-1.17-6.96-3.01-9.82-10.39,17.22,6.26,51.56,20.52,63.17.82-3.31.37-5.51-.45-8.62ZM410.09,696.41c3.44,1.19,3.13-2.56,3.99-4.43l6.39-13.94c.94-2.04,1.67-3.8,2.42-6.22l8.68-28.06c1.87-6.05,1.51-12.55,1.01-18.89-4.52,1.31-3.63,5.6-4.8,8.76l-7.33,19.74c-2.24,6.03-3.96,11.58-5.27,18.01l-1.67,8.25-2.19,10.79-1.22,5.98ZM622.43,644.48c-3.05-3.11-6.14-2.39-9.48-3.17l-7.38-1.73c-2.14-.5-4.19-1.07-6.44-1.48l-18.54-3.42-11.62-1.41-13.05-1.8-12.92-1.68c-14.55-1.89-4.31,1.4-19.47-1.63-4.59-.92-10.21-.4-15.07-.77-7.15-6.99-2.24,16.96-2.06,22.41.23,6.95,7.17,19.27,10.98,25.58l12.04,19.94c5.84,9.67,13.28,17.96,20.14,26.96,7.23-.48,12.76.97,19.74,3.12,3.19.73,6.11-4.91,8.52-6.48,5.7-3.74,16.85-19.1,20.91-25.44,13.03-20.35,14.76-25.31,23.69-48.99ZM450.62,705.7c.22-4.2.46-6.62.41-9.27l-.27-15.81c-.05-2.89.43-5.78,1.77-8.36l-.05-42.71c-3.54-1.28-6.42-2.01-9.84-2.7-1.17-.81-5.67,33.45-5.61,28.82l-.53,39.92c-.02,1.66-2.17,4.62-1.37,5.99.67,1.14,2.35,4.18,3.85,4.17l11.64-.05ZM465.91,682.97l1.35-18.91c3.41-47.85-6.02-33.75-6.03-34.37l.3,39.81c.02,2.71,1.84,6.32,1.81,9.08l-.19,19.18,2.76-14.8ZM349.15,717.86c2.51,3.64,5.93,3.73,9.19,3.67,6.05-.12,7.29-3.38,10.6-7.11,6.64-7.48,10.59-17.26,7.82-27.18,5.38-8.73-2.93-2.92,1.46-15.28,1-2.81.14-7.88.81-11.22.91-4.49,1.41-8.57,2.02-13.17.81-6.08,2.71-10.89,1.35-17.73-4.8-.08-8.81-.09-13.39.57l-6.2.89-14.89,1.96-11.84,1.93-13.02,2.15c-4.36.72-8.95.1-12.01,3.3l3.83,12.07,7.74,20.39c4.86,12.81,12.58,24.44,20.23,35.57l6.33,9.2ZM257.11,750.75l9.07,3.61,7.06-3.69c14.52-7.58,20.98-11.47,37.31-16.7l12.96-4.15c7.65-2.45,14.78-4.14,23.31-5.82l-12.98-18.37c-2.84-4.02-4.77-9.14-7.44-13.42-2.04-3.27-3.75-6.34-5.4-9.81-8.91-18.69-8.07-23.26-14.8-38.77-1.98-4.57-6.88-1.67-9.34-1.03l-9.98,2.59-12.91,2.74-13.77,3.41c-9.01,2.23-17.61,6.04-26.42,9.02l-10.13,3.43c-7.56,2.56-14.69,4.81-21.45,8.85-.06,4.65-.37,8.83.27,12.71l1.39,8.42,1.3,7.03c-.11,7.03-.25,16.69,6.19,21.39l6.95,5.09,7.36,5.72c9.35,7.27,19.91,13.17,31.43,17.75ZM669.14,755.25c1.01-3.5,2.19-7.37,2.58-10.32l1.27-9.51,1.53-9.75c-.74,4.75,2.99-27.79,2.71-20.33l.4-10.92c.09-2.42,1.14-4.34.88-6.52-.5-4.22.89-7.32,1.17-11.39l.76-11.47c.12-1.81.09-4.44-.54-5.91-.48-1.11-3.32-1.3-4.76-1.77l-19.67-6.4c-3.86-1.25-8.12-2.18-12.28-3.27-4.69-1.23-10.03-3.14-15.46-3.33-2.7,8.29-5.98,14.94-9.23,22.77-1.79,4.31-2.88,8.24-5.76,12.24-1.69,2.34-2.86,6.24-4.45,8.69l-7.88,12.17-4.54,6.68c-1.77,2.61-5.66,5.37-7.14,8.21-5.25,10.03-10.84,6.96-10.05,11.13.5,2.67,4.11,1.71,9.66,3.61l19.5,6.69c8.26,2.84,18.28,7.26,25.64,11.53l6.56,3.81c2.33,1.35,4.6,2.48,7.38,3.87,1.87.94,4.85,4.85,6.95,4.28,4.58-2.94,8.93-4.48,14.79-4.8ZM699.57,736.1l6.83-5.74,10.68-9.65c4.49-4.06,9.11-9.15,12.83-14,3.01-3.92,4.87-8.1,9.32-10.66l4.41-6.48-10.1-5.65c-4.83-2.7-9.2-6.47-14.52-7.84-3.14-.81-6.28-2.49-9.13-4.3-3.12-1.98-6.25-3.12-9.59-4.57l-14.51-6.29c-.57,1.88-1.08,4.46-1.21,6.72l-1.09,19.02c-.2,3.49-.72,7.4-1.16,10.98l-1.37,11.11-1.57,13.98-1.3,9.37-1.64,8.33c-.68,3.46-.83,6.17.01,10.37,6.94-3.65,11.53-7.92,17.97-11.69l5.13-3ZM533.98,718.13c-2.69-7.92-9.78-15.65-11.84-19.39-6.47-11.71-9.05-13.84-14.46-25.56-3.07,9.68,1.38,17.15,4.77,25.07l5.05,11.79c1.37,3.21,2.64,5.68,6.61,6.37l9.87,1.72ZM459.35,703.31c-3.97-6.93,1.07-24.41-2.79-29.26-.52,1.03-2.5,37.59,2.79,29.26ZM200.32,708.36l-1.14-11.65-1.09-11.08c-.34-3.5-.79-5.75-1.47-10.27-2.62,1.41-4.99,2.82-7.47,4.33l-8.63,5.27c2.66,3.86,5.01,6.92,7.64,10.33,3.67,4.76,5.93,10.12,12.16,13.06ZM419.58,706.62c1.74-3.14,2.7-6.85,3.38-10.06l1.83-8.56c.73-3.43,1.64-6.74,1.02-10.44-4.68,11.89-9.6,18.67-14.51,30.98,2.46,2.13,6.59,1.13,8.28-1.91ZM800.08,778.62c4.13-2.45,6.75-5.43,8.91-8.72l4.4-6.69,6.99-10.12c1.33-1.92,3.12-4.51,4.12-6.45l4.89-9.39,13.72-25.49,9.41-20.43c1.9-4.13,3.63-8.14,4.86-13.18-8.43,4.05-10.33,12.09-14.11,19.24-1.67,3.15-3.64,6.11-5.23,9.72-1.01,2.29-3.26,4.76-4.61,6.83l-12.14,18.7c-4.35,6.7-4.69,14.53-11.29,25.93-3.7,6.39-6.62,12.54-9.92,20.04ZM475.35,704.73c-4.46-14.84.86-16.13-4.83-20.56l-.71,13.61c-.11,2.11-2.46,6.15-1.09,8.09s7.33,1.17,6.64-1.15ZM71.15,722.79c-.71-2.97-2.5-6.07-3.39-8.68-2.51-7.29-6.99-25.32-16.32-26.55.99,8.53,4.85,15.57,8.79,22.63,5.33,9.53,9.67,19.34,16.66,27.66.76-6.65-4.36-9.26-5.74-15.06ZM207.72,757.66l-.4-8.9-1.65-3.69c-.15-3.03-.54-5.76-1.01-8.63l-1.5-8.97c-.65-3.91-.91-8.11-3.92-11.12-13.61-13.62-12.05-14.62-24.19-28.39-10.96,4.13-23.51,13.42-32.1,21.7l-8.7,8.39c-3.33,3.21-6.6,7.25-8.36,11.23l15.46,6.72c8.61,3.74,17.62,6.49,26.53,9.89l18.01,6.86c13.46.49,12.3,6.13,21.82,4.91ZM430.95,689.97c-5.45,5.19-4.66,11.46-5.65,17.62,8.76,2.48,6.32-11.94,5.65-17.62ZM707.6,756.05l22.12-7.07c3.16-1.01,6.55-3.14,9.91-3.88,4.06-.9,7.92-3.02,11.82-4.62l15.25-6.27,6.95-3.01c2.85-1.23,5.45-3.02,8.37-4.94-.7-6.1-18.14-21.59-22.54-25.03l-7.38-5.77c-1.01-.79-3.37-2.47-4.31-1.81-5.07,3.55-10.23,10.99-13.94,16.14-2.64,3.65-6.93,8.2-9.79,11.55-6.61,3.2-8.11,7.9-14.24,12.95l-6.19,5.11c-6.36,5.25-17.67,12.99-26.01,15.19l-5.51,6.89c.19,3.15,4.46,4.01,6.8,3.03,11.73-4.88,14.53-3.95,28.67-8.47ZM834.58,699.32c-2.59,1.92-5.32,5.65-4.66,9.23,4.85-.66,6.7-10.75,4.66-9.23ZM109.29,782.42c.32-10.69-2.4-19.58.28-29.38.48-1.75,1.35-4.88.34-6.04-5.39-6.22-11.38-10.85-16.02-17.2l-11.31-15.48c-3.36-4.6-6.22-8.43-12.18-11.54-.08,2.79.31,5.38,1.21,7.38l7.25,16.22,7.44,15.72c2.42,5.11,4.74,10.17,7.35,14.93l5.31,9.68c2.93,5.34,6.06,10.28,10.34,15.71ZM800.06,751.46c4.67-4.52,7.59-8.15,10.72-12.98l5.52-8.51c4.49-6.93,5.99-13.4,7.71-21.57-3.49,2.04-5.37,2.96-7.19,4.22l-7.76,5.42c-5.91,4.13-11.33,7.71-19.03,10.27,10.76,15.87,3.25,11.08,10.03,23.14ZM449.48,719.67c-2.63-2.63-7.95-3.84-11.37-2.98-1.13.28-3.3,2.45-3.05,3.5s1.67,2.66,2.61,3.35c.87.65,3.34-1.74,4.38-1.45l5.24,1.43c1.04.28,3.1-2.95,2.19-3.85ZM475.84,719.04c-.95-1.59-6.03-1.62-8.13-1.28-1.12.18-1.39,4.06-.44,4.71,2.57,1.78,10.98.6,8.57-3.43ZM116.5,731.65c-.25-.66-1.73-1.7-2.56-2.11-6.12-3.09-12.64-6.6-18.32-10.16-.46-.29-2.47-.61-2.29-.11s.67,1.65,1.02,2.11l4.19,5.55c3.95,5.23,8.4,9.29,13.29,14.26,1.96-.02,4.99-8.69,4.67-9.52ZM415.32,722.14c-1.11-1.33-3.79-3.04-5.25-3.51-2.09,1.05-4.74,3.67-4.48,5.94s10.69-1.28,9.73-2.43ZM430.94,718.77c-2.68-.27-6.33-.28-8.15.47-.85.35-2.17,3.29-1.34,3.7,2.63,1.28,5.04,1.52,8.15,0,.94-.46,1.34-2.71,1.34-4.17ZM519.67,727.09c-.85-3.54-3.22-6.43-6.69-6.55-1.32-.05-3.5.75-3.92,1.62s.92,3.3,1.99,3.48l8.62,1.44ZM543.74,730.36c-3.95-6.03-10.03-8.07-16.37-7.19-.01,2.49,15.63,11.25,16.37,7.19ZM378.14,728.35c.27-.83-.59-3.71-1.48-3.72-2.07-.03-6.19,1.62-8.57,3.75,1.3,1.84,9.33,2.18,10.04-.03ZM437.14,788.48l10.02-1.14c.26-7.28,1.04-11.95,1.24-18.25l.91-29.3c.09-2.88,2.79-6.83,1.28-9.56-3.34-6.01-14.17-.34-13.17-2.6l-1.3,2.93c-.94,2.12.06,5.19-.3,6.98-1.24,6.14-.73,12.9.27,18.94,1.78,10.71.04,20.64,1.05,31.99ZM478.7,760.37c2.05-7.04-.23-13.73-.94-20.73l-1.15-11.36c-10.31,2.12-13.72-6.38-21.67,1.74-.61,9.83.64,20.46-.64,30.43-1.06,8.23-2.11,18.82-.98,27.46l26.7-.46c-2.16-10.48-4.74-15.33-1.32-27.08ZM249.29,767.08l9.9-9.41c-6.26-2.83-13.23-5.03-18.86-8.32l-10.18-5.95c-3.99-2.33-7.16-5.32-10.7-8.18l-10.1-8.16.85,10.59c.25,3.1.36,8.03,1.21,10.74l3.72,11.95,7.95,1.83,13.12,3.49c3.43.91,10.09,2.35,13.1,1.43ZM300.35,756.25c14.33-2.12,18.53-2.92,31.12-8.98,2.14-1.03,4.69-2.04,6.41-3.38l8.55-6.69c2.97-2.32,5.5-3.82,8.35-7.75-4.85-3.22-13.84,1.65-21.45,3.95-13.88,4.19-8.77.6-25.37,7.46-4.97,2.06-11.15,4.05-12.83,4.86l-19.25,9.23c7.31,5.15,15.76,2.59,24.46,1.3ZM416.21,787.12c4.99,2.07,10.96,2.42,15.6-.73l-.06-56.53c-3.73-1.58-9.73-1.59-13.32.29l-6.71,21.42c-2.23,7.11-4.5,13.81-7.09,20.92-1.79,4.93-6.39,11.07-4.73,12.9,1.94,2.13,11.78,5.16,16.31,1.72ZM402.33,763.09l10.02-30.56c-1.61-1.01-4.92-1.66-6.36-1.19-4.19,1.37-2.74,9.42-3.43,17.29-.42,4.79-3.87,9.37-.23,14.45ZM642.87,760.89c-6.19-6.19-12.53-7.74-18.75-11.59l-8.25-3.84c-6.93-3.22-13.58-6.02-20.91-8.05l-17.98-4.98c-4.18-1.16-9.81-2.41-12.24,2.48,4.16,8.02,12.92,11.49,20.08,15.89,3.49,2.14,6.73,4.09,10.68,5.26l12.38,3.7c10.96,3.28,22.78,2.53,35,1.13ZM547.69,776.37c-4.06-6.21-7.78-11.17-11.05-17.4l-13.55-25.85-13.77-1.47c-.1,3.44.2,8.63-.34,12.12-2.8,18.28,7.52,25.67,18.89,37.02,6.99,6.98,14.11.25,19.82-4.41ZM685.06,807.86c13.66-.34,17.01.89,28.59-2.68l13.73-4.23c3.31-1.02,7.61-2.23,10.4-3.54l9.45-4.45c2.07-.98,4.74-2.24,6.47-3.44l8.59-5.94,7.99-4.93c-.59.36,16.75-14.1,15.14-12.37l10.5-11.31c-4.97-6.72-1.21-11.54-10.12-23.69-2.05.62-4.68,1.7-6.55,2.57l-10.86,5.06c-2.76,1.29-6.05,2.16-11.45,4.58l-9.73,4.37c-3.25,1.46-7.51,2.64-11.06,3.87l-13.43,4.66-6.66,2.36c-2.16.76-4.26,1.5-6.4,2.06l-7.7,2.04-25.04,7.06c-2.42.68-6.34.79-5.92,4.97.3,3.02,3.82,6.4,5.24,9.13l7.78,14.96,1.05,8.91ZM217.08,798.68c.08-10.59-1.79-7.27-4.7-21.25-.88-4.23-1.84-10.16-5.01-12.96-10.97-2.95-21.05-5.53-31.52-9.55l-7.63-2.93c-3.34-1.28-6.64-1.82-10.12-3.28l-13.37-5.62c-10.76-4.52-10.31-2.6-18.31-8.39-4.56-3.3-10.55,10.96-9.63,12.55,3.15,5.49,8.36,7.48,12.31,11.39l8.37,8.29,25.59,16.48c3.14,2.02,7.49,3.15,10.8,4.49l8.51,3.46c4.84,1.97,9.81,3.07,14.87,4.4,6.86,1.81,10.5,3.74,19.85,2.92ZM564.57,754.98c-1.19-3.67-5.85-6.68-8.14-9.55-4.04-5.07-8.38-5.87-14.16-7.72l-6.42-2.06c-1.49-.48-3.31-.8-4.35-.87s-.51,3.84.23,4.78c6.37,8.07,6.36,11.52,12.88,21.4l7.71,11.68c3.64,2.92,13.88-12.63,12.25-17.67ZM354.27,769.44c3.08-.95,13.94-17.57,15.68-22.93,1.82-2.09,4.33-6.02,4.71-8.35.12-.71-2.75-1.13-3.45-.92l-7.62,2.35c-2.84.88-4.41,1.85-7.63,1.64-2.31,2.11-4.67,4.9-6.76,7.79-1.77,1.33-5.09,4.65-4.5,6.74,1.37,4.86,6.49,14.64,9.58,13.68ZM373.16,764.73c10.46-9.94,7.24-17.33,4.24-17.99-2.37-.52-3.87,7.76-10.43,15.87l-7.05,8.72c-.57.71-.27,3,.11,3.78,1.65,3.39,9.33-6.76,13.14-10.38ZM647.91,764.89l-9.38,2.12c-5.36,1.21-12.88,1.29-18.4.24l-10.14-1.93c-2.38-.45-5.09-1.06-7.27-1.62l-6.51-1.66c-6.87-1.75-18.78-9.02-25.68-13.78-5.82,5.41,14.16,16.72,20.58,24.09,4.68,5.38,10.06,7.46,17.03,5.46,3.13-.9,7.43-.97,10.82-1.58l11.9-2.16,10.93-2,12.3-2.26c.19-.3-.61-2.93-1.32-3.87-.61-.81-3.61-1.32-4.86-1.04ZM275.07,772.87c4.2.77,17.14,2.83,18.75,3.21,5.65,1.34,10.27,2.61,15.69-.86l6.59-4.22c8.68-5.56,2.83-3.24,13.45-10.82,3.34-2.38,6.32-5.71,8.98-9.71l-16.44,6.94c-9.13,3.86-21.86,3.71-28.33,5.76-2.33.74-7.3.85-9.54.18-5.69-1.71-17.69-3.3-20.83-.63l-6.6,5.62c3.37,1.18,6.22,2.32,9.77,2.97l8.51,1.56ZM236.4,850.47c1.64-2.91-.8-5.58-2.13-7.84l-5.76-9.84c-1.97-3.37-4.03-8.72-4.66-12.35l-1.57-9.01c-.49-2.82-2.49-6.54-4.98-6.68-27.02-1.49-62.95-16.59-82.15-33.36l-12.22-10.67-7.51-6.17-1.82,5.7c-1.5,3.7-2.23,7.33.21,10.78-.34,15.3,9.45,30.66,20.18,40.84l9.13,8.65c1.77,1.68,4.66,3.7,6.65,5.07l13.36,9.22c2.46,1.7,10.97,5.87,13.9,6.88,3.43,1.18,7.32,3.96,10.73,4.71l14.35,3.15c12.05,2.64,21.3.98,34.29.93ZM805.45,754.73c-5.95.13-6.74,6.73-4.6,11.4,2.41-3.7,3.62-6.53,4.6-11.4ZM340,781.89c3.94,1.19,11.51-3.16,8.97-7.13-2.83-4.43-6.08-8.35-7.94-13.47-.29-.8-1.81-2.89-2.43-2.35-7.35,6.3-1.9,3.31-12.24,11l-8.32,6.19c1.07,7.54,11.06,2.48,21.96,5.77ZM663.93,768.35c2.16-.18,5.42-4.63,3.95-6.38s-7.1-1-8.24,1.31c-.75,1.51,2.61,5.21,4.3,5.07ZM590.38,780.01c-3.01-4.7-6.02-6.97-10.25-9.77-2.63-1.74-8.84-9.71-10.54-7.52-.6.78-1.59,2.17-2.42,3.37l-6.05,8.79c-1,.78-3.41,1.62-4.09,2.6s.09,4.82,1.32,4.98c16.08,2.01,12.19-1.56,20.41-1.93l11.62-.52ZM662.28,853.61c-.61.68-1.43,2.84-.76,3.06.5.16,2.11.57,2.7.66l11.91,1.73,17.24-.17c1.63-.39,4.96-1.95,6.62-2.21l8.85-1.4,17.85-9.55c3.93-2.1,8.03-4.43,11.66-6.77l12.28-7.94c5.44-3.51,20.24-19.85,25.59-25.91l4.75-5.39c4.88-5.53,15.79-25.18,12.74-33.92-2.56,1.95-4.82,3.66-7.01,5.62l-7.12,6.34c-6.92,6.17-14.48,10.72-22.61,15.25-13.15,7.32-12.49,5.79-25.78,11.86-3.62,1.65-8.38,3.63-12.13,4.43l-8.31,1.77c-2.74.58-7.72.26-10.47.32-.66.38-2.68,2.23-3.5,2.23l-11.44.11c-.51,3.85-.9,6.72-2.17,10.12-6.88,18.43-6.41,13.63-20.89,29.78ZM238.93,775.85c.7-.7,1.78-3.04,1.13-3.7-.48-.49-2.33-.27-3.1-.47l-17.22-4.59c-.92-.25-3.4-.62-3.46.25-.05.65.04,2.47.17,3.16l1.44,7.79,2.97,10.79c2.23,8.11,1,9.18,3.5,10.38,2.31,1.11,3.85-12.89,14.57-23.61ZM295.27,782.53l-7.9-2.5c-2.78-.88-7.98.03-11.09-.66l-6.9-1.53-8.27-1.83-9.74-2.31c-6.25,3.73-20.13,17.96-20.28,25.83,6.53,1.33,21.59-1.76,27.92-3.28l8.17-1.97c8.51-2.05,21.2-7.31,28.09-11.75ZM633.41,797.86l10.64,4.07c.73.28,16.04,4.42,14.55,2.14l2.34-8.36c1.63-5.82,6.01-18.47-.42-21.69-2.81,0-7.75.02-10.06.97-14.22,5.84-18.22.04-23.11,4.93-2.62.4-6.46.59-9.14,1.16l-10.43,2.22,6.5,5.12c4.9,3.86,12.64,6.96,19.12,9.44ZM261.5,844.67c8.24-2.52,15.59-5.45,22.22-10.36,8.88-6.58,1,1.91,12.64-7.11l7.58-5.87c1.41-1.09,4.6-2.62,5.8-3.73,3.9-3.63,7.64-7.29,11.64-10.53,6.4-5.2,13.74-12.22,18.11-19.26-.38-1.04-3.2-1.95-4.54-1.76-5.06.7-9.17-.37-13.98-1-4.13-.54-8.21-.99-12-2.27-11.32,4.45-8.52,4.81-21.82,9.54-3.18,1.13-7.17,4.17-10.32,4.95l-7.21,1.81-8.7,2.15-8.23,2.01-6.43,1.57c-3.68-1.67-7.48-.08-11.46.53l-5.47.84c-6.48,1,11.26,40,18.45,42.69l13.73-4.19ZM681,806.49c-2.1-5.26-2.86-9.83-5.21-13.66l-5.02-8.21c-.4-.66-1.78-2.11-1.95-1.45l-.72,2.67-4.7,16.28c-.23.8-.78,3.27-.04,3.56l3.3,1.28c4.65,1.81,9.78,2.52,14.33-.47ZM641.07,851.37c2.2-3.9,3.44-6.99,4.89-10.64l5.46-13.83c1.5-3.8,4.73-14.41,3.48-16.75-.42-.78-2.91-1.03-3.99-1.32-26.24-7.05-29.42-9.69-51.98-24.1-3.38-2.16-12.79,2.12-23.57,2.22-3.79.04-9-1.41-10.27,3.53,5.19,7.73,25.54,28.07,32.42,33.69l9.38,7.66c10.05,8.21,21.52,13.77,34.18,19.53ZM611.73,877.79c8.86-3.47,4.34-2.13,11.79-5.04,10.28-4.02,9.78-5.84,14.37-13.02.59-.93,1.03-3.29.99-4.27.05.98-16.35-7.29-18.39-8.46l-8.42-4.82c-3.07-1.76-6.43-4.11-9.25-6.34l-10.03-7.92c-2.14-1.69-3.79-3.36-5.68-5.34l-17.1-17.91c-3.31-3.47-6.61-7.68-9.43-11.25-3.56-4.5-4.88-5.85-11-5.44-18.71,1.27-8.46,11.85-27.42,6.23l-9.61,2.08c.12,4.2,2.08,9.12,4.17,13.51,3.34,7.03,6.19,13.95,8.85,21.34,1.37,3.81,3.26,7.02,5.16,10.62l5.88,11.13,8.19,13.93c5.01,8.51,14.81,22.35,24.27,25.96,2.69-2.82,6.4-2.54,9.52-3.51l13.99-4.36c2.44-.76,5.54-1.8,7.99-2.76l11.15-4.37ZM346.19,869.75c4.72-5.8,9.21-11.24,13.37-17.67,1.34-2.07,4.51-4.76,5.48-6.78,2.49-5.18,4.87-9.42,7.46-14.28l9.62-18.02c1.96-3.67,7.44-13.41,7.25-18.3l-8.36-.11c-6.07,4.92-12.36,7.4-19.66,9.7l-6.95,2.19c-2.78.88-7.04,1.41-9.72.8-3-6.59.86-11.4,3.3-18.29-8.45,5.74-12.91,13.98-19.21,19.68l-9.83,8.89-6.27,4.8c-16.49,12.65-25.36,16.83-44.03,25.81.55-.26-14.44,2.9-14.5,5.79l20.11,12.44c3.12,1.93,16.97,8.56,19.41,9.49l22.4,8.44c3.2,1.21,8.35,2.96,11.3,3.37,13.35-13.86,5.28-1.31,18.82-17.95ZM431.76,795.01l-9.1-3.06-16.15.66c.33,2.47,26.2,6.57,25.25,2.4ZM489.18,795.2l11.79-2.37-46.85.6c-.59.5-1.23,2.74-1.09,3.7s2.7,1.58,3.81,1.5l20.26-1.36c3.68-.25,7.92-1.23,12.08-2.07ZM447.62,794.5c-3.22-1.32-8.04-1.24-10.98-.19.94,3.64,3.43,4.53,5.78,4.44,2.51-.1,5.81-.69,5.2-4.24ZM406.43,900.53c7.34.43,14.26.71,21.62.23l6.93,1.81-.99-18.05-.4-7.83-.34-8.05-.76-46.73c-.01-.83-1.1-18.29-1.66-18.48s-1.82-.41-2.85-.59l-8.25-1.38c-3.5-.59-6.73-.94-10.02-1.82l-6.05-1.6c-2.5-.66-7.28-.42-9.33.57-2.31,6.99-5.09,12.72-8.33,18.73l-3.31,6.15-16.41,29.15c-1.34,2.38-2.8,4.55-4.43,6.63l-7.56,9.65c-6.33,8.08-10.38,12.95-18.95,19.26-.75,1.17,2.17,3.01,3.67,3.28l10.01,1.82,18.78,3.21,7.23,1.13c2.57.4,4.93,1.35,7.43,1.5l23.99,1.39ZM452.41,902.64l40.62-1.09c2.27-.06,4.93-1.19,7.18-1.29l26.66-1.19,12.07-2.08c4.13-.71,7.42-1.31,12.27-1.44l7.15-2.78-7.91-8.63c-4.51-4.92-8.75-10.8-11.79-16.72-5.2-10.11-11.57-19.06-15.85-29.46l-8.82-21.42-5.89-15.05c-.53-1.35-2.43-3.6-3.72-3.78-1.11-.16-3.54,1.32-4.83,1.52l-14.61,2.26c-6.84,1.06-13.93,1.11-20.66,1.46-2.86.15-5.06-.03-7.71,1.12l-5.41.87.13,24.6-1.43,5.57-.43,28.85-1.47,4.97c-1.3,4.38.19,11.69-.55,16.47-.58,3.78-3.44,13.03.33,16.19.76.64,2.9,1.09,4.7,1.04ZM443.41,871.08l.9-21.33c.12-2.82,1.49-6.11,1.53-8.98.1-6.09-.23-12,.65-17.58.42-2.67,1.06-4.28-.13-6.71l.91-4.42-1.51-7.87c-.45-2.16-6.11-1.52-8.89-1.05l.27,14.6c.05,2.68.02,5.13.01,7.9l-.1,34.85c1.47,2.68,1.84,5.12,1.83,8.22l-.07,28.73c0,.85,1.37,2.83,1.91,2.48s1.5-1.64,1.49-2.28c-.12-8.49.82-17.77,1.19-26.57ZM654.71,854.16l5.1-5.52c2.54-2.74,4.95-5.17,8.01-7.06l4.62-7.18c3.62-5.63,7.22-11.56,6.23-18.81-.36-2.65-5.85-3.92-8.16-3.68l-9.36.97-2.22,6.11-4.49,13.51c-1.06,3.18-2.34,7.31-3.77,10.01-2.02,3.81-4.24,6.65-3.77,11.07l7.81.57ZM247.18,866.28l-4.29-7.15c-1.97-3.28-3.56-3.22-7.39-2.75-7.46.9-19.12,1.17-26.12.74-.6-.04-2.56-1.65-3.07-1.96.8.49-5.53,1.64,9.76,6.28,5.97,1.81,11.17,3.49,16.92,6.14,2.25,1.03,5.61,2.24,7.85,2.74l10.12,2.25-3.78-6.28ZM293.64,884.98c2.41.59,4.24,1.34,7.38,1.08-3.49-3.63-7.89-4.31-12.36-6.27-7.26-3.19-14.47-6.91-21.29-10.77-2.76-1.56-4.31-4.82-8.38-4.31l-5.15-5.24c-6.96,4.4,6.81,15.93,9.64,17.53,2.01,1.13,6.44,2.65,8.72,3.11l9.26,1.89,12.18,2.98ZM660.82,873.52l13.33-4.82,13.23-4.53-21.75-1.33c-3.61-.22-9.57-2.68-13.01-.67l-16.05,9.37-2.86,7.78c4.73,1.65,9.9-1.56,14.48-2.65,4.24-1.02,8.44-1.63,12.63-3.15ZM652.73,885.62l8.86-3.17c3.37-1.21,6.47-2.59,9.61-4.13l12.98-6.35c-11.88.48-21.08,6.9-32.09,9.47l-16.19,3.78c-6.95,1.62-13.71,3.78-16.33,10.97l15.34-4.42c6-1.73,11.48-3.89,17.81-6.16ZM256.48,885.69l2.82.94c-1.21-.4,7.58-1.53-7.94-6.82l-13.9-4.73c-.61-.21-2.25-.45-2.31.19-.04.43.13,2.31.54,2.46l10.55,3.72c3.74,1.32,6.43,2.99,10.24,4.25ZM626.91,877.27l-17.75,7.4c4.13,1.78,19.23-.28,17.75-7.4ZM297.67,891.17l-6.18-1.22-9.49-1.9-7.73-1.47c-.18,4.87,4.23,4.44,6.98,5.94,5.92,3.22,11.73,4.64,18.65,4.34,3.52-.15,6.25.16,9.25-2.69-3.77-1.64-7.02-2.13-11.47-3.01ZM614.26,892.24c-4.06-1.14-8.51-.54-12.54.61l-8.15,2.3-8.43.8-9.14,2.5c10.3,6.89,30.33,4.85,38.27-6.2ZM433.33,917.09c2.36-.44,4.17-3.95,3.37-5.59-2.55-5.27-4.59-.82-18.48-4.14-4.58-1.09-10.49,1.07-14.97-.27-11.27-3.37-7.04-.23-23.44-2.87l-11.1-1.79-13.42-.68-11.43-1.51c-13.67-1.81-21.69-7.34-29.33,1.57l5.64,1.43,8.9,2.08,8.23,1.85c2.57.58,6.15,1.8,8.47,2.07l11.15,1.27,10.16,1.52,12.1,1.99c3.56.58,8.07.47,11.47.69,1.27.76,3.44,1.72,5.03,1.71l17.2-.17c5.83-.06,6.96,3.35,20.45.85ZM465.98,918.27c4.65.34,7.87-.98,12.06-1.14l29.63-1.14c2.57-.1,4.9-.94,7.45-1.08,4.19-.24,9.7.23,13.49-.88,4.1-1.2,6.82-2.39,11.18-2.07,3.75.28,8.06-1.14,11.38-1.34,4.69-.27,8.06-.87,12.29-1.94,3.8-.96,7.43-1.38,12.2-2.96-4.9-6.25-11.56-7.81-19.16-4.97-3.14,1.17-8.42.36-11.89.89-11.61,1.8-13.48.98-23.04,3.46-4.65,1.21-10.58.19-15.66.89-2.39.33-5.51,1.47-7.98,1.51l-50.27.82c-3.55.06-5.13,7.52-2.76,9.41,2.65,2.12,6.41.11,9.24.13,3.86.03,7.75.12,11.83.42Z"></path>
  </g>
</svg>