<?xml version="1.0" encoding="UTF-8"?>
<svg id="Layer_2" data-name="Layer 2" xmlns="http://www.w3.org/2000/svg" viewBox="0 0 3774.49 3862.34">
  <g id="Layer_1-2" data-name="Layer 1">
    <path d="M3774.49,12.09v11.66c-53.14-21.72-123.36-16.81-163.6,29.41-21.13,24.27-12.98,63.25-9.75,92.88,1.36,12.49-4.98,18.2-9.74,25.96-16.13,26.31,15.07,55.92,30.6,71.52,6.82,18.58,12.45,34.06,20.34,52.51,17.83,41.67-33.96,69.28-61.18,88.04-83.73,57.69-140.88,36.86-164.96,95-65.55,158.27-7.33,195.79-21.78,340.54-3.64,36.44-9.8,69.48-16.35,105.98-20.63,115,34.65,275.46-7.87,393.33,7.88,45.56,26.8,90.96,41.98,135.26,17.18.96,21.42-18.79,17.18-35.44-1.74-6.82-3.8-18.16-4.06-23.87-.25-5.39,11.78-12.14,16.3-16.88l19.13-114.24c-23.07-49.26-25.11-99.27-5.01-151.71,62.3-162.54,20.35-148.55,36.17-224.16,20.56-98.27.1-115.69,24.23-180.84,22.22,74.13,17.15,115.42,27.47,197.62,4.4,35.07-4.09,70.66-10.97,105.35l-19.37,97.8c-13.34,67.35-1.93,266.05,17.56,337.5l51.01,186.95c6.2,22.72,3.57,43.53.96,67-25.83,232.3,76.03,381.29,73.28,475.44-.75,25.51,5.28,55.79-4.39,76.13l-38.01,79.92c-1.79,3.77-.24,13.75,1.49,16.89,2.16,3.93,11.84,3.24,18.17,2.96l68.33-2.98c8.8-.38,31.15,4.22,35.37-3.5,16.53-30.25-.32-66.22,3.9-95.48,4.14-28.72,1.99-49.26-2.42-78.18-23.28-152.95,33.46-259.92-8.31-381.35-43.31-125.93,7.92-255.62,2.19-295.91l-23.95-168.28c-30.21-212.25,37.66-343.91,30.32-422.91l-13.65-146.82-17.52,143.56c-7.93,64.93.32,124.18-28.43,186.41-14.88,32.2-32.16,76.8-21.45,110.52l19.36,60.93-17.97,121.2-14.75,14.36c-7.37,7.18,13.61,34.05-4.31,59.62-4.63,6.61-21.3,10.85-31.4,7.26-14.03-44.64-35.52-95.07-44.94-140.51,6.44-43.24,21.1-86.26,17.63-132.08l-8.39-110.94c-16.02-211.87,2.73-120.87,13.93-262.93,14.44-183.12-41.83-179.09,20.23-350.75,26.27-72.65,98.13-54.24,167.41-104.98v14.85c-61.28,41.44-132.27,29.38-156.4,94.05-63.93,171.38-1.36,187.27-21.14,361.67-3.1,27.29-8.79,51.52-13.94,78.77-23.45,124.02,36.12,286.57-10.36,409.43l45.38,136.63c20.95-7.61,20.53-30.12,14.51-41.05-12.68-23,10.61-28.47,12.89-40.18l22.24-114.35c-65.04-129.32,44.72-190.35,28.16-335.46-5.93-51.93,12.34-65.73,14.17-153.78.53-25.66-.89-49.11,10.74-76.96,21.02,56.11,21.45,110.11,24.02,167.9.87,19.5,10.33,44.77,7.41,64.1-8.69,57.63-19.21,111.02-31.56,167.83-11.16,51.31-6.81,102.27-5.34,154.57,3.29,117.27,21.13,219.5,59.22,325.75v158.83c-20.37-46.76-23.17-99.97-20.09-154.02,1.03-18.16-1.33-35.39-10.33-50.5-27.43,115.44-31.98,188.8,8.05,298.04l22.37-88.39v56.36c-18.93,64.71-22.94,135.93,0,199.81v51.23l-20.75-65.59c-9.83,51.99-20.65,175.35,5.24,223.15,6.06-25.41,11.95-47.43,15.51-70.46v128.09c-9.57,8.96-32.11,93.44,0,93.19v11.7l-24.34-7.71c-15.72,5.48-33.68,6.07-52.2,6.26l-75.72.78c-18.61.19-37.74-3.43-56.32-5.58-28.76-3.33-54.92,2.53-97.63,3.21l-67.39,1.07c-14.86.24-37.52-5.26-49.25-4.04l-50.44,5.24c-12.92,1.34-29.68,7.3-43.58,6.74l-77.85-3.11-39.64-1.72c-13.09-.57-29.93,12.6-40.53,13.4-61.84,4.65-113.82-3.36-143.72.11l-18.4,2.13c-14.59,1.69,33.41,23.48-111.56,14.11-7.06-.46-55.28-14.38-70.52,21.18l-103.17-1c-9.36-.09-21.67-4.51-31.37-2.41-15.54,3.36-22.95,14.06-29.49,28.24l-99.5-.44c-15.7-.07-40.08-12.31-50.74,9.76-2.37,4.91-3.99,18.78-9.24,18.69l-21.07-.37c-27.4-.48-54.9,1.49-81.15-1.13-12.47-1.24-22.37-3.98-32.17.52-8.66,3.98-10.5,17.6-12.93,33.15l-107.69-2.26c-13.23-.28-31.14-5.1-34.29,11.95-1.58,8.56-3.45,17.18-5.6,22.68-1.79,4.59-18.07,2.36-23.44,2.33l-77.76-.37c-6.64-.03-17.84-7.68-22.7-4.37-30.25,20.55,9.76,43.35-37.2,42.6l-81.35-1.29c-5.49-.09-20.05-5.7-23.83-1.85-3.77,3.85-4.84,13.4-4.13,22.42.81,10.19-6.74,22.34-17.22,22.12l-88.16-1.83c-5.6-.12-16.05-3.83-19.92-1.17-9.9,6.8,2.61,46.78-15.85,46.37l-86.35-1.91-24.67-.55c-.1,18.69-.97,37.38-5.59,47.07l-51.07.37c-20.22.14-41.34-.74-62.92-3.35l-1.26,50.35-98.67,1c-4.19-1.72-12.3-5.84-12.31-2.62l-.04,12.9c-.04,13.49-1.24,27.43-4.71,40.41l-105.59-3.84c1.96,19.58,2.35,34.72,1.01,54.33l-104.51-.87c3.75,15.63,7.14,38.33,1.45,49.62-3.8,7.53-26.54,2.81-34.62,3.03l-63.36,1.74c4.69,16.41,6.98,39.5-3.29,52.69l-86.61,2.29c.29,15.82.57,34.03-.1,45.43-.95,16.11-63.94.8-88.68,9.29,2.62,20.63,3.54,37.12-.38,53.22l-81.37,1.56.6,53.06-79.93,3.06c2.75,23.19,4.04,38,1.72,53.59l-74.28,2.31,1.8,54.38-70.87.63.23,53.76-67.87.43c2.34,21.06,3.62,37.93,2.5,54.83l-62.85.82,3.62,34.04c3.75,35.26-38.21,9.37-61.33,20.36,2.55,20.9,3.8,34.56,3.19,50.55l-54.93,2.31,2.92,48.84-54.18,2.3c2.49,18.19,4.27,33.17,2.25,46.38l-47.1,2.78,1.45,45.63-42.74,1.8-.77,43.39-37.6,2.87-.53,39.88-35.66,4.05c.5,10.5,1.77,29.05-2.38,35.19-3.45,5.11-21.47,4.67-28.38,4.63l-2.38,34.68-28.95,5.54c.66,8.97,2.64,29.07-3.06,30.02l-21.59,3.57-2.97,25.02c-.6,5.09-15.4,5.34-20.21,7.11l-1.52,19.29c-.29,3.7-15.29,8.15-13.99,6.03l-1.36-38.46,28.84-2.89c-.52-16.25-14.24-15.43-25.33-21.39-9.93-5.34-8.65-37.12.55-42.2,7.03-3.41,16.01-12.18,17.58-18.05,3.71-13.87-73.04-16.99-13.76-20.19l36.33-1.97c7.2-.39,9.81-25.59,4.85-24.97l-39.77-7.5-9.13,13.16-.26-125.12c12.52,29.26,16.32,58.83,15.83,88.22,50.76-72.84-10.81-136.32-15.37-219.88-2.75-50.42-1.21-97.53-.56-149.21l12.33,43.22c-9.88,72.84.11,140.74,25.62,209.36,7.57,20.36,9.49,44.02,10.99,65.99.63,6.96.82,9.14.37,4.14,32.43-25.68,23.01-88.99,11.86-117.17-28.23-71.3-31.36-140.17-29.63-215.37,1.03-44.8-52.44-144.4-26.41-218.34,9.05-25.71-5-48.88-4.16-72.92,1.46-41.89,8.47-81.18,2.6-123.82-4.72-34.29-9.18-70.71-1.32-103.65,13.81-57.88,9.87-111.3-2.21-170.8,12.53-67.18,3.27-41.88,39.86-93.48,1.05-25.1,3.48-44.34,25.21-57.55,31.48-19.13-9.06-64.16,45-83.18,26.37-9.28-11.47-64.92,44.73-83.89,28.37-9.58-13.64-70.03,50.51-86.78,29.23-7.63-22.53-70.61,61.75-90.81,1.08-62.43,1.36-66.28,55.63-90.92,1.74-16.31,3.05-33.62,6.09-48.6,4.93-24.32,34.04-33.41,54.98-40.18,2.27-17.56,3.1-38.44,8.25-55.12,7.02-22.72,37.88-28.99,57.14-37.85,2.08-20.1,1.05-45.13,11.65-61.7,10.94-17.1,39.96-21.86,56.02-29.94,4.31-19.92-.21-49.02,16.9-65.03,14.26-13.34,37.48-19,57.29-27.19,3.04-14.6,2.68-40.59,10.27-53.49,14.52-24.69,44.35-30.16,69.2-36.7,2.03-18.11,1.74-42.99,11.19-56.77,15.86-23.1,46.24-27.9,69.91-35.34,2.52-18.39,5.16-40.68,12.75-54.75,15.68-29.06,52.26-27.52,76.57-37.74,3.47-24.36,1.59-57.14,28.9-69.87,18.52-8.63,41.07-14.87,62.62-20.48,2.26-15.26,4.51-41.19,14.11-54.3,20.03-27.37,52.94-31.35,85.35-34,1.24-16.85,2.05-42.16,13.29-54.87,23.42-26.48,57.25-29.98,89.07-34.39,1.88-13.63,3.42-37.67,9.77-46.71,22.95-32.66,62.37-37.07,97.96-40.11,1.95-20.28,4.6-45.18,20.26-57.59,26.29-20.84,60.7-25.45,92.4-28.13,2.94-69.76,61.95-80.73,118.71-83.81,7.31-74.36,67.86-76.48,125.41-82.44,4.88-65.68,76.76-81.41,130.28-75.76,3.47-67.52,83.77-81.06,135.67-78.21,6.25-64.96,93.03-81.9,143.4-71.1,7.84-63.24,94.19-82.59,146.71-69.97,16.54-66.11,99.54-78.38,156.77-65.17,12.09-66.41,106.83-77.04,161.33-62.12,14.84-64.2,113.25-78.16,166.59-58.49,22.09-64.4,118.67-77.87,173.55-54.85,24.98-63.25,124.09-74.63,180.13-50.04,37.6-62.15,126.16-74.58,187.96-43.93,40.62-61.25,132.43-74.31,194.53-38.98,41.47-62.49,143.55-72.07,202.5-34.18,35.65-55.91,132.26-67.83,181.79-43.32ZM3539.62,2272.29l.65-64.68c.41-40.36-14.06-78.56-10.9-119.53l14.62-189.6c6.22-80.69-50.78-142.53-30.61-271.62l19.19-122.77c-21.27-87.11-33.81-171.08-33.99-261.35-.02-9.78-3.6-26.06-3.13-34.24,1.83-31.73,2.24-62,5.72-93.72,7.17-65.28,34.49-128.03,31.58-194.91-1.86-42.85-12.85-91.04-8.37-132.3l-9.12-11.51c-1.3,37.32-1.62,69.49-10.96,103.93-20.98,77.31,24.63,70.88-36.15,228.91-19.82,51.54-24.25,100.63,5.26,149.75l-15.1,71.83c-3,14.27,1.79,42.69-6.03,52.83-34.36,30,8.26,39.26-19.91,75.33-4.63,5.93-25.01,10.57-28.03,3.48l-46.62-133.61c15.81-54.18,20.77-109.93,16.46-167.37l-12.68-169.02c-3.44-45.86,8.65-85.41,17.34-129.37,3.84-19.45,4.75-44.7,6.32-65.78,9.66-129.41-44.59-141.2,16.57-315.73,10.85-30.96,35.01-49.51,65.3-59.43,76.93-25.21,54.55-14.67,126.15-61.82l.91-48.74c.34-18.46,18.4-46.39,8.1-64.54-17.38-30.65-42.42-59.01-16.06-98.33l.83-78.89c-49.68-40.02-134.03-33.97-177.41,17.21-26.26,30.98-4.09,103.34-8.77,106.36l-12.56,8.11c-6.92,26.23,11.44,55.44,34.15,69.17,3.24,10.43,7.03,29.29,12.6,38.27,17.19,27.67,10.6,60.98-19.31,78.72-28.28,16.77-55.59,37.95-85.85,51.54-40.06,18-92.51,19.62-110.39,62.83-20.23,48.88-36.86,102.49-31.66,157.46,7.99,84.32,18.97,168.26-1.17,250.88-12.4,50.89-14.18,100.67-8.17,153.26,7.39,64.68,19.34,214.95-7.66,272.17l44.73,131.5c20.91-8.63,19.05-30.62,12.19-45.02-8.97-18.83,12.9-25.56,14.62-35.18l19.8-110.35c-21.75-47.6-28.16-101.66-4.17-152.11,31.04-65.26,32.65-128.7,34.04-199.22.94-47.68,17.71-94.17,12.96-144-1.6-16.75,2.51-36.56,11.78-52.41,15.77,51.9,14.54,101.2,21.18,153.72l7.29,57.7c8.22,65.09-23.67,126.53-32.07,191.43-9.17,70.84-2.44,141.74,1.27,213.83,3.14,60.96,18.12,118.33,34.06,176.17l36.78,133.47c6.87,24.91-39.78,151.2,44.08,400.25,12.62,37.49,26.26,75.31,25.98,114.8-1.13,156.42-23.39,61.41-42.9,176.13l90.67-.5c10.88-.06,34.29,5.56,35.66-10.47,1.91-22.34.67-41.55.89-62.92ZM3339.29,2343.18c14.46-29.85-.1-63.55,3.22-90.47,3.52-28.56,1.97-48.51-2.59-77.95-23.74-153.09,38.49-237.22-16.17-398.87-26.28-77.72,6.12-180.98,9.41-255.67-8.28-50.39-23.22-95.95-27.06-146.56-6.25-82.48-11.95-164.64-3.77-247.58,4.84-49.1,40.04-159.73,31.95-200.17-7.53-37.6-11.21-70.05-9.66-109.32.26-6.58-4.16-16.87-7.97-20.01-.99,45.9-8.45,84.64-13.62,128.99-4.93,42.19,4.29,85.41-9.01,126.53l-33.72,104.3c-11.88,36.75-8.14,70.96,9.77,105.51,3.75,7.23,1.33,24.31-.44,34.34l-17.11,96.91c-1.84,10.42-19.45,23.9-10.37,40.05,4.44,7.89-1.11,27.55-6.2,33.9-4.91,6.12-20.01,11.49-29.74,6.72l-46.61-138.35c20.8-55.45,19.87-114.33,15.9-174.59l-11.16-169.25c-3.12-47.39,36.1-146.66,19.45-259.59-12.28-83.28-11.63-163.27,27.12-239.45,12.09-23.77,35.12-38.82,61.5-45.94,46.43-12.54,88.04-33.55,124.15-64.44-4.83-53.58,12.1-52.3,12.55-100.61-68.69-87.5-10.34-64.27-23.25-178.58-46.06-41.1-150.65-17-172.19,23.48-28.82,54.16,12.85,106.02-19.46,109.78-7.37,28.94,15.19,50.27,32.65,70.43l20.13,50.16c12.65,31.54-11.58,51.87-34.01,67.71-129.95,91.78-165.95,39.94-197.12,138.21-17.77,56.01-23.82,110.22-14.16,168.35,8.45,50.88,6.74,101.24,3.21,152.69-7.17,104.32-29.33,37.54-13.59,226.36,6.52,78.16,15.35,171.74-9.49,244.56l41.72,125c19.08-2.26,21.98-25.2,14.64-36.91-13.49-21.51,10.92-27.63,12.82-38.59l17.56-101.29c3.82-22.05-40.52-74.76,3.84-174.23,26.42-59.25,26.7-114.89,27-176.68.23-47.89,17.37-95.26,13.06-145.37-1.46-16.98,1.33-35.17,10.89-52.2,8.55,28.66,15.76,55.37,18.01,83.63l10.09,126.89c5.08,63.93-23.44,125.66-32.7,189.21-6.46,44.29-3.1,88.23-1.4,132.57,8.43,220.35,70.03,317.51,71.61,391.74,1.37,64.48-9.22,125.21.23,190.82,11.38,78.99,32.13,153.64,58.27,229.36,15.64,45.31,20.73,143.23.83,173.39-16.01,24.27-27.84,46.08-30.28,75.73l89.23-1.4c7.63-.12,28.5,4.13,32.08-3.27ZM3032.33,2354.41l85.98-1.88,34.45-1c4.58-31.78.38-60.71,1.2-90.16.78-27.85.78-50.75-3.61-80.15-22.32-149.58,34.05-235.05-9.95-369.5-30.02-91.71-8.13-169.68,4.09-262.29.39-26.96-15.92-58.07-20.16-85.96-54.39-358.31,25.3-402.91,14.98-507.88l-12.86-130.84c-2.42,44.08-14.33,86.12-15.55,128.12-1.85,63.53-.92,119.3-28.12,179.83-47.79,106.38,2.91,139.09-2.61,170.64l-18.8,107.4c-1.71,9.77-17.78,26.02-11.02,38.4,4.45,8.16-.25,27.22-5.05,33.12-4.93,6.06-18.14,9.79-31.59,7.95-3.87-44.63-39.76-89.94-38.76-134.35,1.05-46.58,17.44-90.43,13.51-138.95l-12.42-153.32c-8.72-107.65,17.26-121.22,21.01-230.76,4-116.98-36.56-148.03,15.71-296.01,10.81-30.61,35.52-50.73,65.78-58.72,47.38-12.51,89.64-35.35,126.66-65.7-2.46-40.77,20.86-65.51,9.95-97.4-62.44-75.38-20.97-79.38-22.33-121.76l-1.69-52.45c-48.89-27.07-121.62-21.8-160.87,22.52-24.55,27.72-10.65,72.57-8.18,104.78l-14.31,12.3c-3.66,27.56,13.92,47.55,32.96,63.43,3.25,30.59,44.61,73.9,5.2,102.05-28.86,20.62-56.82,44.92-89.97,57.68l-78.87,30.36c-29.11,11.21-39.51,44.77-48.11,73.02-35.76,117.48,2.73,156.52-7,303.15-1.81,27.27-9.09,52.56-13.92,79.45-20.15,112.21,31.73,271.78-10.27,386.5l42.12,124.01c42.55-16.34-11.8-46.22,26.64-74.04l14.9-79.54c3.72-19.85,4.15-36.47-4.65-54.73-35.09-72.79,35.89-172.56,36.26-231.45l.55-86.75c-.29,46.31,18.99-207.35,23.37-186.89,19.04,49.01,19.39,93.57,22.44,142.48,1.56,24.97,11.62,52.54,7.02,77.6l-32.84,178.99c-32.62,177.78,70.86,480.95,69.69,509.6l-5.36,131.65c-4.37,107.38,70.52,287.66,74.9,343.7,2.32,29.72.25,66.76-5.9,94.01-7.07,31.33-39.95,48.9-34.62,89.75ZM2707.59,1343.12c-25.72-48.57-21.79-103.11-.55-150.46,26.85-59.86,27.21-116.2,28.83-179.57,1.22-47.82,17.43-94.24,12.76-144.23-1.36-14.59,2.9-32.02,11.73-44.53,25.87,83.22,13.09,130.52,29.77,208.7,7.8-75.72,12.85-48.89,20.16-128.49,3.94-42.89,5.62-85.11-1.37-128.09-12.43-76.38-6.48-149.54,27.31-219.36,10.44-21.57,31.72-36.05,55.14-42.25,41.19-10.91,75.25-29.29,111.15-51.79,15.81-9.91,19.64-19.17,21.66-39.61,2.01-20.41,18.51-49.59,4.77-68.72-67.03-93.4-19.26-63.65-22.77-128.04l-2.25-41.22c-49.84-23.84-118.35-18.48-155.57,26.29-24.1,28.98-1.27,101.75-10.48,105.08l-9.97,3.61c-6,27.55,12.63,52.99,33.87,68.7,2,9.4,5.27,26.75,10.04,33.71,14.42,21.01,14.58,52.99-10.28,69.25l-73.89,48.33c-35.33,23.11-105.66,20.18-123.94,74.7-12.57,37.49-31.53,79.41-28.1,119.77l12.7,149.29c5.62,66.01-27.08,140.85-21.01,225.88l11.66,163.16c3.27,45.78-4.68,89.71-16.7,132.76l41.57,120.75c12.9-2.67,20.41-22.45,15.47-29.12-18.51-25.03,8.09-33.78,10.54-48.4l17.73-106.09ZM2533.5,1375.56c-.65-14.21-35.68-63.52,5.84-156.07,25.54-56.93,22.65-111,25.58-171.92,1.93-40.16,12.52-80.77,11.56-122.18-.5-21.67-.47-41.2,11.51-60.62,25.83,78.54,11.77,101.42,25.96,169.84,11.43-30.89,16.4-60.48,19.89-94.57,14.56-142.17-30.76-160.22,3.78-283.01,9.65-34.3,16.4-77.39,52.67-91.32l81.21-31.17c25.37-9.74,46.79-28.48,69.69-43.08,13.96-56.19,30.78-70.42-9.64-115.59-20.05-22.41-22.7-55.2-5.28-77.46l-2.46-64.57c-50.42-19.91-116.66-12.87-150.2,32.34-19.96,26.91-6.8,67.24-5.52,96.66l-14.13,9.18c-2.81,26.92,12.26,47.8,31.99,63.72,3.79,11.74,9.83,31.19,15.44,41.67,16.38,30.6-.56,53.48-24.75,69.95-40.1,27.31-78.4,49.91-125.72,63.93-19.22,5.69-44.33,19.11-52.59,38.71-61.25,145.32-14.5,172.49-19.98,296.44-4.31,97.54-26.52,112.44-19.88,204.4l11.11,153.98c3.32,45.93-6.35,88.9-15.88,132.57l39.84,120.16c40.87-20.39-15.05-52.34,27.09-72.53,1.37-33.81,14.54-73.34,12.88-109.47ZM3608.35,349.31c13.25-8.16,24.3-20.52,25.53-33.92.99-10.8-7.55-25.78-15.51-41.12-10.32,24.05-18.51,47.6-10.02,75.04ZM2341.81,1556.2c-13.2-22.18,10.3-27.12,11.74-35.79l15.65-93.92c2.18-13.07-4.07-28.71-9.36-42.91-24.94-66.92,38.97-165.47,39.38-212.52l.81-91.7c.2-22.67,8.23-44.58,9.5-66.63,2.03-35.34,1.14-66.71,10.23-103.49,23.69,51.85,18.86,99.63,26.5,153.68,26.69-68.96,23.3-163.79,12.11-237.43-10.01-65.86,3.69-131.81,35.34-190.57,22.98-42.68,87.96-28.41,168.82-94.07,37.56-30.5,24.32-87.02-4.52-118.12-22.73-24.52-17.19-52.83-5.76-77.43l-.18-55.57c-47.04-20-111.71-13.03-144.86,29.99-23.07,29.93.18,99.14-8.31,100.62l-9.48,1.65c-6.96,26.54,8.86,49.46,29.75,66.22,6.43,36.97,46.5,71.79-2.26,104.85-24.78,16.8-50.2,34.81-77.39,48.74-56.73,29.08-99.3,4.97-125.52,114.94-26.34,110.48-.69,96.87.6,212.94,1.14,102.81-26.21,128.78-20.15,215.41l11.23,160.67c3,42.89-2.39,83.66-17.26,124.73l41.22,119.81c15.27-4.95,18.25-23.9,12.18-34.09ZM3409.72,372.33c12.54-3.59,22.99-15.6,23.93-28.65.61-8.5-5.89-21.55-12.38-29.8-10.76,18.39-14.76,36.21-11.55,58.46ZM2197.83,1557.52c2.47-29.4,4.88-53.55,12.01-79.33,14.04-50.75-42.18-46.39,2.63-167.01,51.44-138.46,10.61-112.53,33.9-221.22,9.24-43.11-3.62-84.06,16.09-130.54,15.33,44.8,18.9,82.73,23.19,136.46,13.88-22.99,22.64-136.4,12.84-192.54-12.33-70.63-6.29-139.92,22.81-205.27,11.22-25.19,33.06-40.9,59.65-48,39.55-10.56,73.2-29.91,107.76-51,28.22-17.21,42.18-45.84,28.28-79.49-18.6-45.02-63.09-65.64-31.04-118.09l-1.74-54.51c-46.24-12.73-102.45-8.24-135.88,29.01-25.38,28.28-2.92,97-7.85,100.18l-13.12,8.46c-2.29,23.5,12.05,48.14,31.77,59.57,3.15,31.72,41.96,69.5,3.34,98.64-155.64,117.44-168.63,29.89-205.9,165.93-10.35,37.78-13.55,72.74-7.97,111.69,26.35,184.14-17.02,208.44-11.41,296.68l11.06,173.89c2.61,40.95-7.34,79.55-12.02,119.52,3.11,37.84,24.24,79.91,35.47,118.45,29.99-8,2.85-49.3,11.58-57.63l14.54-13.87ZM3220.7,401.48c21.52-13.68,20.76-32.97,10.9-46.97-11.14,13.67-15.82,32.31-10.9,46.97ZM2203.41,707.06c51.31-7.98,89.82-30.53,130.42-58.81,15.71-10.94,39.35-26.76,30.1-50.66l-16.08-41.56c-68.54-85.05-8.78-66.51-24.75-144.56-35.92-21.23-123.81-2.84-137.44,44.27-5.59,19.34-1.9,54.87-.17,73.65.44,4.77-11.38,15.44-12.16,19.87-2.8,15.78,12.95,46.06,30.76,53.74l6.52,30.32c21.28,23.83,16.84,52.88-7.21,73.74ZM2211.45,675.44c1.59-9.2-3.94-25.96-7.7-34.11l-12.25-26.58c-71.38-88.73,4.26-72.45-26.94-139.08-40.69-11.53-92.07,0-119.19,30.98-22.14,25.28-2.96,62.21-10.19,90.13-5.17,20-18.44,38.74,7.93,59.3,8.58,6.69,14.53,21.32,19.67,34.68,9.37,24.39,19.18,45.53,2.31,69.78,38.09,0,142.98-65.52,146.36-85.1ZM1797.81,882.49c30.79-7.68,124.54-59.35,121.88-83.76-6.61-60.65-61.9-82.67-45.78-125.32,5.65-14.95,12.27-42.36.82-54.06-38.63-7.43-82.75.93-107.15,30.28-28.61,34.42,7.68,87.38-19.09,103.64-6.87,18.52,14.09,41.26,27.29,53.59l10.32,27.06c6.37,16.69,8.88,28.5,11.7,48.58ZM1667.05,948.75c31.11-8.55,60.86-29.04,88.62-49.94,14.14-10.64,35.63-19.84,26.47-42.61-4.89-12.15-12.01-30.06-18.62-41.39-12.43-21.33-36.92-39.81-25.97-67.99,6.05-15.58,8.93-32.3,5.95-51.09-39.8-7.34-80.47.32-107.79,31.98-28.39,32.91,11.57,82.72-18.53,101.83.99,18.89,11.78,36.56,27.71,48.6l9.46,26.13c4.97,13.74,8.01,24.55,12.69,44.49ZM2043.75,1599.56l16.58-98.67c-17.18-40.99-23.12-77.54-7.93-120.08,58.84-164.78,25.49-134.82,33.49-186.06,6.45-41.26,11.99-79.38,13.08-121.34.55-21.15-.62-39.38,10.57-60.48,14.89,43.51,17.72,81.29,22.4,123.58,17.12-71.18,16.3-140.33,5.29-210.59-10.75-68.62,7.45-151.39,44.16-203.97-34.28,20.44-64.51,38.02-100.49,48.4-24.61,7.1-47.49,18.43-58.12,43.08-61.73,143.21,4.07,199.55-23.41,341.9-9.31,48.2-16.48,93.57-11.59,144,6.73,69.45,18.4,195.3-6.29,256.65l38.69,113.4c12.81-1.36,18.05-19.3,13.45-26.64-13.67-21.84,7.92-30.09,10.12-43.21ZM1637.04,958.15c11.65-4.95,20.2-18.31,14.36-30.83-6.25-13.39-12.23-26.71-18.94-38.18-12.75-21.84-36.83-41.82-24.43-71.49,5-11.98,9.4-30.37,3.12-44.1-34.59-4.16-78.68,2.49-100.72,33.56-14.75,20.79-7.84,59.09-4.97,81.5l-11.53,15.45c-3.48,14.67,9.17,39.77,24.67,48.44l24.91,64.89c64.11-20.09,53.63-42.29,93.54-59.24ZM1897.06,1644.82l15.61-86.2c4.12-22.76-38.07-62.01,1.48-150.42,24.75-55.33,20.35-107.33,26.48-166.12l11.55-110.67c2.17-20.77-1.08-38.72,12.43-62.04l20.83,101.42,9.79-97.32c5.9-58.66-37.4-155.49,22.91-279.3-72.67,48.84-130.49,24.06-151.92,108.45-10.42,41.02-21.18,82.06-13.8,125.49,12.44,73.15,12.43,145.64-5.21,217.62-24.35,99.35,32.22,249.71-10.25,356.08l38.34,114.22c13.04-7.95,16.07-23.14,11.79-29.99-12.89-20.63,7.57-27.95,9.97-41.21ZM1529.77,1017.96c-6.26-19.74-13.57-42.4-23.66-56.7-46.19-65.43-14.84-50.28-16.73-106.48-36.12-2.01-72.77,1.36-96.42,29.75-26.96,32.38,4.37,70.77-15.44,96-15.55,19.8,14.17,37.07,20.33,51.27l25.27,58.18c69.74-24.72,26.67-38.87,106.64-72.01ZM2864.84,2081.34c12.51,38.71,26.6,75.57,27.53,113.69,3.44,141.39-28.2,72.49-40.88,171.11l83.15-2.08c8.7-.22,28.58,5.42,32.99-1.56,11.23-31.19,4.35-59.48,1.78-90.65-.83-10.14,6.78-31.28,4.33-41.75-9.86-42.15-12.74-79.91-10.06-121.74l11.82-184.43c3.08-48.12-21.41-92.17-28.59-138.84-10.66-69.33,2.98-135.77,16.92-204.88-25.24-86.16-40.57-170.46-41.94-260.48-.71-46.39-3.47-92.35,1.28-138.11,6.81-65.52,34.39-127.68,31.02-195.1-1.98-39.63-11.22-83.08-7.42-122.49l-8.78-11.03c-.47,42.41-11.84,76.43-12.51,117.75l-1.41,86.49c-1.17,72.2-69.91,155.7-37.59,230.87,8.9,20.69,7.75,39.84,4,62.55l-13.28,80.32c-2.18,13.2-17.31,22.9-9.63,39.48,3.6,7.78-.86,25.61-5.67,32.07-4.51,6.06-18.33,10.62-29.66,9.47l-45.55-135.85c25.61-69.79,17.76-140.69,11.86-215.27l-9.49-120.17-32.06,170.47c-18.09,96.18-9.82,199.57,14.71,294.07l55.74,214.69c-23.1,111.45.99,248.75,37.39,361.38ZM2716.12,2195.65c10.67,148.67-22.46,88.88-39.28,186.12l88.74-.96c8.54-.09,21.78.74,29.33-3.98,3.58-27.79-.17-60.56.8-87.81,1.01-28.45-.46-51.41-4.22-80.41-8.86-68.27-.51-137.96,6.61-207.18,11.99-116.69-39.5-179.92-31.02-251.77l16.17-137.1-31.81-159.45c-16.27-81.54-14.63-165.84-5.85-249.15,6.44-61.13,32.89-118.16,28.67-181.58l-8.24-123.75c-.11-1.58-6.89-11.37-6.92-9.64l-.19,10.45c-.64,36.03-4.76,67.52-11.26,103.22-5.21,28.63,1.92,60.98-1.76,90.44-5.51,44.2-21.44,85.12-35.46,126.98-29.96,89.47,15.33,95.99,6.32,140.27-6.99,34.35-11.73,67.53-16.02,100.37-4.02,4.4-15.56,10.81-14.65,15.67l3.78,20.01c1.42,7.53-1.45,23.28-4.72,30.49s-21.77,11.94-30.96,7.75l-44.44-131.76c32.55-80.4,12.38-204.94,3.29-294.97-10.69,48.42-23.9,94.78-28.64,144.72-6.82,71.82-1.9,221.23,15.22,286.74l53.17,203.4c4.5,17.23-7.8,44.27-8.08,63.15-3.13,211.56,66.67,324.01,71.39,389.74ZM1409.15,1092.47c-7.69-54.46-59.61-81.93-43.78-118.66,4.04-9.37,9.36-30.92,1.2-35.39-30.61-4.3-68.88,6.35-87.7,29.71-18.46,22.92-4.92,54.21-9.97,80.03-2.28,11.66-11.37,26.75-5.02,38.49,3.96,7.32,16.58,18.2,20.39,26.47l22.71,49.32c65.97-15.87,16.93-41.96,102.16-69.97ZM1624.19,1746.95l15.3-88.51c-42.97-98.74,22.08-161.88,25.02-226.29l4.6-100.75,13.25-139.66c14.88,21.06,15.1,38.8,21,61.66,26.83-133.81-35.49-165.68,19.81-314.63-47.2,27.79-104.45,21.21-121.65,73.18-13,39.26-31.13,85.29-23.6,127.78,15.27,86.08,13.35,165.53-7.23,250.18-5.8,23.85-.31,57.84,1.24,82.87l9.61,154.73-11.76,76.97c-5.57,36.43,20.71,73.67,32.97,109.3,8.54-2.64,15.56-17.23,11.89-23.34-11.66-19.38,7.11-29.32,9.55-43.47ZM2482.74,1937.27c9.08,82.09,29.1,156.84,55.18,232.67,11.99,34.86,13.2,66.41,11.58,102.92l-1.92,43.26c-17.61,28.41-31.73,53.41-39.67,86.47l117.81-1.04.8-88.2c.24-27.13-.61-50.8-3.95-78.82-16.57-138.76,30.23-221.08-6.66-342.18-38.83-127.47,1.56-191.12-4.03-243.28-8.21-76.56-37.76-147.78-38.22-227.21-.36-62.18-10.56-121.87-.23-184.04,9.88-59.46,32.9-119.04,28.18-179.35l-9.65-123.39-17.06,113.17-2.27,91.66c-1.99,80.22-73.77,127.61-24.69,241.06l-19.1,110.02c-1.7,9.77-19,21.82-10.02,37.39,3.55,6.15-.93,22.2-4.57,28.18-3.69,6.06-18.8,10.98-29.38,9.66l-44.19-132.12c30.57-78.7,13.63-195.67,4.04-273.19l-28.1,138.44c-6.53,32.16-.88,68.45-.26,100.99,4.05,212.14,67.18,311.34,68.01,376.01.69,53.3-7.97,103.53-1.62,160.93ZM2380.19,2210.07c9.78,30.6,8.67,61.17,7.97,92.2-1.92,83.93-34.9,58.8-37.04,124.59l107.77-.2c13.56-25.13,3.57-59.74,4.84-87.27,1.11-24.16,1.81-43.14-2.19-68.02-24.75-153.84,37.9-192.34-16.9-381.53-18.62-64.29-.84-131.7,8.62-196.08-19.63-71.43-37.8-140.74-42.59-215.35-4.29-66.9-10.45-131.82-2.22-197.93,7.48-60.11,31.03-118.32,27.6-179.55-1.96-34.91-7.16-73.91-6.19-108.83l-7.57-10.98c-1.9,35.67-4.96,63.96-10.35,98.48-4.78,30.64-.02,63.94-3.29,96.21-10.64,104.83-73.88,130.95-25.57,241.06l-19.06,109.38c-1.52,8.75-19.12,19.3-9.55,34.67,3.99,6.4-1.28,25.61-5.83,31.56-4.49,5.87-19.86,10.17-28.83,5.71l-42.21-125.03c27.69-79.96,13.58-170.24,6.4-253.37-10.69,45.57-24.71,86.84-26.3,130.42-6.54,178.59,11.36,256.26,60.42,420.84,8.16,27.37,8.78,48.22,5.55,76.25-15.32,133,16.92,238.82,56.53,362.8ZM1483.15,1836.35c-4.6-11.64,11.25-23.46,12.75-31.74l16.29-89.93c-50.26-106.57,33.21-146.5,23.86-256.52-2.36-27.77,2.58-52.75,6.95-78.85,6.71-40.1,1.43-77.38,11.82-120.01,9.62,16.42,12.01,29.6,16.27,46.12,24.92-126.18-29.79-153.27,14.83-290.61l-74.12,24.65c-46.22,15.37-65.15,124.32-61.58,157.17,7.09,65.3,16.59,128.63,4.5,194.79-8.12,44.41-14.15,86.84-10.49,133.21l10.08,127.79c8.87,112.42-43.65,63.2,22.01,217.62,13.45-9.16,12.04-20.54,6.83-33.71ZM1227.41,1220.81c9.64-28.83,34.63-44.31,67.74-53.2-10.44-50.18-57.84-77.84-43.34-112.47,3.72-8.88,7.2-24.67,3.86-31.82-32.92-2.98-70.19,6.76-87.65,34.17-12.93,20.29-4.74,49.46-6.95,72.95-1.2,12.81-14.25,25.57-4.52,39.33,5.56,7.87,12.86,16.93,21.25,27.5,7.12,8.96,7.2,32.91,21.52,39.68,7.64,3.61,25.3-7.8,28.09-16.14ZM2223.3,2236.42c11.5,35.68,12.2,67.57,8.95,103.21-.93,10.19.84,30.13-3.79,37.65-14.83,24.08-27.45,45.77-35.6,77.61l111.22-.71c6.77-26.39,1.33-51.51,2.83-79.86l2.31-43.66c-8.09-43.15-11.89-81.41-8.54-124.72l9.18-118.88c9.69-125.44-39.71-142.82-27.78-245.56l12.66-108.98c-43.28-128.12-67.2-332.05-36.27-461.5,40.42-169.15,4.36-133.98,11.89-208.25,1.31-12.91-1.33-26.3-5.92-36.13-2.69,37.7-11,67.85-12.08,104.16l-2.69,90.52c-2.18,73.17-70.3,125.77-27.86,234.45l-13.31,110.55c-6.62,4.52-16.47,8.33-15.61,12.51l3.91,18.91c1.58,7.64-1.33,24.26-5.11,32.22-3.35,7.05-22.99,10.98-30.24,5.29l-41.22-123.95c24.71-66.81,16.82-154.34,7.33-228.36-33.96,110.74-25.35,152.29-19.35,267.63,3.99,76.61,23.85,147.71,44.04,220.82l21.49,77.81c-22.1,144.54,4.87,248.52,49.58,387.22ZM2085.12,2325.51c.98,25.9-.4,58.79-4.19,82.42-13.8,27.01-34.43,48.1-34.24,77.82l109.72.19.78-84.74c.24-25.76-.65-48.49-4.16-75.42-17.92-137.66,32.3-209.44-9.62-334.84-13.94-41.7-16.69-89.17-10.21-133l10.63-71.85c-17.64-72.17-41.36-140.28-45.2-214.95-3.47-67.46-10.33-133.39-2.69-200.07,6.54-57.1,33.83-111.69,28.49-168.4l-7.32-77.83c-1.53-16.24-.68-29.79-5.83-42.14-2.54,34.79-9.56,61.38-10.87,93.98l-3.87,96.02c-2.58,64.13-70.25,131.3-24.82,227.89l-17.23,108.23c-1.31,8.21-16.93,18.2-10.55,30.9,4.03,8.02.58,25.87-4.38,32.58-4.06,5.48-16.51,9.3-27.32,9.65l-42.97-125.85c26.24-76.9,16.39-130.86,9.41-211.34-33.33,93.81-21.83,244.74-5.01,345.56,11.7,70.12,41.69,133.3,49.28,203.09,3.08,28.33-7.5,62.08-6.28,92.01,7.79,191.44,65.87,271.34,68.46,340.09ZM1374.21,1861.75l15.09-86.62c-18.53-40.84-20.47-81.36-2.39-123.41,22.79-53.01,23.88-106.2,28.23-163.31l8.97-117.76c1.21-15.83,2.03-25.62,9.83-42.62l12.88,36.92,2.14-24.97c9.33-109.08-28.57-125.89,7.19-250.53l-74.35,25.75c-20.05,6.95-29.28,35.11-36.09,53.24-19.63,52.25-18.97,102.09-9.89,156.01,10.38,61.65.49,121.22-10.26,181.3-14.93,83.39,25.73,219.77-5.77,315.94l32.56,103.16c9.81.91,16.36-16.8,12.55-22.71-13.42-20.82,7.08-27.61,9.31-40.39ZM1185.06,1246.12l-18.53-46.99c-28.15-24.26-30.13-53.19-13.83-87.82-32.98-4.11-66.45,5.31-85.84,30-16.23,20.65-3.65,51.85-7.75,75.16-3.02,17.13-17.1,30.19,3.12,48.08,29.3,25.94,9.74,33.97,32.44,53.17,19.37,16.39,12.23-59.87,90.4-71.6ZM1267.83,1836.68c-6.73-42.19-18.22-69.75-3.25-109.39,42.04-111.3,24.75-92.43,35.84-211.69l10.79-116.06,15.5,17.19c4.66-39.7,1.63-84.36-6.16-127.87-7.3-40.76,4.4-76.28,12.17-121.51-24.35,10.84-64.35,11.83-81.56,35.92-29.25,40.96-43.91,101.17-35.44,150.89,13.47,79.09,7.56,149.42-6.16,227.29-14.53,82.45,27.53,204.56-5.11,306.53l32.67,99.23c11.8-6.8,14.46-20.88,9.49-29.68-8.92-15.79,8.91-23.84,10.18-34.75,2.84-24.29,14.86-62.08,11.03-86.12ZM1798,2484.48c-8.66,26.18-25.86,45.22-31.95,74.75l107.14-.87c2.69-34.6,2.36-121.54-2-149.5-3.45-22.1-7.21-48.56-5.5-70.04l11.78-148.44c3.49-44.02-12.24-88.14-22.6-129.73-13.79-55.32-3.11-107.64,4.68-163-31.03-133.13-47.81-150.98-53.79-296.29-1.85-44.82-4.63-88.41,2.97-132.34,7.4-42.75,21.21-84.77,21.42-127.37.26-52.5-1.14-101.38-4.52-150.67l-13.31,109.05c-6.66,54.56.25,103.96-22.73,156.65-43.52,99.79.78,125.73-4.17,152.76l-17.01,92.85c-1.96,10.68-14.86,23.7-8.92,38.07,3.06,7.42-2.59,23.03-6.65,28.85-3.47,4.98-23.42,8.33-25.79,2.8l-30.02-82.2c-10.17-27.84-7.84-47.56-1.06-75.69,10.03-41.67,4.64-86.64.52-130.41-28.19,46.99-10.18,268.94,2.82,317.69l49.17,184.37c-18.12,99.18-4.99,196.09,23.47,291.51,19.14,64.17,49.36,136.79,26.08,207.17ZM1078.9,1324.67c-11.64-57.45-63.06-63.24-29.79-124.21-30.32-3.52-64.58,5.31-81.19,31.17-12.55,19.54-6.97,49.93-3.25,72.84-11.97,14.39-14.23,30.89.1,45.63,24.29,24.99,19.97,53.52,31.9,47.59,17.65-8.78,7.97-57.17,82.22-73.02ZM1136.39,2005.96c8.3-17.92,13.39-32.48,15.59-51.94,1.81-15.97,12.64-42.35,6.95-56.62-16.04-40.25-18.36-80.43.62-120,22.7-47.33,23.13-93.74,23.96-145.93.65-40.44,14.96-80.97,10.32-122.21-1.9-16.86,13.96-28.85,16.71-41.02,8.58-37.97-3.71-79.68-6.37-117.72-2.52-36.03,5.02-68.02,11.42-103.23-77.61,23.32-80.64,22.03-102.11,94.23-30.2,101.52,24.22,115.07-13.53,301.84-14.88,73.59,26.42,217.66-6.08,306l31.87,100c21.08-8.81,4.43-29.95,10.65-43.39ZM1637.71,2599.69l103-.5,1.14-80.67c.3-21.04.43-39.34-3-59.77-22.53-134.21,27.9-161.23-10.06-318.8-34.46-143.06,16.59-141.99-12.89-231.66-30.85-93.84-44.61-187.98-45.75-286.11-.39-34.02-1.99-67.64,4.27-101.5,5.42-29.32,16.35-59.36,16.68-88.49l2-175.34c-9.36,13.96-4.13,29.15-7.42,48.09l-9.55,54.93c-10.18,58.55-3.46,115.23-28.28,169.46-20.12,43.96-13.15,85.6,3.75,126.9l-17.25,101.51c-1.43,8.39-14.69,17.47-8.82,30.88,2.98,6.82-.44,22.69-4.13,28.8-3.63,6-20.53,11.37-27.83,7.04l-35.4-100.34c-3.38,40.75-.12,83.54,10.74,126.08l48.03,188.09c2.33,9.11-32.73,136.32,41.18,336.85,14.3,38.8,17.4,75.39,15.32,115.9-3.6,70.02-27.73,45.82-35.72,108.65ZM899.5,1483.09c15.11-46.32,34.17-68.05,78.5-78.29-7.27-52.3-54.97-51.85-28.2-113.82-31.42-5.46-66.87,8.25-78.9,38.23-6.92,17.26.87,43.42-2.53,61.03-2.13,11.01-11.22,27.52-4.39,36.09l19.2,24.07,16.32,32.68ZM1038.74,2048.89l15.84-78.98c-15.77-39.97-21.37-80.96-2.08-120.66,23.77-48.92,23.44-97.45,25.89-150.34,1.72-37.13,10.47-73.74,9.22-111.99-.59-18.18,6.5-31.58,13.36-48.88,11.97-83.5-28.03-112.31,3.91-207.6-27.86,6.66-65.36,11.17-79.09,40.84-17.82,38.51-31.31,88.98-25.26,132.12,25.37,181.07-15.06,177.63-8.61,265.46,5.83,79.38,20.09,177.8-2.85,246.61l32.75,96.56c9.5-10.63,9.58-17.55,6.95-30.11-1.87-8.92,7.99-23.21,9.96-33.02ZM1542.63,2571.57c-7.02,25.91-31.52,43.45-28.73,72.32l98.67-.43c3.67-35.14,3.59-113.94-2.05-147.51-11.73-69.81,7.47-137.88,4.96-208.09-1.15-32.18-9.01-69.93-16.1-100.95-13.6-59.44-4.8-111.31-3.94-170.69.74-51.18-27.96-100.38-35.96-151.12-14.63-92.81-25.11-185.75-13.8-279.19,5.3-43.78,22.21-83.1,14.31-128.07-13.58-77.34,19.39-90.46-.54-128.71l-11.02,79-2.65,90.74c-1.88,64.26-62.76,125.25-28.64,194.6,3.26,6.62,6.52,21.59,5.21,29.08l-15.82,90.43c-1.44,8.25-13.93,18.76-9.24,31.65,2.63,7.23.23,22.87-4.17,27.88-4.4,5.01-17.95,9.17-26.44,8.35l-32.01-90.64c-2.66,54.33,6.74,108.38,21.48,163.04l36.56,135.61c-13.55,104.18-4.39,205.46,30.69,305.23,20.21,57.49,35.43,117.69,19.23,177.48ZM807.27,1560.26c12.97-43.32,34.69-64.21,77.46-72.79-9.91-46.12-52.36-54.22-28.02-107.97-26.79,1.98-58.75,8.08-72.8,36.1-8.29,16.54.62,45.54-2.67,62.62-3.53,18.32-15.04,30.15,4.9,48.04,7.72,6.93,14.7,21.66,21.14,34ZM929.54,2152.51c-7.77-14.59,7.5-25.22,9.36-35.23l14.82-79.83c-16.65-39.65-19.03-79.61-1.31-119.09,20.95-46.67,22.34-92.66,24.27-143.03,1.68-43.75,7.53-89.08,14.06-132.72,4.68-31.31,11-59.47,5.25-92.76-7.78-45.08-12.12-88.34,2.35-135.36-101.77-1.84-105.24,137.36-91.97,212.12,10.34,58.26-3.52,112.78-11.97,169.49-10.54,70.73,28.73,208.43-6.4,281.42l32.52,96.54,11-7.6c2.2-1.52-.71-11.57-1.97-13.94ZM1394.47,2690.01l96.32-.36c5.24-14.39,2.24-119.36-.24-135.79-15.06-99.43,8.71-145.62,2.83-204.18-4.99-49.69-14.16-97.56-22.37-146.85-6.95-41.7,7.69-83.48,3.61-124.3-5.93-59.37-32.23-114.76-41.68-174.51-13.17-83.31-18.52-165.41-12.37-249.58,1.76-24.15,14.98-51.29,14.51-75.06l-2.43-122.72c-8.32,13.7-10.94,30.25-9.39,47.35,12.74,140.47-72.27,158.39-22.19,270.74l-17.06,95.36c-1.57,8.78-13.83,18.3-8.8,30.77,2.92,7.22-.47,22.26-3.92,28.43-3.35,5.98-21.81,11.65-25.99,6.21l-27.63-72.87c-13.11,69.16,54.61,247.74,53.3,286.2-2.05,60.2-7.13,115.08,3.16,175.05,8.54,49.78,21.93,98.16,38.16,146.21,13.68,40.52,20.09,77.18,16.63,120.48-4.94,61.79-30.35,44.03-34.46,99.41ZM719.75,1634.17c24.53-68.94,68.48-50.83,73.17-66.9,6.59-22.6-48.97-45.63-26.25-96.15-21.23,1.33-51.21,8.73-64.73,31.56-10.92,18.45-2.48,49.26-2.12,68.78l-10,13.28c-2.51,3.33,3.16,17.14,5.89,20.43l24.03,28.99ZM831.45,2201.4l15.03-17.57c-.27-24.06,11.23-55.95,7.88-79.08-4.86-33.62-17.81-60.45-4.33-95.28,48.7-125.85,16.93-125.86,41.2-274.94,23.42-143.85-18.22-115.84,5.16-237.95-15.89,4.06-47.16,8.55-57.52,25.52-24.6,40.3-38.4,92.82-32.1,139.68,9.61,71.52,12.19,116.43-4.25,187.83-15.71,68.23,14.37,154.08,1.03,266.82-1.11,9.37-10.27,29.34-7.1,38.47l31.28,90.16c12.92-13.35,7.16-27.32,3.72-43.67ZM3551.25,1571.79c.6-10.17-5.92-27.17-10.8-37.57-23.39,122.21-35.12,173.03,9.69,288.56,39.34-124.75-8.04-94.95,1.11-250.99ZM1309.1,2667.88c-10.5,24.19-25.2,39.65-31.02,69.07l98.28-.26,1.93-75.07c.64-24.93-2.27-46.6-6.01-72.37-8.7-59.86,2.47-119.28,8.99-179.53-24.92-88.5-30.75-177.51-19.91-269.29l-41.66-157.18c-23.1-87.16-26.11-181.31-14.14-270.21,5.53-41.07,11.6-74.85,7.29-117.91l-5.09-50.76-2.07,78.26c-2.1,79.22-64.12,115.22-22.73,215.67l-16.45,94.04c-1.31,7.5-11.97,17.16-8.87,27.92,2.56,8.87.92,21.89-2.22,27.63s-20.31,11.55-25.98,7.84l-24.66-61.77c1.57,39.02,4.13,77.6,13.98,114.37l41.37,154.44c-14.7,103.16-1.25,204.67,32.59,303.61,24.21,70.78,26.89,86.85,16.38,161.49ZM1570.25,1625.58l-5.39-71.15c-12.58,45.58-16.8,91.36-9.05,136.62,8.6-19.12,16.13-43.18,14.44-65.47ZM709.21,1654.84c-2.97-40.3-35.7-30.59-28.87-91.4-17.96,2.57-45.85,9.41-56.18,30.1-9.24,18.51-2.03,43.79-5.21,62.91-1.63,9.76-7.55,23.65-5.01,31.57,2.56,7.96,12.86,16.7,23.22,22.85,14-33.75,33.54-49.88,72.06-56.03ZM3354.51,1611.5c.33-19.13-1.09-34.27-10.63-52.59-23.78,108.99-31.44,167.82,9.95,272.85,31.39-95.79-1.24-109.97.68-220.26ZM759.22,2150.01c-24.45-60.05,38.15-109.38,28.4-215.66-5.91-64.45,13.5-93.23,16.31-179.29,2.36-72.23-19.88-97.48-3-172.19-31.72-.77-57.14,18.1-67.31,47.67-45.14,131.15,14.23,129.26-16.65,276.59-27.01,128.84,24.39,186.24-10.83,312.99,9.66,30.91,20.25,61.59,33.36,90.83,9.17-14.63,4.02-27.43,3.95-38.2,17.82-20.13,28.09-92.49,15.78-122.75ZM3172.51,1740.31l-8.63-119.05c-.76-10.49-3.82-21.73-7.79-28.8-24.47,119.8-31.7,140.73,7.88,255.25,12.73-20.83,10.08-86.22,8.54-107.4ZM1433.41,1743.12c9.82-39.65,12.22-74.72,5.87-114.36-14.12,38.45-13.17,74.41-5.87,114.36ZM2983.55,1868.44c8.67-79.67,4.14-169.24-6.29-236.33-28.33,114.36-31.86,136.99,6.29,236.33ZM556.15,1794.59c26.19-56.98,68.03-48.11,72.16-62.41,3.49-12.06-33.36-27.61-27.46-77.09-17.74,3.04-36.55,12.25-45.54,22.9-24.34,28.84,4.34,45.96-15.9,83-4.84,8.87,9.05,30.84,16.73,33.59ZM667.38,2319.89l14.75-71.35c-44.09-90.21,31.97-137.15,18.34-224.42-14.82-94.9,28.94-132.19,9.86-256.45-5.37-34.96-6.84-64-.49-100.05-17.3,1.94-41.9,10.32-51.09,26.39-55.26,96.64-5.47,172.69-20.23,256.62l-9.93,56.42c-14.18,80.57,25.26,201.2-7.82,281.54l30,87.36,7.81-3c2.03-.78,1.27-10.59.22-12.91-5.78-12.9,5.91-27.17,8.59-40.15ZM1200.06,2719.66c-8.42,23.61-25.03,39.87-29.12,67.29l96.15.23.14-70c.04-18.48,1.37-36.92-2.01-55.18-16.22-87.64,2.74-112.28,1.17-193.14-13.51-66.99-25.46-127.39-22.41-196.73.84-19.12,7.06-47.12,2.83-64.14l-41.54-167.36c-20.77-83.68-22.93-172.63-13.72-258.49,3.9-36.33,19.25-69.56,3.85-104.67-2.55,28.56-6.76,52.53-16.18,77.33-45.45,119.68-6.33,118.7-8.69,144.14-2.99,32.27-8.23,64.14-14.94,95.68-1.94,9.12-14.18,18.5-8.54,32.4,2.6,6.4-1.85,21.31-6.09,25.96-4.25,4.66-22.28,6.28-24.76-.1l-18.51-47.53c-7.75,63.71,55.67,233.24,53.05,266.65l-5.38,68.59c-4.14,52.75,6.35,104.55,19.17,156.97,14.65,59.9,60.8,151.25,35.54,222.09ZM2807.02,1893.91l1.18-51.63c1.28-56.1,1.9-109.09-4.03-163.94-29.93,106.67-31.81,112.57,2.85,215.57ZM1313.57,1791.51c10.12-28.21,10.4-56.15,4.32-82.02-10.36,31.35-8.04,56.47-4.32,82.02ZM2637.19,1915.21c-7.22-69.04,3.71-126.7-1.37-193.72l-10.63,43.68c-12.36,50.78-14.45,101,12,150.03ZM2455.96,1731.23c-.01,46.82-10.33,39.86-2.96,80.55,26.68-80.25,2.97-92.58,2.96-80.55ZM481.16,1877.31c26.61-58.76,65.91-40.89,69.43-59.07,3.16-16.37-23.37-22.25-25.8-69.52-13.88.17-38.4,10.3-45.71,27.83-7.33,17.61-.24,41.87-3.37,58.74-2.92,15.76-9.77,28.05,5.44,42.03ZM590.11,2394.55c-1.61-23.44,10.06-53.34,7.31-74.82-3.77-29.48-15.07-52.13-6.77-82.85,7.77-28.76,23.34-59.29,25.92-88.86,4.08-46.82-5.8-94.57,2.07-140.87,29.01-170.6-4.73-101.7,5.79-253.79-111.41,8.39-53.23,227.55-66.5,289.81l-12.83,60.21c-8.33,39.09,26.77,191.28-3.23,256.67l31.29,90.31c9.18-14.77,6.35-25.31,3.82-39.09l13.13-16.72ZM1094.92,2773.95c-9.89,25.56-22.81,38.57-28.88,63.87l92.76.39c12.43-56.66-7.27-44.1,5.38-94.72-20.33-65.17,1.47-180.27-4.01-213.52-9.34-56.76-25.36-108.25-24.31-165.18l1.76-95.55c1.09-59.25-72.79-181.68-52.9-412.06,2.57-29.72,12.1-56.91,4.86-87.17-9.48,31.19-18.47,64.74-30.63,94.74-15.82,39.04-1.67,63.52,3.97,102.6,3.56,24.65-7.99,64.88-12.64,90.67-1.77,9.83-10.27,21.02-8.58,31.67,1.42,8.96.23,18.84-2.79,23.66s-19.21,12.57-22.79,8.25c-5.93-7.15-13.54-21.45-20.09-32.94,3.33,23.87,4.46,53.57,11.35,79.28l42.19,157.35c-12.72,83.87-5.06,166.4,18.04,248.75,11.26,40.15,26.28,77.06,33.11,119.6,3.49,21.7,1.86,60.58-5.78,80.33ZM2294.01,1873.23c8.56-31.68,20.57-63.41,11.41-99.13-9.77,31.89-12.47,63.86-11.41,99.13ZM2468.79,1933.68c-.98-56.6.5-101.66,5.72-154.08-17.58,39.81-22.73,115.68-5.72,154.08ZM3597.87,2342.31c10.53-34.27,25-61.75,43.2-91.01l6.53-92.14c-30.8-124.21-70.76-209.48-79.98-342.98-44.08,173.53,48.62,169.28,1.7,390.21-2.55,12.02,6.84,37.84,1.71,50.04-13.07,31.09-19.74,58.56-9.47,90.89l36.3-5ZM410.61,1954.34c29.62-42.33,63.92-38.75,64.97-50.35,2.13-23.51-14.68-17.56-20.45-64.6-9.13,2.59-26.59,9.7-34.3,17.46-9.75,9.81-11.37,33.11-9.57,46.84,5.6,42.76-15.01,34.04-.64,50.65ZM522.38,2390.78c.5-19.79-27.31-32.25,3.98-115.87,28.87-77.15-2.39-99.47,10.54-180.16,9-56.16,18.98-109.54,8.8-166.06-5.48-30.42-4.38-58.29-1.76-90.67-63.8,9.73-71.81,117.49-63.54,165.87,10.01,58.53,1.81,113.5-7.32,172.02-11.6,74.32,22.02,168.08-4.69,256.51l25.59,80.4c6.16-.84,8.61-.36,8.39-2.42l-1.44-13.53c-2.91-27.43,19.44-27.54,21.44-106.08ZM3396.91,2340.24c9.42-32.72,24.92-62.06,43.01-90.21l3.89-72.92c1.63-30.6-7.93-63.4-18.12-93.38-27.61-81.18-46.8-160.45-57.43-247.23-33.85,163.02,49.42,168.46,5.08,371.26-2.91,13.3,6.29,38.65.92,52.2-10.95,27.67-18.3,58.14-9.58,85.54,6.27,4.94,29.43,2.15,32.23-5.26ZM990.65,2841.5c-10.27,16.14-16.67,32.54-20.14,50.14l88.79-1.57c10.89-16.36-1.47-43.11-.02-57.76,2.64-26.69,3.39-45.49-1.28-71.26-9.56-52.76.32-106.41,4.28-160.93-27.61-91.24-37.38-182-24.96-276.23l-21.73-79.04c-28.71-104.42-45.31-211.97-31.75-320.26,2.98-23.8,5.55-43.64,1.3-64.37l-22.64,62.02c-13.57,37.16-17.3,73.07,3.49,110.53l-10.93,65.4c-2.83,16.93-5.38,29.26-12.35,42.21l-2.79,36.46c-.47,6.12-21.11,14.85-24.44,9.72l-14.19-21.86c5.99,67.11,23.11,127.25,42.94,189.59,23.69,74.47-33.11,109.49,48.13,351.42,12.87,38.32,17.16,106.19-1.69,135.81ZM3208.34,2328.11c6.6-58.4,52.78-32.53,38.87-173.28-3.4-34.47-16.29-67.72-26.93-100.34-20.34-62.37-33.54-121.39-44.35-189.26-13.95,61,.26,118.34,14.36,177.76,13.46,56.73,2.79,113.21-4.99,170.3-2.05,15,2.69,37.33-.34,51.7-8.37,27.34-19.07,58.7-9.06,85.93,2.24,6.1,19.61,7.37,23.59,2.44,3.44-4.26,7.85-16.42,8.85-25.25ZM2003.27,1996.12l4.78-56.15c1.89-22.24,4.74-42.24.31-63.25-10.34,16.8-13.87,108.54-5.08,119.4ZM3020.18,2342.31c2.05-56.24,47.52-39.66,41.04-166.57-1.77-34.74-14.74-68.19-25.42-100.75-19.35-59.01-32.35-114.93-44.55-178.8-10.36,56.75,1.74,111.21,17.54,166.21,9.57,57.24,2.87,112.97-7.39,169.2-1.93,10.59,4.82,34.13,1.27,45.08-8.32,25.67-14.58,49.09-13.7,77.81.27,8.89,15.23,15.54,23.47,11.6,5.36-2.57,7.32-12.25,7.74-23.77ZM405.58,2137.14c1.84-20.75-15.23-38.56,2.98-58.13l4.77,34.65c2.35,17.06,2.64,34.43.4,51.72l-10.69,82.58c-14.33,110.67,25.19,160.33-6.42,258.76l29.66,79.68c3.05-14.45,3.75-24.79,4.72-35.85,10.59-11.93,21.43-81.71,18.23-90.88-22.84-65.58,3.21-88.16,16.83-150.5-3.36-48.83-11.96-94.54-3.79-141.13l9.61-54.82c11.79-67.25-8.67-117.64-5.19-186.72-62.72,10.89-53,102.58-64.84,150.76-8.16-21.15-5.21-39.34-4.29-62.57-7.64-1.84-24.78,4.67-30.03,13.5-28.34,47.64-30.75,98.65-22.64,151.61,7.69,50.23,1.02,95.87-8.22,144.81-12.77,67.62,22.3,171.48-4.95,253.14l28.05,76.58,4.31-33.25c5.14-12.26,10.46-26.2,12.82-40.19l7.63-45.28c-17.02-33.97-16.73-70.76.35-104.81,13.6-27.11,11.54-52.72,8.2-82.04-11.56-101.37.96-81.51,6.88-148.26l5.62-63.37ZM402.25,1968.06l-12.32-35.41c-25.27,1.68-46.55,24.92-39.96,53.84,3.75,16.43.54,31.05-4.03,49.75,31.91-44.58,70.2-28.26,56.31-68.17ZM965.37,2944.67c5.48-20.33,1.75-41.36-6.56-57.81l10.56-39.28c-8.55-34.73-12.93-64.5-10.05-98.76l7.34-87.12c-33.59-89.33-32.77-177.26-29.72-271.88,1.25-38.7-20.13-80.72-29.29-117.89-13.95-56.56-19.56-109.67-25.38-166.56-1.73-16.85-2.95-30.66-1.24-48.16l7.17-73.76c1.34-13.82.49-29.32-1.66-43.98l-26.18,75.44c-11.76,33.9,3.94,58.32,6.05,89,2.4,34.77-20.29,106.54-19.48,122.67.54,10.74-3.05,20.81-12.41,26.85-5.32,3.43-13.47,1.15-22.56-9.51.64,59.49,33.83,137.78,46.4,209.79-8.68,93.98-3.1,184.12,29.6,274.39,17.89,49.39,30.8,103.59,14.96,155.25-6.26,20.43-24.98,40-24.78,62.03l87.24-.71ZM2845.56,2377.74c-20.3-26.64,12.38-73.29,30.24-103.11,3.77-6.3,1.16-23.89,2.06-30.91,5.75-44.87.1-86.36-14.35-129.3-19.89-59.08-35.12-116.07-49.12-176.37-7.1,51.53,8.29,98.44,18.05,147.51,11.1,55.78,1.7,110.48-6.99,166.78-1.9,12.3,5.04,34.76.61,45.65-11.85,29.13-16.58,54.09-8.83,84.24l28.34-4.48ZM2752.1,2395.31l-61.82-.49c-6.99-.06-17.06-1.77-20.45-5.76-18-21.25,21.87-76.94,32.4-99.44l2.26-34.19c2.49-37.76.93-71.37-11.03-107.53-18.66-56.4-34.26-111.41-47.06-167.68-7.97,45.51,9.7,86.15,16.12,130.72,6.05,42.07,3.99,87.72-1.89,130.11-3.37,24.29-3.26,46.58-4.49,70.58-1.54,29.9-24.51,59.68-5.93,90.51l74.31-1.61c10.04-.22,19.18,7.61,27.6-5.2ZM3556.18,2197.32c21.74-67.47,21.57-167.31-5.71-217.89l-9.15,101.82c-3.61,40.18-.81,80.44,14.85,116.08ZM3358.58,2206.44c26.16-75.11,21.13-150.04-3.19-220.26-10.68,82.74-18.83,151.09,3.19,220.26ZM3171.4,2209.78c19.34-68.54,20.25-155.74-6.51-207.12-8.94,59.34-18.12,165.22,6.51,207.12ZM2987.33,2223.05c24.29-65.6,20.67-146.28-4.35-207.97l-9.91,105.16c-.61,34.87,1.72,68.93,14.26,102.82ZM331.65,2082.74c15.9-17.91,6.45-47.56-5.41-59.07-33.24,7.84-40.91,47.52-27.72,76.11l33.12-17.04ZM790.36,3000.44l83.37-.76c8.3-16.81,6.78-35.9-6.37-53.74-5.9-8.01,8.54-28.68,7.55-38.95l-6.65-69.09,6.88-113.03c-28.77-87.25-41.11-176.21-26.53-267.84l-38.4-144.37c-18.48-69.47-6.81-97.8-25.54-158.62,8.33-43.59,14.16-86.69,9.09-133.88l-23.53,63.37c-10.53,28.37-7.87,52.65,5.83,81.69,4.41,9.34-.9,30.56-3.36,42.47l-15.37,74.45c-1.59,7.69.61,26.43-5.1,31.64-5.12,4.67-16.42,8.22-27.6,11.52,9.57,52.73,23.33,106.32,39.36,159.12,7.81,25.73,7.5,45.98,4.84,71.78-8.77,85.09,8.74,168.77,36.99,249.04,11.56,32.85,16.58,63.14,14.13,97.32l-2.4,33.52c-12.67,21.26-21.1,39.85-27.18,64.38ZM2584.37,2415.14l-72.26-.23c-35.21-.11,6.17-72.99,12.73-84.5,21.87-38.37,16.65-112.97,2.5-155.92-17.15-52.08-31.44-101.9-45.23-153.08-3.41,67.33,29.37,120.88,22.25,185.69l-9.63,87.76c-1.72,15.65,2.53,38.31-2.46,53.33-8.87,26.71-13.78,53.48-6.97,78.11,24.86-4.26,99.18,3.23,100.73-.5.58-1.39-.15-10.64-1.67-10.65ZM2811.78,2241.2c19.75-70.34,21.51-136.91-4.11-199.81-9.05,52.33-17.93,157.89,4.11,199.81ZM2642.84,2268.3c15.88-53.02,20.64-153.06-4.16-198.04-9.04,63.25-17.91,141.24,4.16,198.04ZM2430.44,2439.1l-76.47.87c-11.36.13-21.78-22.1-16.01-33.24l34.03-65.69c4.5-8.69,3.67-29.97,4.48-41.61,2.25-32.08.59-62.06-9.14-92.79l-42.81-135.24c3.82,41.68,14.69,78.07,21.2,118.27,7.56,46.72-2.93,92.71-9.36,139.92-1.52,11.16,4.38,33.68,1.13,43.52-9.41,28.57-16.04,55.3-9.35,82.24,32.53-1.76,61.12-2.21,93.38.48,4.09.34,6.81-6.74,8.91-16.74ZM318.54,2605.76c-31.16-95.98,21.41-68.78,9.47-177.62-15.12-137.89,15.26-139.94,11.09-217.28-2.44-45.14-12.74-63.28-8.86-114.8-21.27,8.34-33.4,27.79-40.03,48.5-29.84,93.3,13.16,128.45-12.74,239.24-19.93,85.27,20.5,172.82-7.32,262.84l27.33,77.32c7.77-56.14,20.5-59.38,21.06-118.2ZM2476.73,2100.38c-10,65.23-20.74,126.71,2.96,193.24,18.46-69.2,22.5-129.75-2.96-193.24ZM244.44,2178.78c16.07-2.4,29.73-10.3,33.56-27.22,2.59-11.43.36-30.19-5.98-40.16-32.08,7.99-37.04,41.06-27.58,67.38ZM707.59,3054.52l79.7.16c13.45-18.09,3.05-38.88-8.02-55.36,20.42-85.22,6.48-17.98,5.04-116.87-.43-29.67,8.87-63.47,2.3-90.91-22.56-94.24-43.33-168.52-24.83-267.18l-34.18-127.74c-22.3-83.35-8.43-108.93-33.73-175.41,11.9-36.52,17.13-71.93,9.95-110.39l-16.27,37.32c-16.22,37.21-1.42,63.42,2.35,99.86,2.33,22.58-7.34,58.21-12.06,81.49-1.34,6.63-9.53,18.86-8.02,24.75,2.35,9.17,3.1,24.35-2.16,27.48-5.99,3.56-13.6,7.43-23.9,12.63.6,52.37,46.08,162.96,43.53,199.9-10.14,146.94,5.28,169.87,44.82,306.09,8.29,28.55,7.64,69.18-.41,96.89-6.19,21.3-23.64,35.16-24.11,57.3ZM2274.12,2465.52l-68.67,2.97c-53.78,2.33,8.17-85.55,11.48-100.97,20.83-97.1-17.62-158.84-40.89-242.53.34,35.38,13.28,61.69,17.86,92.31,7.41,49.58-1.78,97.87-7.53,147.86-1.4,12.14,2.77,33.49-.58,44-8.52,26.77-12.73,49.84-8.86,77.17l80.04-.53c4.85-.03,20.45,3.34,19.85-.96l-2.69-19.33ZM2321.62,2324.57c19.9-65.09,21.85-130.12-2.37-191.23-9.85,67.46-13.89,134.46,2.37,191.23ZM2170.17,2172.28c-12.01,63.74-18.97,125,2.63,184.22,17.4-66.15,19.15-124.89-2.63-184.22ZM251.86,2736.34l10.24-57.68c-32.08-78.2,12.67-66.37,5.12-162.99l-6.15-78.75c-1.98-25.37,7.42-51.97,11.08-76.78,11.22-76.05-6.03-103.66-4.22-176.52-48.3,19.5-50.87,103.47-42.89,152.74,8.1,50-1.09,99.21-8.3,149-10.24,70.7,20.35,150.82-3.34,232.99l25.39,72.92,13.08-54.92ZM628.6,3111.34l78.29.15c12.7-18.79,7.58-38.79-12.6-54.99l15.21-47.19-5.41-35.52,2.09-115.48c-28.47-90.97-39.2-178.19-30.75-273.42,1.73-19.48-11.46-48.3-16.9-67.64-16.88-60.03-25.97-115.94-33.97-178.05-1.85-14.33-12.56-36.13-15.24-49.69,10.42-34.68,17.3-64.04,9.8-99.6-41.18,98.08-4.72,108.43-7.81,128.34l-9.63,62.11c-2.13,13.73-5.64,24.53-11.73,34.82.18,7.14,3.75,22.29.98,28.81-2.77,6.53-14.76,14.24-24.59,20.87,3.47,29.28,11.14,62.71,19.51,93.22l25.94,94.51c-13.23,89.31-2.41,173.25,27.35,258.72,15.82,45.44,29.06,94.26,14.07,141.99-5.91,18.83-20.52,40.15-24.62,58.03ZM220.21,2233.54l2.53-34.46c-31.01,4.18-36.31,33.36-28.03,59.7,9.1,3.91,24.51-11.83,25.49-25.24ZM2028.06,2388.63c15.83-58.19,16.86-112.51.28-163.48-14.75,57-19.49,113.67-.28,163.48ZM196.68,2811.27c24.89-103.35-16.87-82.21,4.6-139.56,23.1-61.73-5.57-116.96,4.43-188.1,6.79-48.29,17.56-94.17,9.88-143.47-3.84-24.64-5.58-45.71-7.09-73.2-35.37,11.37-45.27,101.68-38.79,134.16,10.98,54.99,1.1,104.74-6.58,158.68-6.36,44.7,3.15,92.49,5.3,137.72,5.1,107.45-27.51,51.06,16.82,161.24l11.43-47.47ZM552.39,3166.28l77.14.45c3.04-7.46,7.33-22.44,7.53-29.96.19-7.1-12.31-14.74-19.11-23.14-2.32-11.73,11.75-36.06,13.16-48.47l-1.4-75.38c-.32-17.42,2.72-37.99,4.9-54.99-38.02-91.44-40.08-185.05-39.13-282.22.56-56.95-33.96-110.55-37.39-167.74-2.64-44.1-15.15-83.3-25.57-124.81,2.89-26.31,11.1-60.46,10.29-87.63-29.11,39.12-20.32,81.38-7.07,122.85l-14.14,75.62c-1.19,6.38-8.41,20.21-6.94,26.84,3.38,15.2-4.52,27.62-21.16,34.11,7.16,52.29,22.2,106.52,37.79,158.39,18.49,61.53-27.31,108.61,40.91,303.58,13.29,37.97,18.52,98.02,1.42,131.24l-21.22,41.24ZM1928,2439.94l2.38-90.78-24.4-77.2c7.54,48.57,10.37,93.29.12,141.17-4.3,20.1-5.26,38.23-.97,59.73l22.87-32.92ZM1889.39,2429.68c16.15-49.2,15.87-102.7,2.72-152.01-15.48,51.32-23.98,102.44-2.72,152.01ZM173.04,2296.26c-1.26-6.02-1.69-8.5-1.67-8.72.02-.27-8.7,2.26-10.13,3.12-11.12,6.69-23.78,32.1-8.47,50.42l20.27-44.82ZM1756.47,2470.53c14-47.8,18.62-90.01,3.88-134.04l-10.89,42.43c-8.14,31.72-7.02,64.61,7.01,91.62ZM1771.66,2507.33c33.31-25.34,24.52-142.66,6.29-163.9,9.38,75.38-11.21,109.52-6.29,163.9ZM134.2,2922.36l10.78-41.32c4.37-16.74,9.23-46.79,9.66-63.58-25.26-85.65,9.87-40.11,1.02-155.3-3.24-42.21-9.42-83.78-.14-123.64,13.45-57.81,7.22-114.66.33-173.68l-1.48-12.64c-1.6-13.7-50.38,46.49-31.61,147.3,4.67,25.06,2.03,50.95-1.16,75.03l-6.75,51.01c-10.44,78.91,18.64,144.18-3.65,230.87l23,65.95ZM465.71,2392.38c1.46-5.96-.33-21.4-.59-31.6-11.49,22.97-17.53,50.06-10.32,76.18l10.92-44.58ZM1629.21,2515.88c14.49-47.22,14.46-83.9,7.28-126.44l-15.95,65.08c-4.71,19.21.28,45.09,8.67,61.36ZM1656.69,2409.89l-14.78,132.92c26.97-6.33,22.25-113.38,14.78-132.92ZM105.14,2806.79c12.51-45.17-12.65-114.82-1.7-183.8l7.69-48.44c3.83-24.11,3.82-48.39.87-72.85l-8.35-69.28c-34.32,42.69-33.93,93.01-26.87,140.51,6.51,43.77-1.98,86.43-7.99,130.42-8.93,65.38,17.44,139.33-3.23,219.96l23.61,69.33c3.32-20.87,5.1-31.71,9.69-46.55,25.24-81.67-13.61-67.44,6.29-139.29ZM1508.14,2564.02c10.99-39.62,12.46-70.08,7.35-105.4l-16.57,63.39c-3,11.47,3.72,33.01,9.22,42.01ZM559.42,3222.55c12.87-23.12,5.37-41.3-15.43-50.16-5.14-12.92,12.65-37.72,12.87-50.16l2.11-118.15c.36-20.02-11.61-47.85-17.33-68.37-20.02-71.82-26.2-143.06-14.64-215.72-17.24-62.05-35.38-121.59-44.97-184.76-3.71-24.45-6.22-43.48-16.71-69.09l-15.44,72.01c-11.94,55.68-1.47,39.23-23.12,64.39,3.49,46.4,19.62,102.36,34.15,148.63,8.03,25.57,6.04,45.58,3.79,69.82-8.32,89.7,17.68,172.45,44.33,257.09,7.8,24.76,8.93,64.05-.88,86.89l-24.36,56.77,75.62.81ZM1533.9,2471.6l-13.24,114.6c18.44-2.55,16.65-105.19,13.24-114.6ZM55.55,3009.54c20.56-77.68-9.01-57.72,1.44-107.7,17-81.35-10.23-133.48.5-201.97,6.44-41.07,13.35-79.63,8.31-120.8l-8.18-66.83c-22.7,35.47-32.09,76.99-24.75,119.39,8.42,48.63,2.4,93.74-5.26,142.35-9.05,57.46,14.53,148.24-3.98,214.94l21.96,63.85,9.97-43.24ZM1277.72,2512.64l-6.76,61.33c-.37,3.4-.58,17.81,1.53,15.81l5.52-5.25c.99-.94,15.95-55.51-.28-71.89ZM1392.4,2615.56c8.1-31.48,9.93-62.61,9.42-97.68l-12.18,42.53c-5.26,18.37-9.81,36.6,2.76,55.15ZM1966.89,2532.08l-43.59,2.73c-9.77.61-22.8-3.55-31.91-7.66l1.96,31.7,73.05-1.25c4.83-.08,21.23,4.76,21.3-.04s-.33-16.4-.81-21.49c-.45-4.74-12.84-4.43-20-3.98ZM494.07,3277.49c2.87-15.61,4.65-33.73-1.98-38.54l-18.18-13.21c-3.19-2.32.42-13.77,1.98-17.47l16.26-38.69c-10.23-70.71,11.14-77.56-10.54-141.97-26.53-78.83-36.34-158.98-24.48-241.38l-37.47-146.62c-8.62-33.74-10.22-64.28-21.34-96.93-20.07,39.96-1.47,52.18-22.72,82.26,1.78,15.51,1.78,32.51-12.24,45.33-.46,11.5,1.33,33.32,4.75,45.93l36.12,133.05c-12.58,85.08-1.18,167.19,27.16,249.23,13.7,39.65,26.55,86.94,9.52,126.41l-22.6,52.37,75.75.24ZM1829.43,2599.2c5.9-.02,23.66,4.8,24.07-.89.46-6.33-.33-18.94-1.67-24.49-1.07-4.44-13.55-3.99-18.93-3.8l-74.4,2.57,2.98,26.86,67.95-.26ZM1172.32,2573.32l-6.62,96.26c10.85-6.72,23.17-84.02,6.62-96.26ZM1280.84,2671.04c6.01-27.13,8.52-49.46,8.91-76.27-9.58,24.13-18.85,48.08-8.91,76.27ZM1726.87,2642.76c0-8.69-3.44-24.55-8.29-30.92l-85.92,1.8,2.02,29.81,92.19-.69ZM357.25,3332.02l73.87-.17c1.84-10.34,4.78-33.65-3.36-38.59-8.96-5.44-18.78-9.13-19.63-14.59-4.6-29.51,16.95-4.22,19.71-88.59,1.41-43.1-2.44-78.14-15.57-118.4-23.47-71.94-29.63-145.01-19.88-219.52l-36-140.28c-8.39-32.71-10.92-61.56-24.51-92.2-15.22,45.2.26,37.22-16.68,76.74-1.72,14.5-4.01,27.01-12,40.95-.1,14.28,2.96,39.57,7.43,56.22l33.55,125.04c-13.48,82.3-.12,161.21,26.63,239.89,13.19,38.8,25.04,84.38,8.52,122.52l-22.08,50.98ZM1066.98,2732.4c13.37-37.18,23.51-67.51,3.5-97.45l-3.5,97.45ZM1514.8,2689.13l82.87.38c4.14-1.23,5.32-21.56,1.53-27.73-3.79-6.17-19.31-7.19-27.99-6.74l-61.08,3.21c.43,10.08,2.61,26.32,4.67,30.88ZM372.39,3385.96l.59-37.3c-9.91-2.87-25.74-9.11-26.15-16.47-1.06-19.28,18.42-40.47,19.84-56.77,6.65-76.01,4.85-83.09-19.36-153.71-23.32-68.03-18.68-133.61-18.66-202.97.02-46.31-26.67-93.16-32.66-139.87-3.79-29.57-10.43-53.56-23.76-78.93l-10.67,48.57-7.79,39.02c-2.44,12.25-7.22,25.2-4.5,37.6l34.35,156.17c14.48,65.81-4.65,133.47,19,200.9,16.28,46.41,37.53,107.15,19.07,153.29l-20.86,52.16,71.56-1.68ZM1481.59,2736.77c3.27-2.41,3.66-25.12-1.98-30.68-4.94-4.86-19.1-6.43-27.21-5.77l-58.4,4.77c-.01,9.67,1.79,26.15,3.88,32.08l83.7-.4ZM975.35,2704.22c-2.87,35.88-3.93,62.97-2.82,97.99,12.28-21.73,23.92-76.28,2.82-97.99ZM1370.51,2786.73l-2.76-36.35c-29.84-1.21-55.09-.54-82.66,2.31-2.27,12.18-1.93,26.45.89,33.78l84.54.26ZM882.5,2865.97c16.88-29.74,20.61-64.2,2.85-93.85-3.15,30.51-4.32,57.99-2.85,93.85ZM316.65,3438.42c2.38-10.83,3.64-31.55.46-36.45-12.6-3.22-27.16-8.01-27.18-14.85-.1-35.85,23.95-25.73,23.67-85.34-.6-126.59-48.14-89.94-41.7-317.54,1.25-44.23-24.47-88.12-30.19-131.59-3.84-29.2-11.46-54.52-24.67-78.36l-13.73,62.79-9.09,37.75c8.06,56.64,24.07,110.05,40.53,166.22-10.26,77.7-3.1,151.93,23.03,226.38,13.98,39.85,26.69,87.26,9.61,126.95-6.18,14.36-15.33,29.42-19.68,44.1l68.92-.08ZM1180.39,2838.13l82.17-.03c3.77-8.22.61-38.37-10.9-38.33l-72.97.22,1.7,38.15ZM799.75,2928.05c13.32-29.17,12.25-60.21,1.14-92.38-5.33,29.41-5.67,59.92-1.14,92.38ZM198.67,3490.08l67.87-.44c1.04-11.17,1.78-31.16-1.14-36.1-77.38-9.95,33.56-49.56-14.01-170.14-30.94-78.44-38.26-159.04-28.77-241.2l-41.75-164.04c-2.03-7.99-11.31-22.07-15.51-29.83l-8.96,36.8c-7.13,29.31-12.77,62.25-4.45,93.3l33.66,125.7c-8.39,62.46-4.63,124.64,13.12,185.8,9.95,34.29,37.6,112.8,21.66,149.78l-21.72,50.38ZM1080.95,2891.06l82.08.18-4.02-32.53c-.75-6.07-16.65-9.3-23.2-8.93l-57.59,3.25,2.73,38.02ZM1064.44,2945.33c2.09-13.37-1.06-33.16-8.65-40.84l-66.7-.78c-7.74,9.31-8.48,31.42-2.01,40.93l77.37.69ZM219.4,3540.47l-.04-34.59c-13.67-2.85-24.85-4.75-28.79-9.53-3.94-4.78-1.84-19.57,1.25-25.06l17.79-31.71c9.88-41.88-1.07-80.79-14.31-119.84-24.01-70.79-29.76-140.95-21.07-213.8-12.9-46.04-25.03-89.71-34.26-135.99-3.77-18.9-8.24-37.11-23.26-45.03l-10.18,42.67c-9.27,38.84,2.49,79.02,12.44,116.63l21.37,80.77c-10.86,74.23-.68,142.84,22.68,214.2,11.86,36.22,26.86,77.86,10.14,115.29l-20.18,45.18,66.43.82ZM972.63,2999.48l-4.52-40.98-70.56-.16c-5.74,13.75-5.06,32.79-.05,42.71l75.12-1.57ZM170.75,3554.4c-9.11-1.99-21.67-4.79-25.77-7.56-13.6-9.16,15-46.41,16.96-53.53,10.04-36.36,4.13-76.34-9.1-110.51-27.62-71.31-28.7-139.99-26.44-214.43,1.33-43.84-28.69-87.37-30.01-132.72-.55-18.69-7.12-31.19-22.26-42.07-33.79,78.46,12.25,149.96,22.89,232.97-3.25,68.53-3.15,129.89,21.85,196.39,14.45,38.44,29.28,87.01,10.89,125.97l-18.38,38.96,59.02-1.3c6.42-6.27,9.34-30.21.36-32.18ZM886.05,3054.34c-1.51-12.08-4.94-30.59-8.19-42.17l-68.7,1.71-.75,40.69,77.64-.23ZM135.28,3603.57l-36.72-9.74c19.52-62.29,41.25-75.96,13.14-154.53-24.94-69.71-33.58-139.42-24-212.42l-33.82-135.29c-3.19-12.75-2.38-24.85-18.41-28.3-29.86,46.84,10.06,155.08,26.24,213.91-10.77,70.78-1.11,138.23,21.45,206.61,11.53,34.93,22.36,76.43,7.64,111.39l-15.95,37.87,60.24,1.2.19-30.7ZM803.79,3110.5l-7.58-43.05-66.06.99-2.21,42.39,75.86-.33ZM725.5,3166.76l-6.98-43.47-62.67,1.66-3.8,41.26,73.44.54ZM651.97,3222.41l-6.73-43.68-63.94,1.3-.77,43.23,71.45-.85ZM515.14,3276.03l66.44,2.51c-2.22-18.84-4.55-33.28-7.53-46.05l-54.36,5.53c-8.47,3.35-10.46,30.44-4.55,38.01ZM519.03,3333.19l-10.35-44.9-57.16,3.13-2.8,40.06,70.32,1.71ZM388.74,3385.24l66.54,1.64c-2-17.1-5.35-34.24-9.77-44.43l-52.85,4.11-3.92,38.69ZM399.68,3439.6l-9.91-43.12-53.18,2.61-2.32,39.43,65.41,1.09ZM283.56,3490.44l61.48-1.49-8.44-39.67-47.33,2.94c-5.39,6.41-6.46,27.26-5.7,38.22ZM235.32,3539.36l59.28.42c.83-11.2-3.14-33.26-11.45-39.38l-46.19,3.21-1.64,35.74ZM248.15,3587.24c.71-11.11-4.54-35.22-13.16-35.38l-39.71-.77c-2.12,13.3-3.48,28.64-2.64,36.02l55.5.14ZM206.1,3633.69c-.62-12.54-2.23-27.43-7.61-30.95-12.79-8.36-46.28-4.26-46.59,4.98l-.84,25.06,55.04.91ZM97.43,3676.4l.53-27.89c-20.73-3.89-23.95-4.7-39.79-10.91l-21.96,39.14,61.23-.34ZM166.99,3676.02c-1.21-12.78-2.37-28.11-8.24-28.89l-21.4-2.82c-5.53-.73-22.79,2.68-22.85,8.26l-.27,24.72,52.76-1.27ZM130.24,3717.84c-.94-13.67-1.41-27.26-6.56-27.8l-20.11-2.12c-5.38-.57-17.16,1.8-22.04,4.11-4.88,2.31-2.92,21.92.94,24.05l47.76,1.75ZM96.93,3755.16c1.45-3.03,2.09-21.74-2.77-22.44l-21.62-3.13c-5.76-.83-17.32.72-21.7,3.66-3.5,2.36-2.37,14.25-1.98,21.76l48.07.14ZM67.39,3788.73c2.12-2.38,1.66-19.01-2.64-19.63l-19.42-2.79c-5.11-.73-17.12,2.13-22.11,3.66-4.05,1.25-2.21,16.61,1.87,17.76,9.67,2.72,32.05,2.16,42.31,1Z"></path>
  </g>
</svg>