<?xml version="1.0" encoding="UTF-8"?>
<svg id="Layer_2" data-name="Layer 2" xmlns="http://www.w3.org/2000/svg" viewBox="0 0 1148.44 840.94">
  <g id="Layer_1-2" data-name="Layer 1">
    <g>
      <path d="M548.26,656.04c-4.16.75-7.6.45-9.53-4.62l41.44-9.04c3.8-.83,8.93-1.4,13.01-2.08l4.64-.77c1.22-.2,2.21,4.14,1.23,4.92s-2.8,2.07-3.98,3.15l-23.45,4.2-23.36,4.24Z"></path>
      <path d="M642.83,661.13c-1.23-.85-2.37-5.65-2.11-7.11s3.75-3.87,4.84-2.87,2.5,4.6,2.93,6.19c.48,1.76-3.83,5.06-5.66,3.79Z"></path>
      <path d="M537.23,642.31l-9.26-6.53-1.18-3.82c3.47.15,7.01.24,8.71,1.18,2.03,1.14,2.35,7.76,1.74,9.17Z"></path>
      <path d="M689.52,644.92c-1.74-.91-5.08-3.61-4.47-4.52l2.91-4.32c.82-1.22,4.36,1.27,5.25,2.41,1.11,1.43-2.1,7.26-3.69,6.42Z"></path>
      <path d="M707.04,643.44l-1.61-8.85c3.5.68,5.59.74,5.05,1.83l-3.44,7.01Z"></path>
      <path d="M728.06,639.44c-.95.34-2.48-2.75-1.88-3.58l3.3-4.55,2.22,4.9c.52,1.16-2.45,2.8-3.64,3.22Z"></path>
      <path d="M742.53,651.79c-.27,1.34-4.76-4-3.63-4.66s1.29-.73,5.1-2.63l-1.48,7.29Z"></path>
      <path d="M556.96,632.96l4.47-7.06,3.36,4.14c.65.8-2.92,1.73-7.84,2.92Z"></path>
      <path d="M577.22,658.84c.22,9-2.16,8.74-4.31,1.55l4.31-1.55Z"></path>
      <path d="M580.08,674.58c-1.17,8.15-3.57,8.15-4.74,0h4.74Z"></path>
      <path d="M575.78,636.2c-.33-.86,4.65-1.15,4.25-.29l-1.78,3.79c-.41.87-1.99-2.25-2.47-3.5Z"></path>
      <path d="M380.04,637.76c-2.84.6-5.97.53-7.35-.22-1.72-.94.19-7,2.17-7.21,2.54-.27,6.3-.11,7.91.39s-1.05,6.69-2.73,7.04Z"></path>
      <path d="M255.04,652.4c.22,9-2.16,8.74-4.31,1.55l4.31-1.55Z"></path>
      <path d="M208.86,669.41l-.21-8.73,4.11,3.5c.9.77-1.85,3.29-3.9,5.23Z"></path>
      <path d="M474.13,639.51c.22,9-2.16,8.74-4.31,1.55l4.31-1.55Z"></path>
      <path d="M424.95,634.28c-1.05-.42-4.59-2.06-4.08-2.5l3.76-3.22.31,5.72Z"></path>
      <path d="M326.98,654.24l-.06-6.32c1.69,1.42,3.84,3.18,3.78,3.18s-2.32,1.94-3.73,3.14Z"></path>
      <g>
        <path d="M930.79,493.59c-3.04.47-3.82,9.11-3.81,12.36l.11,80.32-29.03,5.87c-4.33.88-9.02,1.88-13.27,2.51l-17.72,2.6-48.97,9-25.57,2.8-6.64,1.03c-1.8.28-3.02,5.61-3.03,7.53l-.43,80.7-1.18,18.27-.7,61.25-2.58,13.75-.05,17.95-.09,31.39c-6.28-.04-12.64-1.45-16.71-4.52l-19.83-14.97-26.69-18.65-50.38-35.42-12.64-8.88-29.08-20.27-13.56-10.11-10.1-6.96-16.79-11.5c-11.8-8.08-24.44-14.14-32.84-20.3l-29.76-21.82-5.53-5.01c-1.57-1.42-6.28,2.04-8.7,2.58-19.94,4.37-26.61,3.77-52.68,9.17l-27.18,5.63-34.2,6.76-18.45,3.81-35.08,5.17-36.32,6.4-18.77,3.73-33.98,6.58c13.2-2.55-60.25,9.25-43.43,7.38l-24.32,2.71-25.35,5.76c-2.56.58-5.44,1.65-7.16,1.69-7.88.2-4.3-19.36-4.3-19.89l.27-120.03.04-15.22c.05-21.18,1.72-9.5,1.06-32.01l-.58-19.67c-.94-32.14-1.09-64.22.04-96.17.68-19.15,1.93-4.73-25.2-36.11l-14.98-17.32-25.9-27.89-15.16-16.97-11.14-12.46-27.45-30.71-8.35-8.31-15.93-19.33c-5.11-6.2,18.86-6.67,29.78-7.93l30.66-3.52,41.91-3.87,25.64-2.37,14.71-1.36,1.41-18.46c.6-7.91.26-15.27-.16-23.47-.78-15.42.09-30.72.58-45.91l1.09-33.77c12.29-7.02,21.09-4.71,40.91-6.73l23.18-2.37,23.9-1.97c14.36-1.18,33.6,2.9,33.15-7.67l-.75-17.52-.27-64.61c-.02-5.41.84-10.82,1.54-16.05,9.92-1.06,15.67,1.08,23.58,3.67l21.59,7.07,18.39,6.02,13.72,4.77,18.64,6.39,16.36,5.09,24.83,7.51,20.18,6.05c8.83,2.65,16.93,5.76,25.75,8.56l20.28,6.45,13.73,4.32,11.97,3.71c3.18.98,6.3,3.97,8.47,8.79l-31.26-8.75-19.87-4.17-16.21-4.65-26.16-6.62c-3.41-.86-7.72-3.46-11.29-4.54l-19.19-5.83-18.81-6.05-19.56-6.13-22.74-7.52-31.07-10.28c-3.9-1.29-7.29-3.07-11.7-5.61.6-1.75-2.8,3.01-2.8,4.23l-.21,80.06-1.16,7.5c-.26,1.71,6.09,2.85,8.1,2.62l29.66-3.38c8.15-.93,16.09-1.58,24.18-1.86,38.34-1.34,51.18-5.92,78.97-7.21l29.88-1.39,21.62-1.83,40.38-4.29,3.35-4.84c.87-1.26,5.19-.27,6.7.47,12.21,6.04,9.32,2.45,33.86,2.05,6.56-.11,14.1-.92,21.01-1.66l17.33-1.85,19.31-2.06,19.28-2.29,23.77-2.67,21.19-1.95,19.47-1.94,21.51-1.81,28.94-3.14c4.09-.44,9.88-.1,14.01-.36l29.87-1.86,15.31-1.38,40.79-3.47,17.57-1.49,44.79-1.89c8.16-.34,15.24-.37,22.83,2.39l.1,263.63c0,4.24,17.03,10.7,23.11,14.26l20.68,12.13,83.73,49.08,15.54,8.68,13.13,7.8,12.15,7.28,11.62,7.73,10.63,6.5,12.49,7.38c3.68,2.17,8.48,3.74,13.98,5.33,3.91,1.13,5.99,13.18,2.04,13.76l-30.96,4.55-18.14,3.2c-20.45,3.61-18.4,5.12-44.59,9.92l-17.25,3.16-23.78,3.96-29.86,4.62-30.54,5.75c-4.39.83-14.81,1.15-20.42,1.62ZM624.05,109.95l9.39,3.94c7.77,3.26,16.81,4.86,25.03,7.56l15.83,5.2,8.51,4.25,24.23,7.6,27.27,9.53,21.29,6.83,19.25,6.55c4.97,1.69,16.12,8.04,16.16,13.57l.43,57.05c7.22,8.31,19.12,13.69,28.77,19.48l11.82,7.1,11.98,7.25,13.52,8.17,14.77,8.92,25.34,15.31c11.78,7.12,12.88,11.88,21.97,8.14l-.06-184.72-.1-17.06.14-45.47-23.1,1.04-20.27.98c-26.12,1.26-33.67,5.01-51.27,5.57l-39.01,1.23c-5.13.16-11.55,1.01-17.05,1.78l-13.73,1.92c-6.38.89-17.5-1.09-23.02,5.29-1.89,2.18-1.46,8.94-1.6,13.48l-10.42-4.31c-1.86-.77-.06-6.88.72-8.35l6.37,6.33.64-7.68c.11-1.35-4.93-2.77-6.28-2.67l-19.36,1.37c-8.49.6-17.1.78-24.94,2.02l-15.88,2.52c-5.87.93-12.12,1.58-18.25,1.6l-14.48.05c3.14,9.87,20.73,11.38,15.96,16.72l-9.53,10.66c-2.14-1.68-2.65-5.35-1.85-10.01.53-2.33-5.83-3.72-4.09-.14l-5.11,11.39ZM625.49,97.73l3.31-16.44c-3.89.2-13.86.94-18.35,1.44-1.61.18-.24,8.42,1.38,8.36l6.9-.25c2.21,2.26,7.37,7.51,6.76,6.89ZM603.17,86.75c-.46-1.36-6.6-1.22-6.41.15.43,3.19,7.52,3.12,6.41-.15ZM482.05,117.5l-9.05-8.48c3.73-8.59,18.89-7.33,14.32-18l-12.86,6.34c-1.31,5.82-3.31,7.81-6.87,11.15-1.2,1.38-1.62,8.07.01,9.52,2.78,2.47,8.05,1.7,14.45-.53ZM512,109.69l7.45,5.73c3.83-9.04,4.82-15.2,3.63-25.59-8.44-1.56-10.88,19.28-15.43,6.05l-1.63-4.74c-.35-1.01-4.89,1.57-4.75,2.62l1.5,11.1-8.3,7.12c-.81.69-.77,5.38.21,4.93l3.06-1.4c.92-.42,4.77-1.88,4.44-.92l-1.43,4.16c-.7,2.05,1.6,8.31,3.62,7.52,8.23-3.21,2.8-20.32,7.64-16.6ZM783.47,242.39c0-1.64-3.51-6.38-4.59-6.99l-15.83-8.93-25.19-13.85-18.5-9.51c-1.69-.87-3.89-5.37-3.85-7.25s6.39-2.95,8.14-2.08c3.65,1.82,10.65,5.52,14.61,7.91l13.28,8.01,23.31,14.35c2.03,1.25,9.02.79,9.02-2.09l-.04-41.44c0-2.01-1.35-7.24-3.05-7.91-12.2-4.79-.91,2.87-21.34-5.22l-15.52-6.14-21.55-6.79-16.81-6.11-13.48-4.24-20.89-6.77-19.63-6.36-29.21-10.11-18.75-6.13-17.48-6.74c-3.38-1.3-9.68-2.29-12.37-3.89-6.72-4-11.74-5.41-19.09-6.16-3.89.63-21.88-12.67-23.29-5.08-2.06,11.08-1.82,24.16-1.9,35l-.27,33.74,18.5,5.52,16.27,4.87c6.09,1.82,12.18,3.66,17.91,5.89l20.47,7.94c23.53,9.13,7.28,12.36,42.71,8.76,7.64-.78,15.21-.95,22.85-2.12l28-4.3c1.63-.25,5.63,1.95,6.28,3.43,3.75,8.51-19.12,8.27-25.44,8.45l-36.56,1.05c-3.76,3.38,4.88,7.73,13.55,16.23,18.41,18.05,14.62,13.65,27.89,38.71,1.11,2.09,10.87,29.18,11.15,30.96,2.78,17.54-2.2,27.84,6.24,52.71,3.14.72,8.85.86,12.17.44l25.46-3.25,17.19-2.24,23.27-3.12c3.66-.49,6.3-8.37,6.31-11.88l.02-30.62.03-46.66ZM414.22,176.25c37.14-18.5,32.23-8.05,49.14-13.68l13.14-4.37-.75-8.71c1.98-.88,9.05-.63,10.61,1.37,1.44,1.85-1.37,6.1-3.28,9.72l22.4-.92c5.04-.21,10.62,1.48,17.76,3.9l.59-36.42c.04-2.54-2.78-8.56-4.88-9.75-6.49,1.78-3.21,13.79-7.05,14.69-14.88,3.5-3.81-3.79-18.67,3.72l-5.03-7.5c-.34-.16-2.5,4.15-3.08,6.01l-2.59,8.3c-6.14-4.74.75-15.3-3.26-16.08-.81-.16-3.16-.49-3.9-.58l-3.92,6.58-3.9-6.3-6.69,6.41-12.61-17.38-5.06,5.19c-.94.97-4.89.39-5.31-.88-2.34-7.12,10.15-6.35,5.69-19.17l-8.71,7.61c-2.6,2.27-5.32,6.11-8.09,10.42,6.69,4.54,12.62,7.12,19.57,9.4l-1.54,16.39-13.78-4.25,5.49-11.29-20.72-2.22,1.63,11.42c.18,1.24-4.33,2.72-4.81,1.54-.36-.89-1.41-3.93-1.47-4.99l-.27-4.54c-.05-.83,2.22-1.25,4.03-2.18,4.82-3.88,6.56-12.48,5.18-18.65,1.2-2.69,3.66-8.51,4.92-10.98.32-.63-2.27-2.97-2.87-2.48s-2.58,2.2-3,2.81l-5.51,7.9c-2.88-3.86-6.03-7.43-9.47-9.09l-1.14,13.57,9.28-1.37c.9-.13,4.27,1.99,3.7,2.78l-3,4.11c-9.22,12.64-6.62,17.5-8.84,16.75l-3.21-1.08c-2.41-.81,3.32-10.38,1.07-11.44l-5.75-2.72-4.2-2.01c-.59-.28.66-2.49.9-3.26l3.02-9.72-14.15-1.97c-6.04-.43,19.84,29.97,3.36,28.66l-11.22-.9,2.86-7.81c2.01-5.49-1.07-17.27-7.76-20.25-7.33-3.26-5.12,22.12-13.05,12.27l-7.05-8.75-5.61,9.49c-.67,1.13-3.54-3.26-3.94-4.52-.5-1.57-5.19-4.77-5.75-3.23l-1.64,4.48-7.04,15.83-1-18.57c-.08-1.44-5.93-2.42-6.82-1.29l-3.99,5.09-7.94-3.87c-5.26-2.56-11.6,11.15-13.73,8.68l-3.46-4.03c-1.55-1.81-6.46-3.64-8.66-2.76-1.84.73-4.25,4.99-4.12,6.95.34,5.02-.18,11.59-.2,16.47l-.35,95.96,10.57,2.58c3.87,3.96,7.76,7.41,12.16,9.78,21.31,11.45,9.52,9.19,25.09,15.29l8.08-15.46c1.94-3.71,5.51-11.4,8.48-14.13,6.88-6.34,14.94-15.79,22.01-20.64,12.08-8.28,24.37-15.63,36.96-21.9l16.16-8.05ZM432.54,96.41c.68,1.05,2.86,4.44,2.48,3.73s1.79-3.25.98-3.36-3.89-1.04-3.46-.38ZM457.06,104.67c-1.4-1.75-2.24-4.91-3.49-9.13l-4.63,4.16c-2.09,1.88,1.41,9.02,6.16,14.28,1.16,1.28,7.26-2.66,6.18-4.01l-4.22-5.3ZM601.59,100.17c0-1.32-1.07-2.39-2.39-2.39s-2.39,1.07-2.39,2.39,1.07,2.39,2.39,2.39,2.39-1.07,2.39-2.39ZM616.39,108.56l-2.87-10.73c-2.65,3.86-2.16,9.09,2.87,10.73ZM497.49,104.35l-4.59-5.11-5.14,12.54,9.73-7.43ZM270.93,400.39l34.26-5.91c3.79-.65,8.07-3.68,7.54-6.53l-4.61-24.89c-12.46-67.23,13.49-90.96,9.4-99.84-.72-1.56-4.31-4.05-6.03-4.49-14.31-3.65-23.05-11.09-35.78-23.04l-.22,27.73-.03,23.6c-.02,15.3-.29,29.88.42,45.06l1.41,29.82c.24,5.12,3.43,10.88-5.96,13.28-3.02-5.83-2.38-14-2.33-21.35l.37-54.18-1.17-9.89c1.11-9.06,1.25-18.11.55-27.26l-1.4-18.46c-.11-1.48-1.43-5.14-1.97-6.42-.36-.85-3.47.95-4.53.88l-6.33-.45c-1.58-.11-1.63-6.57-.06-6.78l5.45-.73c1.52-.2,7.5-2.41,7.49-4.28l-.34-54.6c-.05-8.49-.77-14.27-2.62-20.51l2.18-4.69c.34-.72-3.23-1.89-3.71-2.51l-3.13-4.03c-2.1-2.7,7.94-4.06,7.76-9.65l-.55-17.26c-.04-1.2-4.98-2.84-5.41-1.72-3.37,8.72.45,13.02-5.08,21.78l-7.32,11.59-3.58-11.97-7.16,3.28-1.5-3.21,8.02-10.21,10.44,6.39-5.21-13c-1.24-3.11-9.51-.06-12.48.19l-31.57,2.67-25.35,1.3-18.17,1.13c-2.4.15-7.72,3.14-7.76,5.69l-1.02,54.84-.18,28.05-.29,23.57c-.02,1.96,3.45,6.26,5.15,6.06,25.5-2.86,28.05-1.14,58.32-5.39,2.16-.3,2.24,7.56.21,7.59-7.36.84-17.08,2.65-24.46,4.42l-9.56.54-27.91,1.57c-1.88,7.88-1.41,20.37-1.34,30.13l.42,59.97c.04,5.47-.15,11.18-.21,17.75l-.52,56.62c-.02,2.17,4.26,5.18,6.08,4.63,18.93-5.71,48.96-9.67,71.05-12.8l22.97-3.26,17.36-.83ZM489.9,119.5c0-1.32-1.07-2.39-2.39-2.39s-2.39,1.07-2.39,2.39,1.07,2.39,2.39,2.39,2.39-1.07,2.39-2.39ZM409.1,189.06c-13.73,15.35-6.77,2.06-29.31,17.67l-14.67,10.16c3.63,1.07,8.49,2.32,10.62,2.08l48.13-5.65,25.3-2.33,21.08-1.56c8.94-.66,18.1-1.44,26.64-2.8l24.06-3.84c2.7-8.98,6.94-30.66-4.41-36.59-1.59-.83-7.27,3-5.94,3.62l5.24,2.45c4.46,3.32,3.12,16.59,1.56,16.57l-4.69-.05.73-10.33-10.32,3.97c-6.3,2.42,3.35,12.83-.62,12.79-1.24-.01-5.27.35-4.98-.85l1.29-5.34c.56-2.32-5.09-5.54-6.31-7.64l-7.29-12.56-12,5.61c-2.22,1.04-6.85,1.22-9.5,1.5l-32.26,3.44c-4.44.47-8.51,4.43-10.68,9.17l-11.68.51ZM500.64,171.05c0-1.32-1.07-2.39-2.39-2.39s-2.39,1.07-2.39,2.39,1.07,2.39,2.39,2.39,2.39-1.07,2.39-2.39ZM566.51,193.07c-1.4,2.22-10.16.46-10.75-1.2l-4.75-12.99c-.48-1.32-5.99-2.92-6.61-1.64s-1.09,4.71-.62,6.12l2.86,8.58-5.26-.53c-4.08-.41,2.65-10.28-4.48-15.4l-7.09-8.02-.95,30.82c-.06,1.94,4.26,4.63,6.02,4.48l23.62-1.95,32.47-2.68,2.41-4.91c.42-.86-2.37-3.19-3.4-3.48l-18.46-5.19-5.02,7.97ZM567.45,180.16c-5.01-.14-7.36-.49-7.02.41l1.76,4.69,5.27-5.1ZM672.88,273.68l6.08,9.55c-2.48,4.3-1.61,10.12-2.6,13.22l-3.77,11.81-4.5,14.04c-.81,2.52-3.74,9.18-6.25,9.66l-19.95,3.82-25.31,5.29-17.74,3.51c-2.14.42-6.83-.9-7.08-2.77-.2-1.5.24-5.86,1.76-5.92l11.25-.48c9.13-9.64,13.74-1.16,17.17-10.3,1.18-3.14,1.75-6.21,3.19-6.26l6.14-.22c4.48-.16,10.4-7.23,14.24-10.9l12.55-12.03c5.29-18.16-4.11-35.83-15.58-49.39l-8.83-10.45-9.03-11.15c-2.89-3.57-7.27-6.72-11.94-9.57l-2.72-10.84-26.35,3.97c-5.14.77-11.18,1.22-16.63,1.47l-30.31,1.37c-2.23.1-5.35.73-6.57,1.75-.81.68-.94,3.83-.94,5.29l-.25,42.61-2.5,22.34.8,29.82c.34,12.64-1.75,23.7-3.88,37.19-.93,5.9,10.83,11.73,16.32,11.73,47.52,0,16.25,1.38,55-5.91,29.94-5.63,48.22,4.17,54.13-13.82l18.9,4c1.92.41,7.82-3.29,7.99-3.94.86-3.07,1.08-3.81,1.07-3.87,0-.03,2.46.83,2.45.74,0-.1.18,2.23.23,3.05.19,2.9,7.84,4.41,10.5,2.87,2.15-1.25,3.47-6.41,2.76-8.87-6.09-20.96-6.19-34.55-8.5-54.65-6.82-12.27-3.16-16.71-10.66-20.1-1.45-.66-6.85,2.57-5.92,4.03l5.31,8.33ZM387.67,293.85l14.8,8,18.09,9.69,21.92,12.47,30.12,16.86,16.07,9.45c5.27,3.1,9.53,5.88,14.86,9.54,4.4,3.02,12.69,3.33,15.63-2.36,2.72-5.26.87-11.33.84-16.72l-.3-53.77,1.04-36.61,1.34-31.84c.06-1.55-1.68-7.33-3.01-6.6l-4.71,2.6-20.6,2.54c-26.22,3.23-27.63.92-54.45,5.59-5.2.9-11.51,2.12-16.58,2.31l-33.98,1.23-32.91,2.39c-21.37,17.83-4.66,7.9-21.62,25.55-1.09,1.13-2.77,4.58-2.74,6.15.09,4.31,2.18-.39,13.64,8.12,9.74,7.23,20.13,13.1,30.7,18.9l11.84,6.51ZM667.53,258.4c.82.83,4.76-1.5,4.82-2.72.38-8.48-13.07-22.23-18.01-28.05l-10.7-12.61c-.99-1.16-6.53-1.97-6.26-.44l1.32,7.73c.72,4.24,8.11,7.37,11.09,9.64l7.96,9.72,1.82,8.71,7.97,8.03ZM795.24,443.65l-5.38-8.03c-.69-1.02-2.88,2.8-2.89,4.06l-.58,61.05c-.03,3.46-.7,9.76.95,10.79l22.26-3.13,25.94-4.63,15.4-2.49,26.7-5.72,18.13-3.88c7.61-1.63,15.04-2.41,23.95-2.78l-.13-171.46c-7.37-2.12-13.45-4.22-18.9-7.5l-12.28-7.39-22.59-13.83-13.45-7.94-25.77-14.98-11.94-7.31-18.51-11.83c-1.15-.74-3.84-3.09-4.18-2.02-.78,2.42-2.3,18.51-2.3,18.51l-.34,68.22c9.77-1.06,16.92-2.21,25.27-3.73l16.86-3.08,17.11-2.32c7.32-.99,15.71-.66,23.28-.66l-10.76,13.67c-4.12-4.92-10.27-6.92-16.47-2.66-3.73,2.56-8.89,2.54-14,1.72l-7.14,5.88c-.76-1.48-3.58-5.95-5.18-5.88l-15.47.71c-4.63.21-7.14.55-13.87,1.26l1.25,37.99c.1,3.06-1.36,8.99-1.92,12.94-.8,5.61-.43,12.04-.52,17.48-.13,7.6-3.48,17.14,3.77,23.04,4.84,3.94,9.1,8.74,3.72,15.94ZM92.5,345.51l17.97,19.97,21.24,23.65c5.57,6.2,9.61,10.85,16.98,17.49l.62-76.9-1.53-11.78-.55-62.91c-.01-1.49-.82-6.53-2.01-6.25l-5.48,1.3c-7.74,1.83-15.71,3.42-23.68,3.81l-43.14,2.07-45.2,1.4c-2.41.07-6.34,5.63-4.51,7.79l14.06,16.64,13.91,16.21,10.83,12.69,30.51,34.83ZM424.18,379.56c3.29-.95,9.74-1.19,13.83-1.81,14.3-2.16,26.44-3.34,41.51-3.93,5.31-.21,11.53-4.56,17.45-9.53-4.15-4.54-9.22-7.34-14.78-10.22l-52.33-27.08-24.83-13.66-13.91-7.65c-8.78-4.83-7.99-9.89-15.88-4.69l-4.57,3.01c-6.08,4.01,4.73-8.47-7.49-15.02l-15.7-8.42c-6.14-3.29-17.83-11.92-16.7-7.86l.96,3.46-5.99,11.47-7.72,8.95,11.28,13.22-7.63-1.5-2.24,16.23c6.26,7.67,3.96,5.31-.67,22.74l-3.06,11.49,8.87,34.47,17.17-1.64c17.28-1.65,6.26-10.32,24.07-15.26,9.54-2.65,17.55-2.18,27.27-1.22l16.1,1.59c2.05.2,4.51,5.91,6.46,5.35l8.54-2.47ZM1108.85,433.42c-11.09-6.3-25.37-12.59-27.63-14.03-4.65-2.95-8.8-5.87-13.37-8.41l-16.53-9.2-16.31-9.47-14.63-8.96-36.51-21.88-32.29-18.95-24.16-14.13-.02,154.19c0,2.82,8.66,1.14,11.4.68l50.68-8.58,30.41-4.62,17.7-3.27,28.52-5.91,29.08-6c2.25-.46,7.05-2.53,9.12-2.8l21.41-2.76c1.62-.21,3.32-5.92,1.94-6.34-.91-.27-3.62-.94-4.47-1.43l-14.31-8.13ZM725.57,479.94c14.85,7.16,19.2,11.66,35.66,20.7l15.91,8.75,1.02-41.85.64-25.84.49-19.2c.12-4.58.62-9.07,1.22-13.67l.27-12.01.47-24.31.49-35.25-12.01,3.48c-6.43,1.87-32.28,5.49-39.41,5.75l-25.83.95c-11.89,13.71-12.03,20.48-10.5,39.61.06.74,7.21,15.66,6.42,24.89-1.28,15.04-6.81,33.78-10.74,47.98-.64,2.33,5.6,5.6,7.73,6.6l10.09,4.7,18.06,8.71ZM693.61,400.92c-14.06,13.59-28.59,7.41-29.92,11.95l-2.21,7.52c-.75,2.55-8.42-1.04-10.47-2.78l-17.1-14.54c-2.16-1.84-3.02-10.34-.58-10.96,12.11-3.08,13.32,12.06,29.8,7.46l14.67-4.1c9.85-4.36,8.65-18.91,4.82-25.51-6.91-11.9,6.66-17.15-8.22-12.11-2.3.78-7.16,1.38-10.96,1.78l-19.02,1.99c-1.91.2-6.13,4.99-4.49,5.89,11.34,6.25,4.86-2.14,27.51.59,1.72.21.49,6.42-1.31,6.11-13.37-2.29-21.52-.17-30.66,6.92-2.36,1.82-8.82,5.42-9.72,8.16-1.78,5.48-1.23,17.67.64,22.77,13.61,37.31.7,8.28,22.49,32.21,4.65,5.11,20.54,7.83,25.91,2.37,12.57-12.78,25.08-28.09,18.84-45.72ZM621.48,371.59l4.52-12.25-14.83.8c1.46,4.64,1.78,6.47,2.52,6.9l7.79,4.55ZM596.27,383.05c.02,2.2,2.16,7.2,3.58,6.32,9.25-5.78,15.04-18.06,8.43-28.28l-25.32.87c-1.98.07-6.27,4.02-5.78,5.78l1.48,5.29,17.46-3.61.15,13.64ZM543.6,375.1c0-1.32-1.07-2.39-2.39-2.39s-2.39,1.07-2.39,2.39,1.07,2.39,2.39,2.39,2.39-1.07,2.39-2.39ZM554.67,379.47c-1.2-1.65-4.81-4.38-5.43-2.79-1.2,3.05-2.12,9.58,0,10.94,2.24,1.45,7.11,3.61,10.38,4.75,2.11.74,7.92-1.91,7.58-3.97-1.25-7.7-7.14-1.54-12.52-8.93ZM391.04,389.8l.66-12.6-9.42.14c-17.75.26-21.62,9.02-19.3,9.74l5.97,1.85c7.8-4.13,11.29-3.15,22.09.88ZM349.84,419.5c-1.69-10.59-4.01-24.23-17.07-22.44-2.26.31-6.93,2.27-7.78,3.85-3.37,6.3,12.7,39.8,18.71,49.23,1.77,2.77,6.43,6.48,9.44,9.71l-8.24,5.48c-9.25,6.15,9.01,24.3,14.71,28.05l13.51,8.86,13.23,8.59c7.53,4.89,15.51,8.51,23.3,12.6l6.67-8.88c3.62,6.27,6.41,11.03,10.52,15.7l12.18,13.84c2.12,2.41,7.77,4.81,11.18,6.4l34.88,16.25,18.93-4.72c1.63-.41,4.06-5.8,2.95-7.06s-3.55-3.8-4.96-4.99l-4.03-3.4c-.62-.52-.25-.44,1.33-4.03,5.08.71,8.68,4.94,9.81,10.58l1.22,6.11c.24,1.2,4.7-1.22,4.8-2.42l1.32-16.01c.63-7.66,1.02-15.04,1.2-22.2l2.27-10.64c-.22-29.66-17.84-30.83-10.81-43.13,1.76.31,9.25.27,9.59-1.56.92-5.03.3-15.76.14-21.4l.53-13.05-17.33-1.69c-6.93-.67-5.45-12.47-8.96-20.33-2.41-5.38-4.62,8.45-7.04,7.98-1.34-.26-3.59-1.48-4.69-2.27-5.78-4.17,9.41-2.61,11.39-12.37,21.47,6.47,14.53,18.25,45.88.23,5.18-2.98,6.92-13.33,2.82-15.63l-12.58-7.07-8.92,5.67c-7.51-.21-12.8,1.74-18.26,5.48l-8.38,5.73-6.96-8.02-4.41,9.4-2.84,6.11c-.5,1.08-4.75.33-6.79.08-2.3-.28-6.73-3.9-6.59-6.17s3.3-6.67,5.52-6c1.59.48,5.83,1.56,6.73.76,2.76-2.46-2.63-12.04-6.09-10.87-8.37,2.82-14.45,3.65-23.32,3.9l-9.05,8.08c-6.08.59-16.17.93-21.1-1.29l-10.81-4.87c-2.28-1.03-8.9,3.18-8.51,5.68.32,2.08,2.37,5.62,4.27,7.78l13.73,15.54c1.37,1.55,1.86,7.44.07,7.52-2.52.13-7.67.79-8.65,2.57l-7.24,13.21c-1.53,2.8,2.08,10.81,4.42,12.99.8.75,5.83-.5,5.52-1.56l-1.81-6.23c-1.1.6.58-.31,4.23-2.3,3.8,5.62,6.28,13.41,5.83,19.43l-9.11-1.58-1.27,14.44-4.96-1.21c-3.72-6.19-9.03-11.51-15.88-13.31-3.67-.96-12.03,7.49-10.85,10.71l14.48,14.22c7.83,7.69,18.1-1.62,21.56-8.04.9-1.68,6.71-4.04,7.28-2.42.46,1.31.68,4.8.29,6.19l-5.12,18.2-1.52,5.45c-.23.82,2.24,2.12,3.16,2.73l3.17,1.49c.73.34-.74,5.18-1.54,5.09-5.49-.58-25.17-9.3-28.89-11.69l-10.29-6.62c-.44-3.17-2.16-7.92-4.63-10.44-14.78-15.07-2.42-19.52-13.2-27.56-13.54-10.09-9.01-16.25-12.23-36.43ZM575.62,390.21c-1.41.69-4.28,5.65-2.71,5.93l6.27,1.14c1.54.28,1.94-5.01,1.09-6.33-.57-.88-3.7-1.2-4.64-.74ZM615.89,390.36l-4.31,1.55c2.15,7.19,4.53,7.45,4.31-1.55ZM368.93,400.92c.52-.96-2.03-7.9-2.85-7.37s-2.16,1.35-3.47,2.29c-5.63,4.05-8.19,13.19-.69,18l7.02-12.93ZM369.19,439.71c-1.22-5.99,2.52-13.98,7.29-18.71l11.18-11.08c1.65-1.64,1.55-9.04-.35-10.39l-7.54-5.34-16.03,25.39c-4.91,7.79-2.11,32.85,9.92,40.87,3.12-1.95,5.14-10.33,2.92-12.73l-7.4-8.01ZM586.42,439.14c1.31,1.81,2.65,5.04,2.66,6.51.08,7.69-9.53-3.49-13.36,2.14-1.03,1.52.15,7.69,2.03,7.81l25.32,1.69c22.92-9.63,8.58-40.41,1-57.1-6.18-.3-14.9-.5-18.81,1.25l-10.48,4.7c-5.66,2.54-9.23,5.85-13.53,10.58l-8.97,9.87-18.85,2.87c-6.2.94-10.97,10.18-10.71,16.08l.85,19.35c3.85,8.29,13.9,6.08,18.53,1.6l12.07-11.68c5.65-5.47,24.86-25.84,32.24-15.66ZM346.28,553.38l-13.81-10.5-13.72-7.97c-7.93-4.61-14.81-10.42-19.62-17.43-1.61.35-7.03,1.73-8.25.55l-9.68-9.31c-1.18-1.13-1.75-5.37-.23-5.93,1.14-.42,5.38-.64,6.3.13l11.43,9.6c2.34,1.97,6.44,3.54,8.58,4.99l30.22,20.46,47.23,32.28c5.58,3.81,10.47,13.44,18.24,10.69,16.88-5.97,4.42.97,34.79-5.81l29.46-6.58.72-3.72-16-6.35-12.51-4.49-11.02-10.44c-6.09-5.77-11.2-8.07-19-11.73l-12.85-6.03c-19.37-9.1-43.89-27.77-59.54-43.02-2.44-2.38-2.44-11.21-2.46-14.71l-.08-16.82c-8.05-13.16-13.47-26.35-16.57-41.46-2.43-11.87-11.71-5.77-27.71-3.26-2.76.43-11.45-1.42-12.13,1.53-1.62,7.08-1.76,15.84-.88,22.25l2.24,16.38c.45,3.3-4.62,9.44-7.82,9.83-5.41-7.07-4.22-13.72-3.14-21.79l2.79-20.74c.19-1.38-1.19-5.89-2.47-6.26-.85-.25-2.87-.16-3.81.14-15.74,5.07-31.56,6.09-48.12,7.71l-21.52,2.1-24.04,2.01c-1.93.16-5.49,1.68-8.79,3.33,5.38,6.98,9.59,12.62,15.37,18.77l10.43,11.11,12.21,13.68,8.37,9.02,18.49,19.98,22.53,24.66,14.38,15.73,12.25,13.6,25.76,27.97,11.35,12.32c3.77,4.1,8.79,6.14,14.44,5.03l45.58-8.93,19.19-3.88-26.89-17.29-19.69-11.39ZM388.97,425.01c.29,1.53.77,3.94,1.48,3.14l2.45-2.79c.46-.53-4.07-1.07-3.93-.35ZM430.01,604.59c-1.93-1.56-21.26-20.38-25.21-13.1l-3.19,5.88-1.96,3.62c-.36.67-2.59-.58-2.96-1.23l-4.45-7.91c-6.73,2.27-10.62,3.26-16.26,3.52l-12.58.59-1.08,12.53c-.55.16-3.82-.41-3.94-1.45l-.44-3.77c-.18-1.51-.57-3.07-.95-4.23s-6.14-1.17-6.46.01l-2.43,8.83c-5,.51-7.15.86-12.26,2.21.15.24-1.32-2.07-3.9-6.14l-4.23,7.47c-3.27-1.14-9-4.06-11.44-6.58l-11.83-12.24-9.54-9.61-17.8-19.05-13.24-14.5-10.24-11.42-9.12-10.1-20.35-22.56-13.25-14.66-11.28-12.57-17.34-19.32-13.13-14.75c-6.6-7.42-14.57-21.4-14.81-6.85l-.53,32.37.76,27.84-.3,55.83-.45,19.46.63,17.38.27,120.45c0,2.31,1.74,6.7,3.21,6.68s4.83-.17,6.54-.45l19.6-3.09,15.61-2.83,23.68-4.29,18.57-3.41,25.58-4.43,24.03-3.82,57.42-10.49,18.58-3.5,12.54-2.34,41.35-7.4,36.59-6.54,38.24-6.82c1.8-.32,5.95-3.45,4.81-4.48l-3.36-3.05-10.85-6.72c-2.62-1.62-7.48-6.89-10.5-8.55l-16.15-8.86c-.99-.55-4.83,2.91-3.84,3.46l4.75,2.64c1.07.59,2.95,2.56,3.73,3.48s-4.33,3.29-5.16,2.4l-8.3-8.89c6.3-14.27-6.23-12.43-21.39-24.69ZM400.57,451c-4.4-4.32-11.42-10.44-15.1-13.38-6.05,10.2-.5,13.95,5.36,17.45l5.67,3.39c1.33.79,5.3-6.25,4.07-7.46ZM629.99,450.16c.56-2.83-2.05-9.19-4.08-10.83l-2.79,16.95c-.2,1.22,5.05,3.17,5.28,1.96l1.58-8.08ZM634.71,438.97c-.39.96-1.91,4.28-1.56,5.19l5.09,13.1c2.77-2.19,6.1-4.41,6.01-6.29-.24-4.99-7.61-16.7-9.53-12ZM656.39,485.08c2.57.88,7.35,3.17,8.04,4.88,1.11,2.74,1.43,10.68-.32,13l-10.03,13.31c-4.1,5.44-4.73,15.19.8,20.86,6.13-4.48,13.05-11.88,15.18-18.18l7.43-22.01c2.13,6.47,2.77,14.2,1.1,17.8l-8.46,18.17c9.82-1.37,14.02-1.88,20.68-3.19l23.98-4.74,44.05-8.72c1.8-.36,5.64-3.41,4.92-4.71-.48-.87-2.06-3.34-2.96-3.78l-10.3-4.97-18.96-9.42c-3.99-1.98-8.58-4.21-12.95-6.79l-24.88-14.71c-7.49-4.43-5.26,11.17-13.55,12.33-1.21-6.74-1.61-15.85.95-20.33l7.24-12.66,2.32-4.07c.5-.87-2.33-3.16-2.96-3.26l-10.7,7.56c-1.99,1.4-.33,6.34-.14,12.34l-13.48-8.89c-1.51-1-7.77-1.12-8.25.51-3.81,13.19,5.28,16.74-.51,25.04l-6.38-7.78c-1.33-1.62-7.67-1.16-8.63.55l-5.38,9.65-14.99-12.48-3.11,13.69-4.45-5.37c-4.96-5.98-14.34-8.66-21.35-2.86-5.36,4.43-11.51,10.34-13.27,16.37-.36,1.23,2.62,2.65,4.83,4.18,1.81,1.25,2.47,6.08,1.65,8.13l-1.94,4.8c-.38.95,4.27,2.93,5.17,2.57l15.05-5.97,19.83-.3,2.03-10.08c4.1,5.46,10.09,9.17,17.42,8.99,5.76-.14,13.7-6.48,13.9-12.69.07-2.29.03-7.24,1.37-6.78ZM578.02,469.61c0-.76-.62-1.38-1.38-1.38s-1.38.62-1.38,1.38.62,1.38,1.38,1.38,1.38-.62,1.38-1.38ZM529.9,487.88c-1.99-1.87-4.77-4.46-4.9-3.53l-.89,6.01c.62,4.91,2.75,3.68,5.8-2.48ZM573.22,504.55c-.58-4.7-4.64-20.67-13.38-21.23l-9.61,13.05c-5.06,6.87-3.49,18.38,3.48,20.4,4.17,1.21,20.12-7.35,19.52-12.22ZM784.67,583.12c-1.08,3.94-1.39,14.37-.92,19.09.17,1.7,8.06,1.42,7.68-.25-2.88-12.73-9.32-9.03-3.28-10.95l14.76-4.7,1.4,12.2c4.43,2.48,12.82-.98,17.34-4.54,4.48,1.01,10.5,1.84,15.04.94l31.25-6.23,16.94-2.97,17.82-3.02,10.85-1.62c4.5-5.21,6.08-31.98,6.11-40.6l.14-38.84c0-2.8-6.73-4.26-9.19-3.82l-28.28,5.08c-6.65,1.19-12.65,3.79-17.17,7.9l-11.95-3.35-5.15,6.13c-25.46-1.83,6.14,5.54,1.56,14.66l-6.07,12.1-1.78-14.88c-8.62,8.61-19.6-3.68-16.38,6.84.37,1.2,2.23,3.68,3.49,3.69l5.92.06-7.53,11.44c1.84,1.57,5.26,8.21,3.05,9.02s-7.17-1.18-9.04-1.78c-4.82,1.07-9.82,1.41-16.03,1.08l-3.82,7.26c-3.76.41-8.36.39-8.95,2.32-3.98,13.19,4.02,11.28-7.78,17.72ZM566.91,544.08c-.47,1.57-3.84,3.7-4.68,2.78l-2.82-3.1-3.71-4.34c-.6-.7-4.19,1.78-5.1,1.75l-10.72-.35-10,2.8.43-8.86c8.7-2.24,18.92-11.71,17.49-17.11-.43-1.62-3.31-2.47-6.9-3.85-9.24-3.56-2.47-14.87-9.81-13.09-2.92.71-6.18,1.5-7.49,2.18s-1.4,4.55-1.36,6.17l.44,18.68c.33,14.11-2.47,27.51,3.91,29.83l32.57-5.18c9.13-1.45,17.68-2.35,27.17-3.18l4.75-.41c1.1-.1,1.25-6.52.28-7.04-3.58-1.91-20.31-11.63-22.37-4.69l-2.07,6.98ZM637.67,521.99c1.52-1,4.07-5.6,2.84-6.72-5.58-5.1-12.3,2.23-15.78,7.4,1.71,1.69,5.73,4.07,7.14,3.14l5.8-3.82ZM831.64,515.95c-.17-1.17-5.63-2.92-6.1-1.83l-2.22,5.21c-.65,1.54,3.99,6.34,5.88,6.45s2.78-7.45,2.44-9.82ZM587.63,530.13c5.33.88,12.27,1.57,16.74,1.36,2.04-.1,5.66-5.04,5.05-7.02-3.07-9.97-44.08-4.9-42.96-.17.22.91,2.36,2.72,3.28,2.87l17.89,2.95ZM506.34,590.59c5.08-12.77,4.8-3.43,8.74-13.95.58-1.54-4.44-5.61-5.34-4.41l-4.3,5.69c-.59.78-3.37-.43-5.29-.76l-1.84,14.75-5.98-6.4c-.3.43-1.98,4.25-2.72,6.35l-3.28,9.32-1.66-17.87c-.1-1.12-3.21-4.43-3.74-3.43-4.39,8.3.62,15.54-1.57,25.49-.21.94-4.01-.17-4.29-1.09l-3.25-10.57-6.51,3.34-5.41-7.78c-1.95-2.81-11.44-2.57-13.56.01l-7.04,8.59c-1.25,1.52-1.88,6.81.11,7.48l6.23,2.09c.83.28,1.06-3.02,1.4-5.25l2.09-2.34,9.18,17.5c1.78,3.38,10.53,5.4,13.51,7.82l11.9,9.69c2.94,2.39,10.49,4.39,13.05,6.68l14.29,12.79c1.88-2.23,4.47-7.67,4.33-10.07l-1.35-24.06c-.14-2.43,1.31-7.72,2.02-11.14l4.87,5.49-.05,35.6,6.29,13.87,21,13.87,16.33,11.33,14.45,8.87,22.07,14.78,14.19,9.63,34.65,23.57,19.96,14.13,25.59,17.42,15.03,10.58,29.31,19.85,23.22,15.73c1.2.81,3.62,1.98,4.78,2.49.78.34,1.68-3.5,1.76-4.48l1.44-19.58c.33-4.49.74-9.97.77-14.52l.58-85.78c.06-8.51,2.44-12.78,2.67-26.46l1.44-85.61,1.58-36.83c.18-4.14-2.16-10.97-3.6-14.6,3-5.4,4.69-14.24,1.38-19.21-7.59,4.7-13.57,7.27-21.79,7.71-26.88,1.44-5.29,4.72-25.13,6.43-7.1,13.5-6.04-.04-14.67,12.46-1.84,2.67-3,4.13-4.12,5.02-.84.67-4.21-1.7-4.14-2.76l.48-7.31-10.72-6.48c-.98-.6-3.61.21-4.72.59s1.5,4.25,2.61,4.56l4.91,1.4c1.01.29.29,4.35-.15,5.4l-5.5,13.08-3.68-7.53-6.51-15.66c-3.59,2.09-7.19,6.48-9.25,10.18l-2.28,4.08c-2.22,3.98-6.15-35.17-12.69,22.23-.8,7.04-6.61,12.85-11.56,17.92-10,10.24-9.7-.66-23.65,9.49l-6.21,3.93c-12.39,7.85-2.15-3.04-18.38,6.23-.94-.51-1.64-7.94.56-9.27l13.3-8.01-9.68-7.39,5.88-8.02c8.94-12.18,3.74-22.45.05-22.2-12.42.82-7.24,9.08-28.94,12.38l-5.21,1.59c-3.25.99-2.45-11.18-4.9-10.83l-5.17.73-43.58,5.21,1.13,22.12c.21,4.11,18.45,10.83,24.86,8.09l-7.31-5.78-4.9-4.03c-.81-.66,3.26-2.4,4.29-2.15l14.4,3.54c1,.24,4.64,2.23,3.83,2.63l-3.99,2c-21.81,10.94,31.76,14.1,38.26,13.57-1.17,3.87-3.9,8.33-6.25,10.84l-10.7-6.04-4.22,6.3c-4.15-5.29-8.05-7.97-13.81-8.59-21.78-2.36-2.52-3.95-25.43-5.54l-5.55-7.78-8.05,4.39-3.98-9.96-7.19,2.65ZM805.64,525.46c0-1.32-1.07-2.39-2.39-2.39s-2.39,1.07-2.39,2.39,1.07,2.39,2.39,2.39,2.39-1.07,2.39-2.39ZM802.6,538.29c-.46-2.3-1.48-7.19-2.39-6.81l-5.47,2.3,1.41,6.57c.27,1.25,6.69-.85,6.45-2.07ZM625.78,542.47c1.72-.23,6.08-1.74,5.77-3.41l-1.11-5.92-14.2,2.01c-3.24.46-7.24,3.93-10.37,7.54,12.11,8.9,6.76,1.52,19.9-.23ZM713.29,536.49c0-1.16-.94-2.11-2.11-2.11s-2.11.94-2.11,2.11.94,2.11,2.11,2.11,2.11-.94,2.11-2.11ZM809.63,542.88c1.62-1.05,4.56-2.53,4.03-3.42l-3.34-5.56-.69,8.97ZM626.36,589.13c15.69-2,25.65-20.54,26.44-25.25l2.79-16.72c.3-1.78-2.06-7.26-3.69-6.76s-4.81,2.98-5.71,4.69l-5.91,11.22c-1.87,3.56-3.16,8.62-4.21,13.53l-7.4,4.28-9.94,10.57c-1.49.14,5.19,4.74,7.62,4.43ZM794.07,555.48c4.25-.77,8-1.78,7.16-3.2l-3.44-5.87-3.72,9.07ZM487.54,575.74c.33,1.76.99,4.11,2.1,5s4.9.27,4.61-1.14l-1.13-5.41c-.19-.93-5.75.63-5.57,1.55ZM468.27,580.14c.47,1.09,2.61,4.4,2.79,3.77l.7-2.54c.18-.65-3.75-1.81-3.49-1.23Z"></path>
        <path d="M673.56,633.39c-8.34,2.11-42.03,10.61-48.79,6.28,3.75-3.81,7.97-7.08,10.82-7.33,11.07-.97,19.2-2.43,29.21-4.39l13.84-2.71,40.66-7.56c5.85-1.09,13.57-1.5,18.78-2.82l24.19-6.15c3.37-.86,6.29-.75,9.77,4.12l-27.85,7.82-5.08,6.99c-5.11-2.73-10.87-4.32-15.9-3.35l-19.88,3.8c-9.69,1.85-19.82,2.79-29.76,5.31Z"></path>
        <path d="M756.45,552.52l-1.73,5.33c-3.78,11.66-.52-3.24-3.03-8.22l-2.96-5.86c-.83-1.64,5.41-3.36,7.17-2.87.95.27,3.36,3,3.07,3.88l-2.52,7.74Z"></path>
        <path d="M508.49,613.28l-7.99-8.44c-1.02-1.08-.39-4.97.87-5.83s6.38-1.39,6.62.09c.47,2.94.54,8.31.5,14.18Z"></path>
        <path d="M681.96,562.04c-.05.92-1.76,3.22-2.09,2.35l-1.58-4.29-2.16-5.89c-.44-1.21.8-3.42,1.7-4.33s4.69,1.96,4.62,3.17l-.5,8.99Z"></path>
        <path d="M727.17,551.09c-.33,1.78-1.46,4.82-2.24,4.16l-3.92-3.31c-.82-.69-1.23-4.87-.2-5.11l4.12-.96c1.39-.32,2.5,3.81,2.24,5.22Z"></path>
        <path d="M733.56,573.15c-.29,2-1.58,6.74-2.29,6.19-.95-.74-3.69-2.95-3.97-4.13-.4-1.65.82-5.7,2.05-5.78s4.4,2.48,4.22,3.72Z"></path>
        <path d="M573.59,595.18c-1.41-3.57-.69-8.69,1.69-9.12,1.31-.23,3.97,4.6,2.93,5.43l-4.62,3.69Z"></path>
        <path d="M587.94,594.17c-1.27-1.04-4.47-4.59-3.53-5.07l4.87-2.49c1.03-.53,2.24,2.84,2.09,3.94-.19,1.38-2.37,4.48-3.43,3.62Z"></path>
        <path d="M466.9,604.8l-2.12,4.26c-.47.95-4.09-2.79-3.46-3.67l3.15-4.4c.56-.78,2.86,2.94,2.43,3.81Z"></path>
        <path d="M471.95,610.05c.26-.91,2.93.8,3.54,1.55s.63,3.76-.35,3.89l-3.23.42c-1.28.17-.36-4.49.03-5.86Z"></path>
        <path d="M744.24,593.15c-.22-.67,3.48-.45,4.1-.75.93-.45.64,2.88.23,3.83s-3.14,2.07-3.27,1.04-.68-2.97-1.06-4.12Z"></path>
        <path d="M555.49,613.53c-.23-.86,4.46-2.02,4.65-1.11l.61,2.95c.19.92-2.55,1.51-3.46,1.64s-1.38-1.92-1.8-3.48Z"></path>
        <path d="M561.74,590.89c-.22-.65,4.02.22,4.09-.46.11-1,.1,2.59.11,3.84,0,.93-2.52,1.69-2.84.75l-1.36-4.12Z"></path>
        <path d="M624.35,625.43l-3.89,3.05c-.12-.81-.4-2.74-.49-3.27-.12-.76,1.03-1.41,1.82-1.56.75-.15,3.18,1.29,2.55,1.79Z"></path>
        <path d="M498.49,622.36c.58-.54-1.39,2.14-1.58,1.62l-1.14-3.09-2.59-7.04,2-2.68c.46-.62,1.93,1.48,2.04,2.26l1.27,8.93Z"></path>
        <path d="M708.5,594.28c-2.53-2.23-5.11-4.4-4.27-5.16l4.26-3.86v9.02Z"></path>
        <path d="M683.18,573.63c-1.17,8.15-3.57,8.16-4.74,0h4.74Z"></path>
        <path d="M746.91,555.75c.22,9-2.16,8.74-4.31,1.55l4.31-1.55Z"></path>
        <circle cx="755.99" cy="600.63" r="2.39"></circle>
        <path d="M759.05,584.04c-.45-.67,2.63.22,3.44.31s-1.36,2.65-.98,3.37-1.88-2.83-2.46-3.68Z"></path>
        <circle cx="673.3" cy="583.45" r="1.38"></circle>
        <circle cx="598.12" cy="592.04" r="1.38"></circle>
        <path d="M396.63,637.06c-5.21.43-10.48-13.86-6.8-20.39l-5.98-3.58-.17-4.14c-.1-2.31,13.27.08,13.19,6.67l-.24,21.43Z"></path>
        <path d="M375.43,613.74c1.62,1.87.43,8.3-1.45,9.88-2.82,2.37-6.35,1.38-11.57-1.94l8.77-12.84,4.25,4.9Z"></path>
        <path d="M417.09,626.19l-12.67,3.34c-1.78-1.75-.08-11.3,4.03-12.53,5.06-1.52,10.24,5.74,8.64,9.19Z"></path>
        <path d="M342.26,640.86c-3.62-1.86-7.55-4.52-7.47-6.46.14-3.39,3.77-8.54,6.96-10.85,1.15,5.85,1.18,10.24.51,17.31Z"></path>
        <path d="M362.64,628.77c.29.27-2.97,4.77-6.31,8.65l-2.74-11.96-5.76-2.58c-1.3-.58,1.32-5.52,1.54-4.68l13.26,10.56Z"></path>
        <path d="M229.17,544.06c-2.01,2.31-7.18-5.26-5.4-7.46.95-1.17,5.39-.49,5.95.89s.51,5.34-.55,6.56Z"></path>
        <path d="M431.87,630.76l-.33-5.06c-.07-1.03,4.3-2.65,4.41-1.55l.62,6.21c.13,1.27-4.62,1.61-4.7.4Z"></path>
        <path d="M258.92,565.03c-1.43.02-4.85-1.54-4.44-2.36l2.3-4.65c.42-.84,3.36,1.17,3.7,2.05.45,1.17-.27,4.95-1.55,4.96Z"></path>
        <path d="M267.26,587.09c-3.32,5.13-3.5,5.52-3.57,5.47-.08-.06-2.59-1.97-3.11-2.36l1.39-3.65c.36-.96,3.64.11,5.3.55Z"></path>
        <path d="M321.3,619.18c.03-.93,3.63.89,3.51,1.81l-.4,3.06c-.12.92-3.34,1.58-3.3.65l.2-5.52Z"></path>
        <path d="M183.71,485.58c-1.12,1.37-1.78-4.84-.89-6.32.57-.95,5.02,1.24,4.32,2.1l-3.44,4.22Z"></path>
        <path d="M239.14,560.94c.03.08-1.12-4.21-1.82-6.82l3.87,1.54c.94.37-.45,2.67-2.05,5.28Z"></path>
        <path d="M213.81,522.17l-4.87,4.73.15-7.39c.02-1.08,5.48,1.92,4.72,2.66Z"></path>
        <path d="M183.35,543.21c.56-.71,5.04-2.12,4.72-1.28l-1.49,3.98c-.41,1.08-3.97-1.76-3.23-2.7Z"></path>
        <path d="M306.19,613.06c-.73,1.42-3.08-5.1-1.57-5,.8.05,4.05.37,3.9.46-.27.17-1.87,3.63-2.34,4.54Z"></path>
        <path d="M311.28,623.74c.58.66-3.12,3.96-3.26,3.02l-.93-6.07c-.14-.9,3.06,1.77,4.19,3.05Z"></path>
        <path d="M171.52,471.07c-1.13-.48-4.6-2.08-4.09-2.53l3.76-3.24.32,5.76Z"></path>
        <path d="M191.99,493.87c-.45-.66,2.65.18,3.46.27s-1.48,2.74-.98,3.37-1.98-2.9-2.48-3.64Z"></path>
        <path d="M680.83,92.93c-.51.67-3.42,2.25-4.9,2.98-.37-3.56.09-8.9,2.31-10.11,2.4-1.3,3.91,5.38,2.59,7.13Z"></path>
        <path d="M660.12,99.47l-3.64-.22,1.58-5.57c.26-.91,3.79.29,3.51,1.18l-1.46,4.61Z"></path>
        <circle cx="698" cy="93.73" r="2.39"></circle>
        <path d="M218.92,132.16l3.62,2.16c.87.52-.66,2.85-1.57,3.3s-3.73.77-3.66-.24c.09-1.41.45-5.92,1.61-5.22Z"></path>
        <path d="M199.8,124.01l4.23,1.78c.74.31.24,1.81-.21,2.43s-3.88,1.44-3.9.65l-.12-4.86Z"></path>
        <path d="M217.6,123.26c.55,5.57.58,5.91.09.94-.21-2.41-.28-3.27-.09-.94Z"></path>
        <circle cx="214.72" cy="253.75" r="1.38"></circle>
        <path d="M850.95,355.94l-5.03.47-2.17-12.13-.56-3.14c-.16-.88,4.22-1.49,4.85-.86,2.8,2.8,3.47,10.11,2.91,15.66Z"></path>
        <path d="M813.15,403.14c.26.75,8.75-1.71,7.44,1.75l-2.35,6.21-11.51-9.18c-.83-.66-2.36-3.28-2.65-4.22s2.18-2.18,3.15-2.33c1.29-.2,3.89,2,4.3,3.19l1.61,4.59Z"></path>
        <path d="M796.77,366.8c-1.82-.89-4.01-5.61-3.67-7.45s3.27-5.31,5-4.62c2.1.84,5.47,5.71,5.02,7.75s-4.47,5.23-6.35,4.31Z"></path>
        <path d="M811.16,350.09c.23,1.71-7.14,2.22-6.86.57l1.35-7.75c.18-1.04,4.32-1.51,4.47-.47l1.04,7.65Z"></path>
        <path d="M823.97,360.21c-3.48.93-8.08,1.22-8.97-.34l-2.85-4.99c-.68-1.18,4.82-3.01,5.7-1.96l6.12,7.29Z"></path>
        <polygon points="825.04 380.61 818.39 388.78 817.51 377.56 825.04 380.61"></polygon>
        <path d="M821.83,462.51c.29-.5-2.07,3.59-2.83,4.91l-5.7-10.61c-1.2-2.24-3.16-8.02-4-10.76-.27-.88,3.74-3.35,3.82-2.4l.45,5.03c.41,4.63,2.73,8.46,8.26,13.84Z"></path>
        <path d="M799.45,423.27c.52-.79,4.72-.14,4.6.8l-.66,5.23c-.16,1.27-3.94-.35-4.71-1.36s.06-3.6.77-4.68Z"></path>
        <path d="M860.83,374.27c-.93.31-5.5-1.33-4.82-2.56l3.05-5.47c.75-1.34,1.67,4.32,1.77,8.03Z"></path>
        <path d="M828.69,400.23l5.67-.34c1.22-.07-.32,3.79-.74,5.47-.3,1.19-3.42-.16-3.77-1.31l-1.17-3.82Z"></path>
        <path d="M858.48,346.83c.72-.13,2.57-.35,3.29-.36,1.04-.01,1.31,2.75.79,3.66s-3.44,1.51-4.01.63-1.09-3.73-.06-3.92Z"></path>
        <path d="M842.39,384.48c.54-.37,2.79.09,2.73.75l-.39,4.49c-.08.98-3.24-1.16-4.16-1.51s.97-3.16,1.81-3.73Z"></path>
        <path d="M855.02,427.57c-1.17,8.16-3.57,8.15-4.74,0h4.74Z"></path>
        <path d="M806.57,476.19c-.81,2.06-1.97,4.98-2.24,4.42l-2.6-5.39c-.52-1.08,5.39-.44,4.84.96Z"></path>
        <path d="M868.46,423.8l-3.63-.22,1.58-5.57c.26-.9,3.8.29,3.52,1.19l-1.46,4.6Z"></path>
        <circle cx="829.02" cy="420.21" r="2.39"></circle>
        <path d="M873.6,464.44c0,.68-4.37-2.06-3.82-2.49l3.84-3.04v5.53Z"></path>
        <path d="M794.12,464.44c0,.68-4.37-2.06-3.83-2.48l3.85-3.05-.02,5.53Z"></path>
        <circle cx="803.24" cy="462.09" r="1.38"></circle>
        <circle cx="795.73" cy="420.21" r="1.38"></circle>
        <path d="M582.47,344.83l-.72-7.4,4.7,2.68c1.2.68-3.84,6.1-3.98,4.72Z"></path>
        <path d="M470.81,527.84c-1.43-1.15-6.31,4-7.89,4.95-1.15.43-3.21-4.58-2.07-5.68l3.2-3.08c2.23-2.15-3.51-.98-4.38-9.99-.13-1.37,2.27-1.65,4.55-2.36l2.24,10.23,13.88-.78c.81-.05,3.39-3.13,2.61-3.36l-4.34-1.29c-1.47-.43-4.97-2.09-6.33-2.92-1.63-.99-1.03-4.61.14-8.62l8.48,4.93,4.74-1.15-3.76-9.21c-.49-1.21.26-4.78.7-5.92.59-1.52,4.64,1.43,5.87,3.14,6.66,9.27,12.99-1.38,13.91,2.35l.92,3.71c.16.67-5.23,7.49-14.97,5.18l-.42,8.27c-3.46,17.12,7.39,11.34,3.88,20.81-.46,1.25-4.46-.65-5.09-1.8l-4.73-8.66-4.03,6.93-7.11-5.7Z"></path>
        <path d="M480.8,461.52l-8.74,2.46-9.61,2.7,4.81-13.89c-8.47-1.73-14.02-3.23-15.15-8.97-1.28-6.48-2.67-9.07-7-14.79.12-.54,6.02-1.69,8.17-.94,2.51.88,4.62,5.87,5.42,9.66,2.45,11.66,10.12,4.55,11.17,9.14l1.17,5.12c7.82,2.56,12.53,7.41,15.1,14.57l2.67,7.43c.55,1.53-3.97,2.52-6.5,2.85l-1.52-15.34Z"></path>
        <path d="M502.66,463.35l-2.73,8.73-8-9.24c-2.91-3.36-2.18-13.1-.5-16.96.62-1.42,6.03-2.16,6.68-.75,3.9,8.49-5.41,9.05,4.56,18.23Z"></path>
        <polygon points="513.76 538.62 507.33 539.38 503.44 522.55 508.87 522.05 513.76 538.62"></polygon>
        <path d="M435.82,511.74l-3.43-17.59c-.1-.53,1.53-4.25,2-3.99l2.92,1.62-1.48,19.96Z"></path>
        <path d="M396.98,468.27l-.54,10.32c-4.9-4.81-6.3-6.28-10.27-12.03l10.81,1.71Z"></path>
        <path d="M472.81,486.29c1.45-.42,6.41.44,5.95,1.87l-1.92,5.99c-.46,1.44-5.35.94-5.87-.48-.65-1.78.02-6.85,1.83-7.38Z"></path>
        <path d="M446.04,512.09l4.27-.18c.99-.04.26,4.56-.71,4.7l-3.03.42c-1.29.18-1.84-4.89-.53-4.94Z"></path>
        <path d="M427.55,461.54c1.84,1.18,3.25,1.8,3.15,2.71l-.47,4.43c-.1.94-2.93-1.04-3.59-1.67s-.08-1.83.91-5.48Z"></path>
        <path d="M457.93,489.97c.21-.59,2.81.09,2.76.71l-.32,4.1c-.07.94-4.15.07-3.84-.82l1.4-3.99Z"></path>
        <path d="M445.1,440.71c.34-.36,3.23,0,3.03.46l-1.35,3.11c-.3.69-2.11-.03-2.85-.15s.66-2.88,1.17-3.43Z"></path>
        <path d="M427.12,405.26c-2.53-2.22-5.13-4.38-4.28-5.15l4.28-3.88v9.03Z"></path>
        <path d="M436.74,453.87l-3.64-.22,1.59-5.57c.26-.9,3.79.29,3.51,1.18l-1.46,4.61Z"></path>
        <path d="M423.8,490.55c.55,5.57.58,5.91.09.94-.21-2.41-.28-3.27-.09-.94Z"></path>
        <circle cx="447.77" cy="482.5" r="1.38"></circle>
        <circle cx="489.65" cy="556.6" r="1.38"></circle>
        <path d="M364.15,149.2l-1.03-16.6c-4.59,2.2-9.65,4.04-10.91,2.13-2.12-3.22,2.31-7.37,5.77-9.37,2.28-1.32,8.17-2.21,8.05-.07l-.31,5.91c-.08,1.42,3.61,3.19,3.76,4.62l1.2,11.75c.12,1.21-1.94,4.19-2.87,5.02s-3.57-2.14-3.65-3.39Z"></path>
        <path d="M306.51,136.49c2.02-4.06,3.76-9.05,2.75-16.18l-7,14.53-.67-11.66c-.08-1.39.19-6.18,1.6-6.24s4.03.26,5.37.77l8.77,3.28c-.36,4.22-2.19,13.09-3.75,17.06-.48,1.22-7.43-.58-7.06-1.54Z"></path>
        <path d="M403.82,152.46l-10.46-6.19c-2.48-3.22-3.62-6.89-2.11-12.76l13.87,8.54-1.3,10.41Z"></path>
        <path d="M473.11,143.48l-7.52,6.73.26-15.18,4.09,2.07,3.31,2.44c.93.69.75,3.14-.14,3.94Z"></path>
        <path d="M519,148.59c-1.13.89-4.88,2.51-6.78,2.94s-5.33-4.36-4.41-6.01c1.62-2.92,7.98-1.34,11.18,3.07Z"></path>
        <path d="M357.41,151.68l-9.14-8.48-5.6-5.12-6.65-10.21c-.48-.73,1.81-3.62,2.27-2.89l2.19,3.44,4.46,7.01c2.62,4.11,4.94,6.2,12.36,7.36,0-.37.04,3.32.11,8.9Z"></path>
        <path d="M372,121.2c-1.13.55-6.38-2.55-5.66-3.66l4.58-7,1.08,10.66Z"></path>
        <path d="M501.76,154.02c-2.74-.08-5.25-.2-5.62-1.28-.46-1.35-.1-4.53.52-6.29,2.3,1.53,3.86,4.11,5.1,7.57Z"></path>
        <path d="M320.75,135.73c.04-1.01,3.88-.33,4.35.55s1.11,4.06.16,4.39l-2.88.99c-.94.32-1.7-4.17-1.62-5.93Z"></path>
        <path d="M331.21,230.58l-5.61,1.17-1.14-5.15c-.12-.56,2.49-.85,2.89-.4l3.86,4.38Z"></path>
        <path d="M296.49,133.79c.81.14-2.92,3.9-3.38,3.24l-3.04-4.38,6.42,1.13Z"></path>
        <circle cx="350.04" cy="121.65" r="2.39"></circle>
        <path d="M376.98,364.73c-3.22-2.89-4.12-4.44-4.49-6.31l-2.66-13.48,2.82-2.18c.99-.76,3.39,3.15,3.46,4.61l.86,17.36Z"></path>
        <path d="M365.7,317.28c.38,1.87-4.39,4.86-6.2,4.41s-6.39-3.03-7.01-4.8c-.59-1.67,3.8-4.95,5.56-5.12,2.11-.21,7.06,2.54,7.66,5.51Z"></path>
        <path d="M347.95,333.4l-5.44,3.73c-1.03.71-3.23-4.18-2.35-5.05l9.46-9.32c1.97,2.3.77,8.97-1.67,10.64Z"></path>
        <path d="M336.26,325.04c-.36,1.45-5.45,4.74-5.79,3.87-1.05-2.7-.84-8.91.76-10.78,1.85.67,5.44,5.26,5.03,6.91Z"></path>
        <path d="M338.14,375.02c.19.96-1.68,3.21-2.37,3.93-.91.96-4.22-2.69-3.9-3.96l1.22-4.89c.24-.97,3.91-.87,4.1.1l.95,4.82Z"></path>
        <path d="M387.75,315.98l-4.68,10.33c-1.32-4.1-2.34-8.69-2.39-11.83-.02-.86,4.39.66,7.07,1.5Z"></path>
        <path d="M376.63,336.31c-.96.94-4.49-.15-4.99-1.4-.64-1.56,1.89-6.05,3.47-5.47,1.45.53,2.63,5.79,1.53,6.86Z"></path>
        <path d="M398.08,359.1c-.23,1.04-3.55,1.64-4.27.88-.9-.94-1.67-4.75-.42-5.01l4.77-.98c.82-.17.32,3.29-.09,5.11Z"></path>
        <path d="M386.57,346.95c1.39.15,4.4.63,3.97,1.45l-2.01,3.84c-.43.83-2.79.37-2.79-.55,0-1.03-.07-4.83.83-4.73Z"></path>
        <path d="M396,341.84l-4.88-3.87c-.78-.62,2.18-2.42,3.23-2.42s3.1.95,2.83,1.95l-1.18,4.34Z"></path>
        <path d="M343.88,351.29c.4-.92,4.36-1.01,5.25-.57s-.58,2.84-1.29,3.77c-.81,1.07-4.51-1.93-3.96-3.2Z"></path>
        <path d="M348.92,311.62c.27,1.16-5.47.68-4.9-.36l2.81-5.11c.43-.77,1.78,4.14,2.09,5.47Z"></path>
        <path d="M408.55,366.35v-6.16c1.71,1.4,3.82,3.07,3.77,3.1-.06.04-2.09,1.7-3.77,3.06Z"></path>
        <path d="M380.64,334.96c-.25-.67,2.49,1.36,2.97,1.86s-.46,1.41-.86,2.06-1.77-2.99-2.12-3.93Z"></path>
        <circle cx="330.71" cy="339.66" r="1.38"></circle>
        <path d="M812.95,575.83c-.47,1.61-4.6,5.08-5.36,3.91-1.66-2.57-1.99-10.04-.25-11.97,1.99-2.2,6.9-4.62,9.5-5.11l-3.89,13.17Z"></path>
        <path d="M836.32,569.21c-.06.74-5.53-.9-4.81-2.19l3.58-6.43c1.33-2.39,2.42-7.02,3.67-11.76l3.84,8.22-6.28,12.16Z"></path>
        <path d="M898.8,524.15l1.92,5.97c.41,1.28-5.2,1.14-5.89,0l-5.28-8.68c2.99-1.93,8.37.01,9.24,2.7Z"></path>
        <path d="M877.5,540.53c.27,1.46.89,6.16-.39,6.09l-5.63-.29c-1.29-.07-1.71-4.86-.98-5.89l2.8-4c.75-1.08,3.96,2.78,4.2,4.08Z"></path>
        <path d="M862.79,539.2c1.85-.32,2.68,8.46.94,7.76-3.47-1.39-6.87-3.52-10.37-6.14l9.43-1.62Z"></path>
        <path d="M881.52,547.15c-.5-3.77,2.09-7.82,5.83-9.27l1.56,7.46c.38,1.83-3.19,1.99-7.39,1.81Z"></path>
        <path d="M820.72,578.36l2.8,6.1c.56,1.22-3.81,4.15-4.3,2.92l-2.69-6.69c2.65-2.19,4.06-3.15,4.2-2.32Z"></path>
        <path d="M866.88,528.29c-.18-.99,4.01-.41,4.86.14s1.91,2.7.97,3.04l-3.93,1.43c-1.21.44-1.57-2.83-1.89-4.61Z"></path>
        <path d="M858.3,526.08c-1.37-.02-4.96-4.44-3.98-5.83l4.46-6.33-.48,12.16Z"></path>
        <path d="M898.94,541.83c.21.07-3.67-1.21-4.6-1.52-1.24-.41.08-2.23,2.64-5.89l1.96,7.41Z"></path>
        <path d="M855.18,556.32c.52-.99,5.56,1.34,4.67,2.05l-3.87,3.05c-.92.72-1.43-3.9-.79-5.1Z"></path>
        <path d="M860.21,572.47l4-1.54c1.02-.4,1.35,2.98,1.21,4.07-.09.73-1.06.93-2.74,1.55-1.03.38-1.11-1.09-2.48-4.08Z"></path>
        <path d="M872.26,514.21c0-3.56,7.01,2.22,4.62,3.52l-2.54,1.38c-.89.48-2.08-3.68-2.08-4.9Z"></path>
        <path d="M900.12,511.34c-1.17,8.15-3.57,8.15-4.74,0h4.74Z"></path>
        <path d="M889.38,575.78c-1.17,8.15-3.57,8.16-4.74,0h4.74Z"></path>
        <path d="M840.77,580.86c-1.76-.54-6.26-2.64-5.39-3.08,2.67-1.63,4.51-2.94,4.82-2s1.5,5.36.57,5.08Z"></path>
        <circle cx="856.94" cy="579.15" r="2.39"></circle>
        <path d="M613.49,496.83c-2.73-.28-7.65-1.02-8.72-2.44-3.9-5.2-1.49-10.75.32-14.43.41-.84,1.29.96,2.44,2.74l8.25,9.21c.96,1.07-.9,5.06-2.3,4.92Z"></path>
        <circle cx="670.07" cy="474.98" r="1.38"></circle>
      </g>
    </g>
  </g>
</svg>